<?xml version="1.0" encoding="UTF-8" standalone="no"?>
<!DOCTYPE svg PUBLIC "-//W3C//DTD SVG 1.1//EN"
 "http://www.w3.org/Graphics/SVG/1.1/DTD/svg11.dtd">
<!-- Generated by graphviz version 2.47.1 (20210417.1919)
 -->
<!-- Title: Uitgave::toString Pages: 1 -->
<svg width="304pt" height="104pt"
 viewBox="0.00 0.00 304.00 104.00" xmlns="http://www.w3.org/2000/svg" xmlns:xlink="http://www.w3.org/1999/xlink">
<g id="graph0" class="graph" transform="scale(1 1) rotate(0) translate(4 100)">
<title>Uitgave::toString</title>
<polygon fill="white" stroke="transparent" points="-4,4 -4,-100 300,-100 300,4 -4,4"/>
<!-- Node1 -->
<g id="node1" class="node">
<title>Node1</title>
<g id="a_node1"><a xlink:title="Alle gegevens van een uitgave weer gegeven als string.">
<polygon fill="#bfbfbf" stroke="black" points="208,-38.5 208,-57.5 296,-57.5 296,-38.5 208,-38.5"/>
<text text-anchor="middle" x="252" y="-45.5" font-family="Helvetica,sans-Serif" font-size="10.00">Uitgave::toString</text>
</a>
</g>
</g>
<!-- Node2 -->
<g id="node2" class="node">
<title>Node2</title>
<g id="a_node2"><a xlink:href="../../db/da8/class_blue_ray.html#aa0a93b319d8da0201227941be638e933" target="_top" xlink:title="Alle gegevens van een blueRay weer gegeven als string.">
<polygon fill="white" stroke="black" points="76.5,-76.5 76.5,-95.5 169.5,-95.5 169.5,-76.5 76.5,-76.5"/>
<text text-anchor="middle" x="123" y="-83.5" font-family="Helvetica,sans-Serif" font-size="10.00">BlueRay::toString</text>
</a>
</g>
</g>
<!-- Node1&#45;&gt;Node2 -->
<g id="edge1" class="edge">
<title>Node1&#45;&gt;Node2</title>
<path fill="none" stroke="midnightblue" d="M209.11,-60.54C191.83,-65.7 172.13,-71.6 156.04,-76.41"/>
<polygon fill="midnightblue" stroke="midnightblue" points="210.38,-63.81 218.95,-57.59 208.37,-57.1 210.38,-63.81"/>
</g>
<!-- Node4 -->
<g id="node4" class="node">
<title>Node4</title>
<g id="a_node4"><a xlink:href="../../db/d63/class_boek.html#a1e5763f3f45853efd21a0d37a09b01fd" target="_top" xlink:title="Alle gegevens van een boek weer gegeven als string.">
<polygon fill="white" stroke="black" points="83.5,-38.5 83.5,-57.5 162.5,-57.5 162.5,-38.5 83.5,-38.5"/>
<text text-anchor="middle" x="123" y="-45.5" font-family="Helvetica,sans-Serif" font-size="10.00">Boek::toString</text>
</a>
</g>
</g>
<!-- Node1&#45;&gt;Node4 -->
<g id="edge3" class="edge">
<title>Node1&#45;&gt;Node4</title>
<path fill="none" stroke="midnightblue" d="M197.58,-48C185.95,-48 173.85,-48 162.9,-48"/>
<polygon fill="midnightblue" stroke="midnightblue" points="197.65,-51.5 207.65,-48 197.65,-44.5 197.65,-51.5"/>
</g>
<!-- Node5 -->
<g id="node5" class="node">
<title>Node5</title>
<g id="a_node5"><a xlink:href="../../d0/d1e/class_tijdschrift.html#a691ecb3382aee139c0090cec79c5b67f" target="_top" xlink:title="Alle gegevens van een tijdschrift weer gegeven als string.">
<polygon fill="white" stroke="black" points="74,-0.5 74,-19.5 172,-19.5 172,-0.5 74,-0.5"/>
<text text-anchor="middle" x="123" y="-7.5" font-family="Helvetica,sans-Serif" font-size="10.00">Tijdschrift::toString</text>
</a>
</g>
</g>
<!-- Node1&#45;&gt;Node5 -->
<g id="edge5" class="edge">
<title>Node1&#45;&gt;Node5</title>
<path fill="none" stroke="midnightblue" d="M209.11,-35.46C191.83,-30.3 172.13,-24.4 156.04,-19.59"/>
<polygon fill="midnightblue" stroke="midnightblue" points="208.37,-38.9 218.95,-38.41 210.38,-32.19 208.37,-38.9"/>
</g>
<!-- Node3 -->
<g id="node3" class="node">
<title>Node3</title>
<g id="a_node3"><a xlink:href="../../d4/dd7/group___h_f_s_t92.html#gae66f6b31b5ad750f1fe042a706a4e3d4" target="_top" xlink:title="Main function.">
<polygon fill="white" stroke="black" points="0,-38.5 0,-57.5 38,-57.5 38,-38.5 0,-38.5"/>
<text text-anchor="middle" x="19" y="-45.5" font-family="Helvetica,sans-Serif" font-size="10.00">main</text>
</a>
</g>
</g>
<!-- Node2&#45;&gt;Node3 -->
<g id="edge2" class="edge">
<title>Node2&#45;&gt;Node3</title>
<path fill="none" stroke="midnightblue" d="M86.45,-72.76C70.1,-66.66 51.4,-59.7 38.02,-54.71"/>
<polygon fill="midnightblue" stroke="midnightblue" points="85.67,-76.2 96.26,-76.41 88.11,-69.64 85.67,-76.2"/>
</g>
<!-- Node4&#45;&gt;Node3 -->
<g id="edge4" class="edge">
<title>Node4&#45;&gt;Node3</title>
<path fill="none" stroke="midnightblue" d="M73.42,-48C60.81,-48 48,-48 38.09,-48"/>
<polygon fill="midnightblue" stroke="midnightblue" points="73.44,-51.5 83.44,-48 73.44,-44.5 73.44,-51.5"/>
</g>
<!-- Node5&#45;&gt;Node3 -->
<g id="edge6" class="edge">
<title>Node5&#45;&gt;Node3</title>
<path fill="none" stroke="midnightblue" d="M86.45,-23.24C70.1,-29.34 51.4,-36.3 38.02,-41.29"/>
<polygon fill="midnightblue" stroke="midnightblue" points="88.11,-26.36 96.26,-19.59 85.67,-19.8 88.11,-26.36"/>
</g>
</g>
</svg>
