<?xml version="1.0" encoding="UTF-8" standalone="no"?>
<!DOCTYPE svg PUBLIC "-//W3C//DTD SVG 1.1//EN"
 "http://www.w3.org/Graphics/SVG/1.1/DTD/svg11.dtd">
<!-- Generated by graphviz version 2.38.0 (20140413.2041)
 -->
<!-- Title: Datum1::toString Pages: 1 -->
<svg width="258pt" height="78pt"
 viewBox="0.00 0.00 258.00 77.50" xmlns="http://www.w3.org/2000/svg" xmlns:xlink="http://www.w3.org/1999/xlink">
<g id="graph0" class="graph" transform="scale(1 1) rotate(0) translate(4 73.5)">
<title>Datum1::toString</title>
<polygon fill="white" stroke="none" points="-4,4 -4,-73.5 254,-73.5 254,4 -4,4"/>
<!-- Node1 -->
<g id="node1" class="node"><title>Node1</title>
<polygon fill="#bfbfbf" stroke="black" points="0,-28 0,-47 100,-47 100,-28 0,-28"/>
<text text-anchor="middle" x="50" y="-35" font-family="Helvetica,sans-Serif" font-size="10.00">Datum1::toString</text>
</g>
<!-- Node2 -->
<g id="node2" class="node"><title>Node2</title>
<g id="a_node2"><a xlink:href="classStudent1.html#a89612d9a033b66437d7b44b46c0e6708" target="_top" xlink:title="Alle gegevens van de student weer gegeven als string. ">
<polygon fill="white" stroke="black" points="140.5,-50 140.5,-69 245.5,-69 245.5,-50 140.5,-50"/>
<text text-anchor="middle" x="193" y="-57" font-family="Helvetica,sans-Serif" font-size="10.00">Student1::toString</text>
</a>
</g>
</g>
<!-- Node1&#45;&gt;Node2 -->
<g id="edge1" class="edge"><title>Node1&#45;&gt;Node2</title>
<path fill="none" stroke="midnightblue" d="M110.439,-46.7742C120.288,-48.311 130.433,-49.8939 140.079,-51.3988"/>
<polygon fill="midnightblue" stroke="midnightblue" points="110.735,-43.2781 100.315,-45.1945 109.656,-50.1944 110.735,-43.2781"/>
</g>
<!-- Node3 -->
<g id="node3" class="node"><title>Node3</title>
<g id="a_node3"><a xlink:href="classTentamenResultaat.html#a1d217bfd54d3b286de7fd4654776d5e8" target="_top" xlink:title="Alle gegevens van het tentamen resultaat weer gegeven als string. ">
<polygon fill="white" stroke="black" points="136,-0.5 136,-30.5 250,-30.5 250,-0.5 136,-0.5"/>
<text text-anchor="start" x="144" y="-18.5" font-family="Helvetica,sans-Serif" font-size="10.00">TentamenResultaat::</text>
<text text-anchor="middle" x="193" y="-7.5" font-family="Helvetica,sans-Serif" font-size="10.00">toString</text>
</a>
</g>
</g>
<!-- Node1&#45;&gt;Node3 -->
<g id="edge2" class="edge"><title>Node1&#45;&gt;Node3</title>
<path fill="none" stroke="midnightblue" d="M110.404,-28.2312C118.79,-26.9228 127.391,-25.5808 135.716,-24.2819"/>
<polygon fill="midnightblue" stroke="midnightblue" points="109.656,-24.8056 100.315,-29.8055 110.735,-31.7219 109.656,-24.8056"/>
</g>
</g>
</svg>
