<?xml version="1.0" encoding="UTF-8" standalone="no"?>
<!DOCTYPE svg PUBLIC "-//W3C//DTD SVG 1.1//EN"
 "http://www.w3.org/Graphics/SVG/1.1/DTD/svg11.dtd">
<!-- Generated by graphviz version 2.44.0 ()
 -->
<!-- Title: Datum1::changeDatum Pages: 1 -->
<svg width="301pt" height="78pt"
 viewBox="0.00 0.00 301.00 77.50" xmlns="http://www.w3.org/2000/svg" xmlns:xlink="http://www.w3.org/1999/xlink">
<g id="graph0" class="graph" transform="scale(1 1) rotate(0) translate(4 73.5)">
<title>Datum1::changeDatum</title>
<polygon fill="white" stroke="transparent" points="-4,4 -4,-73.5 297,-73.5 297,4 -4,4"/>
<!-- Node1 -->
<g id="node1" class="node">
<title>Node1</title>
<g id="a_node1"><a xlink:title="Veranderd de datum.">
<polygon fill="#bfbfbf" stroke="black" points="178,-28 178,-47 293,-47 293,-28 178,-28"/>
<text text-anchor="middle" x="235.5" y="-35" font-family="Helvetica,sans-Serif" font-size="10.00">Datum1::changeDatum</text>
</a>
</g>
</g>
<!-- Node2 -->
<g id="node2" class="node">
<title>Node2</title>
<g id="a_node2"><a xlink:href="classStudent1.html#a55ea5c1a1a7eb6d9d3d4e2a0e21789fb" target="_top" xlink:title="Set geboorte datum van de student.">
<polygon fill="white" stroke="black" points="0,-50 0,-69 142,-69 142,-50 0,-50"/>
<text text-anchor="middle" x="71" y="-57" font-family="Helvetica,sans-Serif" font-size="10.00">Student1::setGeboorteDatum</text>
</a>
</g>
</g>
<!-- Node1&#45;&gt;Node2 -->
<g id="edge1" class="edge">
<title>Node1&#45;&gt;Node2</title>
<path fill="none" stroke="midnightblue" d="M167.59,-46.56C159.23,-47.69 150.65,-48.85 142.24,-49.99"/>
<polygon fill="midnightblue" stroke="midnightblue" points="168.23,-50 177.67,-45.19 167.29,-43.07 168.23,-50"/>
</g>
<!-- Node3 -->
<g id="node3" class="node">
<title>Node3</title>
<g id="a_node3"><a xlink:href="classTentamenResultaat.html#abb86c650be5b867f277bd3ad17415b41" target="_top" xlink:title="Set het tentamenresulataat.">
<polygon fill="white" stroke="black" points="13.5,-0.5 13.5,-30.5 128.5,-30.5 128.5,-0.5 13.5,-0.5"/>
<text text-anchor="start" x="21.5" y="-18.5" font-family="Helvetica,sans-Serif" font-size="10.00">TentamenResultaat::</text>
<text text-anchor="middle" x="71" y="-7.5" font-family="Helvetica,sans-Serif" font-size="10.00">setTentamenResultaat</text>
</a>
</g>
</g>
<!-- Node1&#45;&gt;Node3 -->
<g id="edge2" class="edge">
<title>Node1&#45;&gt;Node3</title>
<path fill="none" stroke="midnightblue" d="M167.43,-28.42C154.5,-26.67 141.08,-24.85 128.53,-23.15"/>
<polygon fill="midnightblue" stroke="midnightblue" points="167.29,-31.93 177.67,-29.81 168.23,-25 167.29,-31.93"/>
</g>
</g>
</svg>
