<?xml version="1.0" encoding="UTF-8" standalone="no"?>
<!DOCTYPE svg PUBLIC "-//W3C//DTD SVG 1.1//EN"
 "http://www.w3.org/Graphics/SVG/1.1/DTD/svg11.dtd">
<!-- Generated by graphviz version 2.44.0 ()
 -->
<!-- Title: Uitgave Pages: 1 -->
<svg width="278pt" height="248pt"
 viewBox="0.00 0.00 277.50 248.00" xmlns="http://www.w3.org/2000/svg" xmlns:xlink="http://www.w3.org/1999/xlink">
<g id="graph0" class="graph" transform="scale(1 1) rotate(0) translate(4 244)">
<title>Uitgave</title>
<polygon fill="white" stroke="transparent" points="-4,4 -4,-244 273.5,-244 273.5,4 -4,4"/>
<!-- Node1 -->
<g id="node1" class="node">
<title>Node1</title>
<g id="a_node1"><a xlink:title="Parent klasse voor een Uitgave.">
<polygon fill="#bfbfbf" stroke="black" points="105,-138.5 105,-239.5 170,-239.5 170,-138.5 105,-138.5"/>
<text text-anchor="middle" x="137.5" y="-227.5" font-family="Helvetica,sans-Serif" font-size="10.00">Uitgave</text>
<polyline fill="none" stroke="black" points="105,-220.5 170,-220.5 "/>
<text text-anchor="start" x="113" y="-208.5" font-family="Helvetica,sans-Serif" font-size="10.00"># titel</text>
<text text-anchor="start" x="113" y="-197.5" font-family="Helvetica,sans-Serif" font-size="10.00"># prijs</text>
<polyline fill="none" stroke="black" points="105,-190.5 170,-190.5 "/>
<text text-anchor="start" x="113" y="-178.5" font-family="Helvetica,sans-Serif" font-size="10.00">+ Uitgave()</text>
<text text-anchor="start" x="113" y="-167.5" font-family="Helvetica,sans-Serif" font-size="10.00">+ setTitle()</text>
<text text-anchor="start" x="113" y="-156.5" font-family="Helvetica,sans-Serif" font-size="10.00">+ setPrijs()</text>
<text text-anchor="start" x="113" y="-145.5" font-family="Helvetica,sans-Serif" font-size="10.00">+ toString()</text>
</a>
</g>
</g>
<!-- Node2 -->
<g id="node2" class="node">
<title>Node2</title>
<g id="a_node2"><a xlink:href="classBlueRay.html" target="_top" xlink:title="Child klasse blueRay, parent: Uitgave.">
<polygon fill="white" stroke="black" points="0,-11.5 0,-90.5 79,-90.5 79,-11.5 0,-11.5"/>
<text text-anchor="middle" x="39.5" y="-78.5" font-family="Helvetica,sans-Serif" font-size="10.00">BlueRay</text>
<polyline fill="none" stroke="black" points="0,-71.5 79,-71.5 "/>
<text text-anchor="start" x="8" y="-59.5" font-family="Helvetica,sans-Serif" font-size="10.00">&#45; minuten</text>
<polyline fill="none" stroke="black" points="0,-52.5 79,-52.5 "/>
<text text-anchor="start" x="8" y="-40.5" font-family="Helvetica,sans-Serif" font-size="10.00">+ BlueRay()</text>
<text text-anchor="start" x="8" y="-29.5" font-family="Helvetica,sans-Serif" font-size="10.00">+ setMinuten()</text>
<text text-anchor="start" x="8" y="-18.5" font-family="Helvetica,sans-Serif" font-size="10.00">+ toString()</text>
</a>
</g>
</g>
<!-- Node1&#45;&gt;Node2 -->
<g id="edge1" class="edge">
<title>Node1&#45;&gt;Node2</title>
<path fill="none" stroke="midnightblue" d="M98.79,-134.27C88.3,-119.73 77.16,-104.26 67.4,-90.72"/>
<polygon fill="none" stroke="midnightblue" points="96.18,-136.65 104.87,-142.71 101.86,-132.55 96.18,-136.65"/>
</g>
<!-- Node3 -->
<g id="node3" class="node">
<title>Node3</title>
<g id="a_node3"><a xlink:href="classBoek.html" target="_top" xlink:title="Child klasse boek, parent: Uitgave.">
<polygon fill="white" stroke="black" points="97.5,-0.5 97.5,-101.5 177.5,-101.5 177.5,-0.5 97.5,-0.5"/>
<text text-anchor="middle" x="137.5" y="-89.5" font-family="Helvetica,sans-Serif" font-size="10.00">Boek</text>
<polyline fill="none" stroke="black" points="97.5,-82.5 177.5,-82.5 "/>
<text text-anchor="start" x="105.5" y="-70.5" font-family="Helvetica,sans-Serif" font-size="10.00">&#45; auteur</text>
<text text-anchor="start" x="105.5" y="-59.5" font-family="Helvetica,sans-Serif" font-size="10.00">&#45; paginas</text>
<polyline fill="none" stroke="black" points="97.5,-52.5 177.5,-52.5 "/>
<text text-anchor="start" x="105.5" y="-40.5" font-family="Helvetica,sans-Serif" font-size="10.00">+ Boek()</text>
<text text-anchor="start" x="105.5" y="-29.5" font-family="Helvetica,sans-Serif" font-size="10.00">+ setAuteur()</text>
<text text-anchor="start" x="105.5" y="-18.5" font-family="Helvetica,sans-Serif" font-size="10.00">+ setPaginas()</text>
<text text-anchor="start" x="105.5" y="-7.5" font-family="Helvetica,sans-Serif" font-size="10.00">+ toString()</text>
</a>
</g>
</g>
<!-- Node1&#45;&gt;Node3 -->
<g id="edge2" class="edge">
<title>Node1&#45;&gt;Node3</title>
<path fill="none" stroke="midnightblue" d="M137.5,-128C137.5,-119.27 137.5,-110.36 137.5,-101.86"/>
<polygon fill="none" stroke="midnightblue" points="134,-128.13 137.5,-138.13 141,-128.13 134,-128.13"/>
</g>
<!-- Node4 -->
<g id="node4" class="node">
<title>Node4</title>
<g id="a_node4"><a xlink:href="classTijdschrift.html" target="_top" xlink:title="Child klasse Tijdschrift, parent: Uitgave.">
<polygon fill="white" stroke="black" points="195.5,-6 195.5,-96 269.5,-96 269.5,-6 195.5,-6"/>
<text text-anchor="middle" x="232.5" y="-84" font-family="Helvetica,sans-Serif" font-size="10.00">Tijdschrift</text>
<polyline fill="none" stroke="black" points="195.5,-77 269.5,-77 "/>
<text text-anchor="start" x="203.5" y="-65" font-family="Helvetica,sans-Serif" font-size="10.00">&#45; maand</text>
<text text-anchor="start" x="203.5" y="-54" font-family="Helvetica,sans-Serif" font-size="10.00">&#45; maanden</text>
<polyline fill="none" stroke="black" points="195.5,-47 269.5,-47 "/>
<text text-anchor="start" x="203.5" y="-35" font-family="Helvetica,sans-Serif" font-size="10.00">+ Tijdschrift()</text>
<text text-anchor="start" x="203.5" y="-24" font-family="Helvetica,sans-Serif" font-size="10.00">+ setMaand()</text>
<text text-anchor="start" x="203.5" y="-13" font-family="Helvetica,sans-Serif" font-size="10.00">+ toString()</text>
</a>
</g>
</g>
<!-- Node1&#45;&gt;Node4 -->
<g id="edge3" class="edge">
<title>Node1&#45;&gt;Node4</title>
<path fill="none" stroke="midnightblue" d="M176.02,-132.85C184.55,-120.64 193.49,-107.85 201.67,-96.14"/>
<polygon fill="none" stroke="midnightblue" points="173.05,-130.99 170.19,-141.2 178.79,-135 173.05,-130.99"/>
</g>
</g>
</svg>
