<?xml version="1.0" encoding="UTF-8" standalone="no"?>
<!DOCTYPE svg PUBLIC "-//W3C//DTD SVG 1.1//EN"
 "http://www.w3.org/Graphics/SVG/1.1/DTD/svg11.dtd">
<!-- Generated by graphviz version 2.38.0 (20140413.2041)
 -->
<!-- Title: Uitgave::toString Pages: 1 -->
<svg width="325pt" height="104pt"
 viewBox="0.00 0.00 325.00 104.00" xmlns="http://www.w3.org/2000/svg" xmlns:xlink="http://www.w3.org/1999/xlink">
<g id="graph0" class="graph" transform="scale(1 1) rotate(0) translate(4 100)">
<title>Uitgave::toString</title>
<polygon fill="white" stroke="none" points="-4,4 -4,-100 321,-100 321,4 -4,4"/>
<!-- Node1 -->
<g id="node1" class="node"><title>Node1</title>
<polygon fill="#bfbfbf" stroke="black" points="0,-38.5 0,-57.5 98,-57.5 98,-38.5 0,-38.5"/>
<text text-anchor="middle" x="49" y="-45.5" font-family="Helvetica,sans-Serif" font-size="10.00">Uitgave::toString</text>
</g>
<!-- Node2 -->
<g id="node2" class="node"><title>Node2</title>
<g id="a_node2"><a xlink:href="classBlueRay.html#abd86f893890db0b3b90c5a926a73d47a" target="_top" xlink:title="Alle gegevens van een blueRay weer gegeven als string. ">
<polygon fill="white" stroke="black" points="138,-76.5 138,-95.5 236,-95.5 236,-76.5 138,-76.5"/>
<text text-anchor="middle" x="187" y="-83.5" font-family="Helvetica,sans-Serif" font-size="10.00">BlueRay::toString</text>
</a>
</g>
</g>
<!-- Node1&#45;&gt;Node2 -->
<g id="edge1" class="edge"><title>Node1&#45;&gt;Node2</title>
<path fill="none" stroke="midnightblue" d="M94.0866,-60.3183C112.772,-65.5393 134.218,-71.5316 151.692,-76.4141"/>
<polygon fill="midnightblue" stroke="midnightblue" points="94.8915,-56.9092 84.3185,-57.589 93.0078,-63.651 94.8915,-56.9092"/>
</g>
<!-- Node4 -->
<g id="node4" class="node"><title>Node4</title>
<g id="a_node4"><a xlink:href="classBoek.html#a21c8fd42ff784b1b4c06bb277bb53507" target="_top" xlink:title="Alle gegevens van een boek weer gegeven als string. ">
<polygon fill="white" stroke="black" points="144.5,-38.5 144.5,-57.5 229.5,-57.5 229.5,-38.5 144.5,-38.5"/>
<text text-anchor="middle" x="187" y="-45.5" font-family="Helvetica,sans-Serif" font-size="10.00">Boek::toString</text>
</a>
</g>
</g>
<!-- Node1&#45;&gt;Node4 -->
<g id="edge3" class="edge"><title>Node1&#45;&gt;Node4</title>
<path fill="none" stroke="midnightblue" d="M108.679,-48C120.611,-48 132.933,-48 144.138,-48"/>
<polygon fill="midnightblue" stroke="midnightblue" points="108.331,-44.5001 98.3314,-48 108.331,-51.5001 108.331,-44.5001"/>
</g>
<!-- Node5 -->
<g id="node5" class="node"><title>Node5</title>
<g id="a_node5"><a xlink:href="classTijdschrift.html#a06a64b55da768d0a657132c015c892be" target="_top" xlink:title="Alle gegevens van een tijdschrift weer gegeven als string. ">
<polygon fill="white" stroke="black" points="134,-0.5 134,-19.5 240,-19.5 240,-0.5 134,-0.5"/>
<text text-anchor="middle" x="187" y="-7.5" font-family="Helvetica,sans-Serif" font-size="10.00">Tijdschrift::toString</text>
</a>
</g>
</g>
<!-- Node1&#45;&gt;Node5 -->
<g id="edge5" class="edge"><title>Node1&#45;&gt;Node5</title>
<path fill="none" stroke="midnightblue" d="M94.0866,-35.6817C112.772,-30.4607 134.218,-24.4684 151.692,-19.5859"/>
<polygon fill="midnightblue" stroke="midnightblue" points="93.0078,-32.349 84.3185,-38.411 94.8915,-39.0908 93.0078,-32.349"/>
</g>
<!-- Node3 -->
<g id="node3" class="node"><title>Node3</title>
<g id="a_node3"><a xlink:href="group__HFST92.html#gae66f6b31b5ad750f1fe042a706a4e3d4" target="_top" xlink:title="Main function. ">
<polygon fill="white" stroke="black" points="276,-38.5 276,-57.5 317,-57.5 317,-38.5 276,-38.5"/>
<text text-anchor="middle" x="296.5" y="-45.5" font-family="Helvetica,sans-Serif" font-size="10.00">main</text>
</a>
</g>
</g>
<!-- Node2&#45;&gt;Node3 -->
<g id="edge2" class="edge"><title>Node2&#45;&gt;Node3</title>
<path fill="none" stroke="midnightblue" d="M224.848,-72.9747C241.96,-66.9257 261.617,-59.9772 275.845,-54.9477"/>
<polygon fill="midnightblue" stroke="midnightblue" points="223.389,-69.7782 215.127,-76.411 225.722,-76.378 223.389,-69.7782"/>
</g>
<!-- Node4&#45;&gt;Node3 -->
<g id="edge4" class="edge"><title>Node4&#45;&gt;Node3</title>
<path fill="none" stroke="midnightblue" d="M239.802,-48C252.681,-48 265.71,-48 275.924,-48"/>
<polygon fill="midnightblue" stroke="midnightblue" points="239.562,-44.5001 229.562,-48 239.562,-51.5001 239.562,-44.5001"/>
</g>
<!-- Node5&#45;&gt;Node3 -->
<g id="edge6" class="edge"><title>Node5&#45;&gt;Node3</title>
<path fill="none" stroke="midnightblue" d="M224.848,-23.0253C241.96,-29.0743 261.617,-36.0228 275.845,-41.0523"/>
<polygon fill="midnightblue" stroke="midnightblue" points="225.722,-19.622 215.127,-19.589 223.389,-26.2218 225.722,-19.622"/>
</g>
</g>
</svg>
