<?xml version="1.0" encoding="UTF-8" standalone="no"?>
<!DOCTYPE svg PUBLIC "-//W3C//DTD SVG 1.1//EN"
 "http://www.w3.org/Graphics/SVG/1.1/DTD/svg11.dtd">
<!-- Generated by graphviz version 2.44.0 ()
 -->
<!-- Title: Uitgave::toString Pages: 1 -->
<svg width="305pt" height="104pt"
 viewBox="0.00 0.00 305.00 104.00" xmlns="http://www.w3.org/2000/svg" xmlns:xlink="http://www.w3.org/1999/xlink">
<g id="graph0" class="graph" transform="scale(1 1) rotate(0) translate(4 100)">
<title>Uitgave::toString</title>
<polygon fill="white" stroke="transparent" points="-4,4 -4,-100 301,-100 301,4 -4,4"/>
<!-- Node1 -->
<g id="node1" class="node">
<title>Node1</title>
<g id="a_node1"><a xlink:title="Alle gegevens van een uitgave weer gegeven als string.">
<polygon fill="#bfbfbf" stroke="black" points="208,-38.5 208,-57.5 297,-57.5 297,-38.5 208,-38.5"/>
<text text-anchor="middle" x="252.5" y="-45.5" font-family="Helvetica,sans-Serif" font-size="10.00">Uitgave::toString</text>
</a>
</g>
</g>
<!-- Node2 -->
<g id="node2" class="node">
<title>Node2</title>
<g id="a_node2"><a xlink:href="classBlueRay.html#aa0a93b319d8da0201227941be638e933" target="_top" xlink:title="Alle gegevens van een blueRay weer gegeven als string.">
<polygon fill="white" stroke="black" points="77.5,-76.5 77.5,-95.5 168.5,-95.5 168.5,-76.5 77.5,-76.5"/>
<text text-anchor="middle" x="123" y="-83.5" font-family="Helvetica,sans-Serif" font-size="10.00">BlueRay::toString</text>
</a>
</g>
</g>
<!-- Node1&#45;&gt;Node2 -->
<g id="edge1" class="edge">
<title>Node1&#45;&gt;Node2</title>
<path fill="none" stroke="midnightblue" d="M209.44,-60.54C192.1,-65.7 172.32,-71.6 156.16,-76.41"/>
<polygon fill="midnightblue" stroke="midnightblue" points="210.74,-63.8 219.33,-57.59 208.74,-57.09 210.74,-63.8"/>
</g>
<!-- Node4 -->
<g id="node4" class="node">
<title>Node4</title>
<g id="a_node4"><a xlink:href="classBoek.html#a1e5763f3f45853efd21a0d37a09b01fd" target="_top" xlink:title="Alle gegevens van een boek weer gegeven als string.">
<polygon fill="white" stroke="black" points="84.5,-38.5 84.5,-57.5 161.5,-57.5 161.5,-38.5 84.5,-38.5"/>
<text text-anchor="middle" x="123" y="-45.5" font-family="Helvetica,sans-Serif" font-size="10.00">Boek::toString</text>
</a>
</g>
</g>
<!-- Node1&#45;&gt;Node4 -->
<g id="edge3" class="edge">
<title>Node1&#45;&gt;Node4</title>
<path fill="none" stroke="midnightblue" d="M197.93,-48C185.78,-48 173.13,-48 161.79,-48"/>
<polygon fill="midnightblue" stroke="midnightblue" points="197.98,-51.5 207.98,-48 197.98,-44.5 197.98,-51.5"/>
</g>
<!-- Node5 -->
<g id="node5" class="node">
<title>Node5</title>
<g id="a_node5"><a xlink:href="classTijdschrift.html#a691ecb3382aee139c0090cec79c5b67f" target="_top" xlink:title="Alle gegevens van een tijdschrift weer gegeven als string.">
<polygon fill="white" stroke="black" points="74,-0.5 74,-19.5 172,-19.5 172,-0.5 74,-0.5"/>
<text text-anchor="middle" x="123" y="-7.5" font-family="Helvetica,sans-Serif" font-size="10.00">Tijdschrift::toString</text>
</a>
</g>
</g>
<!-- Node1&#45;&gt;Node5 -->
<g id="edge5" class="edge">
<title>Node1&#45;&gt;Node5</title>
<path fill="none" stroke="midnightblue" d="M209.44,-35.46C192.1,-30.3 172.32,-24.4 156.16,-19.59"/>
<polygon fill="midnightblue" stroke="midnightblue" points="208.74,-38.91 219.33,-38.41 210.74,-32.2 208.74,-38.91"/>
</g>
<!-- Node3 -->
<g id="node3" class="node">
<title>Node3</title>
<g id="a_node3"><a xlink:href="group__HFST92.html#gae66f6b31b5ad750f1fe042a706a4e3d4" target="_top" xlink:title="Main function.">
<polygon fill="white" stroke="black" points="0,-38.5 0,-57.5 38,-57.5 38,-38.5 0,-38.5"/>
<text text-anchor="middle" x="19" y="-45.5" font-family="Helvetica,sans-Serif" font-size="10.00">main</text>
</a>
</g>
</g>
<!-- Node2&#45;&gt;Node3 -->
<g id="edge2" class="edge">
<title>Node2&#45;&gt;Node3</title>
<path fill="none" stroke="midnightblue" d="M86.45,-72.76C70.1,-66.66 51.4,-59.7 38.02,-54.71"/>
<polygon fill="midnightblue" stroke="midnightblue" points="85.67,-76.2 96.26,-76.41 88.11,-69.64 85.67,-76.2"/>
</g>
<!-- Node4&#45;&gt;Node3 -->
<g id="edge4" class="edge">
<title>Node4&#45;&gt;Node3</title>
<path fill="none" stroke="midnightblue" d="M74.14,-48C61.32,-48 48.23,-48 38.13,-48"/>
<polygon fill="midnightblue" stroke="midnightblue" points="74.31,-51.5 84.31,-48 74.31,-44.5 74.31,-51.5"/>
</g>
<!-- Node5&#45;&gt;Node3 -->
<g id="edge6" class="edge">
<title>Node5&#45;&gt;Node3</title>
<path fill="none" stroke="midnightblue" d="M86.45,-23.24C70.1,-29.34 51.4,-36.3 38.02,-41.29"/>
<polygon fill="midnightblue" stroke="midnightblue" points="88.11,-26.36 96.26,-19.59 85.67,-19.8 88.11,-26.36"/>
</g>
</g>
</svg>
