<?xml version="1.0" encoding="UTF-8" standalone="no"?>
<!DOCTYPE svg PUBLIC "-//W3C//DTD SVG 1.1//EN"
 "http://www.w3.org/Graphics/SVG/1.1/DTD/svg11.dtd">
<!-- Generated by graphviz version 2.44.0 ()
 -->
<!-- Title: Voertuig Pages: 1 -->
<svg width="92pt" height="215pt"
 viewBox="0.00 0.00 92.00 215.00" xmlns="http://www.w3.org/2000/svg" xmlns:xlink="http://www.w3.org/1999/xlink">
<g id="graph0" class="graph" transform="scale(1 1) rotate(0) translate(4 211)">
<title>Voertuig</title>
<polygon fill="white" stroke="transparent" points="-4,4 -4,-211 88,-211 88,4 -4,4"/>
<!-- Node1 -->
<g id="node1" class="node">
<title>Node1</title>
<g id="a_node1"><a xlink:title="Parent klasse voor een voertuig.">
<polygon fill="#bfbfbf" stroke="black" points="2,-127.5 2,-206.5 82,-206.5 82,-127.5 2,-127.5"/>
<text text-anchor="middle" x="42" y="-194.5" font-family="Helvetica,sans-Serif" font-size="10.00">Voertuig</text>
<polyline fill="none" stroke="black" points="2,-187.5 82,-187.5 "/>
<text text-anchor="start" x="10" y="-175.5" font-family="Helvetica,sans-Serif" font-size="10.00"># aantalWielen</text>
<polyline fill="none" stroke="black" points="2,-168.5 82,-168.5 "/>
<text text-anchor="start" x="10" y="-156.5" font-family="Helvetica,sans-Serif" font-size="10.00">+ Voertuig()</text>
<text text-anchor="start" x="10" y="-145.5" font-family="Helvetica,sans-Serif" font-size="10.00">+ Voertuig()</text>
<text text-anchor="start" x="10" y="-134.5" font-family="Helvetica,sans-Serif" font-size="10.00">+ toString()</text>
</a>
</g>
</g>
<!-- Node2 -->
<g id="node2" class="node">
<title>Node2</title>
<g id="a_node2"><a xlink:href="classFiets.html" target="_top" xlink:title="Child klasse fiets, parent: Voertuig.">
<polygon fill="white" stroke="black" points="0,-0.5 0,-90.5 84,-90.5 84,-0.5 0,-0.5"/>
<text text-anchor="middle" x="42" y="-78.5" font-family="Helvetica,sans-Serif" font-size="10.00">Fiets</text>
<polyline fill="none" stroke="black" points="0,-71.5 84,-71.5 "/>
<text text-anchor="start" x="8" y="-59.5" font-family="Helvetica,sans-Serif" font-size="10.00">&#45; aw</text>
<text text-anchor="start" x="8" y="-48.5" font-family="Helvetica,sans-Serif" font-size="10.00">&#45; frameNummer</text>
<polyline fill="none" stroke="black" points="0,-41.5 84,-41.5 "/>
<text text-anchor="start" x="8" y="-29.5" font-family="Helvetica,sans-Serif" font-size="10.00">+ Fiets()</text>
<text text-anchor="start" x="8" y="-18.5" font-family="Helvetica,sans-Serif" font-size="10.00">+ Fiets()</text>
<text text-anchor="start" x="8" y="-7.5" font-family="Helvetica,sans-Serif" font-size="10.00">+ toString()</text>
</a>
</g>
</g>
<!-- Node1&#45;&gt;Node2 -->
<g id="edge1" class="edge">
<title>Node1&#45;&gt;Node2</title>
<path fill="none" stroke="midnightblue" d="M42,-117.19C42,-108.49 42,-99.48 42,-90.91"/>
<polygon fill="none" stroke="midnightblue" points="38.5,-117.2 42,-127.2 45.5,-117.2 38.5,-117.2"/>
</g>
</g>
</svg>
