<?xml version="1.0" encoding="UTF-8" standalone="no"?>
<!DOCTYPE svg PUBLIC "-//W3C//DTD SVG 1.1//EN"
 "http://www.w3.org/Graphics/SVG/1.1/DTD/svg11.dtd">
<!-- Generated by graphviz version 2.44.0 ()
 -->
<!-- Title: Boek Pages: 1 -->
<svg width="88pt" height="248pt"
 viewBox="0.00 0.00 88.00 248.00" xmlns="http://www.w3.org/2000/svg" xmlns:xlink="http://www.w3.org/1999/xlink">
<g id="graph0" class="graph" transform="scale(1 1) rotate(0) translate(4 244)">
<title>Boek</title>
<polygon fill="white" stroke="transparent" points="-4,4 -4,-244 84,-244 84,4 -4,4"/>
<!-- Node1 -->
<g id="node1" class="node">
<title>Node1</title>
<g id="a_node1"><a xlink:title="Child klasse boek, parent: Uitgave.">
<polygon fill="#bfbfbf" stroke="black" points="0,-0.5 0,-101.5 80,-101.5 80,-0.5 0,-0.5"/>
<text text-anchor="middle" x="40" y="-89.5" font-family="Helvetica,sans-Serif" font-size="10.00">Boek</text>
<polyline fill="none" stroke="black" points="0,-82.5 80,-82.5 "/>
<text text-anchor="start" x="8" y="-70.5" font-family="Helvetica,sans-Serif" font-size="10.00">&#45; auteur</text>
<text text-anchor="start" x="8" y="-59.5" font-family="Helvetica,sans-Serif" font-size="10.00">&#45; paginas</text>
<polyline fill="none" stroke="black" points="0,-52.5 80,-52.5 "/>
<text text-anchor="start" x="8" y="-40.5" font-family="Helvetica,sans-Serif" font-size="10.00">+ Boek()</text>
<text text-anchor="start" x="8" y="-29.5" font-family="Helvetica,sans-Serif" font-size="10.00">+ setAuteur()</text>
<text text-anchor="start" x="8" y="-18.5" font-family="Helvetica,sans-Serif" font-size="10.00">+ setPaginas()</text>
<text text-anchor="start" x="8" y="-7.5" font-family="Helvetica,sans-Serif" font-size="10.00">+ toString()</text>
</a>
</g>
</g>
<!-- Node2 -->
<g id="node2" class="node">
<title>Node2</title>
<g id="a_node2"><a xlink:href="classUitgave.html" target="_top" xlink:title="Parent klasse voor een Uitgave.">
<polygon fill="white" stroke="black" points="7.5,-138.5 7.5,-239.5 72.5,-239.5 72.5,-138.5 7.5,-138.5"/>
<text text-anchor="middle" x="40" y="-227.5" font-family="Helvetica,sans-Serif" font-size="10.00">Uitgave</text>
<polyline fill="none" stroke="black" points="7.5,-220.5 72.5,-220.5 "/>
<text text-anchor="start" x="15.5" y="-208.5" font-family="Helvetica,sans-Serif" font-size="10.00"># titel</text>
<text text-anchor="start" x="15.5" y="-197.5" font-family="Helvetica,sans-Serif" font-size="10.00"># prijs</text>
<polyline fill="none" stroke="black" points="7.5,-190.5 72.5,-190.5 "/>
<text text-anchor="start" x="15.5" y="-178.5" font-family="Helvetica,sans-Serif" font-size="10.00">+ Uitgave()</text>
<text text-anchor="start" x="15.5" y="-167.5" font-family="Helvetica,sans-Serif" font-size="10.00">+ setTitle()</text>
<text text-anchor="start" x="15.5" y="-156.5" font-family="Helvetica,sans-Serif" font-size="10.00">+ setPrijs()</text>
<text text-anchor="start" x="15.5" y="-145.5" font-family="Helvetica,sans-Serif" font-size="10.00">+ toString()</text>
</a>
</g>
</g>
<!-- Node2&#45;&gt;Node1 -->
<g id="edge1" class="edge">
<title>Node2&#45;&gt;Node1</title>
<path fill="none" stroke="midnightblue" d="M40,-128C40,-119.27 40,-110.36 40,-101.86"/>
<polygon fill="none" stroke="midnightblue" points="36.5,-128.13 40,-138.13 43.5,-128.13 36.5,-128.13"/>
</g>
</g>
</svg>
