<?xml version="1.0" encoding="UTF-8" standalone="no"?>
<!DOCTYPE svg PUBLIC "-//W3C//DTD SVG 1.1//EN"
 "http://www.w3.org/Graphics/SVG/1.1/DTD/svg11.dtd">
<!-- Generated by graphviz version 2.38.0 (20140413.2041)
 -->
<!-- Title: Tijdschrift Pages: 1 -->
<svg width="91pt" height="237pt"
 viewBox="0.00 0.00 91.00 237.00" xmlns="http://www.w3.org/2000/svg" xmlns:xlink="http://www.w3.org/1999/xlink">
<g id="graph0" class="graph" transform="scale(1 1) rotate(0) translate(4 233)">
<title>Tijdschrift</title>
<polygon fill="white" stroke="none" points="-4,4 -4,-233 87,-233 87,4 -4,4"/>
<!-- Node1 -->
<g id="node1" class="node"><title>Node1</title>
<polygon fill="#bfbfbf" stroke="black" points="0,-0.5 0,-90.5 83,-90.5 83,-0.5 0,-0.5"/>
<text text-anchor="middle" x="41.5" y="-78.5" font-family="Helvetica,sans-Serif" font-size="10.00">Tijdschrift</text>
<polyline fill="none" stroke="black" points="0,-71.5 83,-71.5 "/>
<text text-anchor="start" x="8" y="-59.5" font-family="Helvetica,sans-Serif" font-size="10.00">&#45; maand</text>
<text text-anchor="start" x="8" y="-48.5" font-family="Helvetica,sans-Serif" font-size="10.00">&#45; maanden</text>
<polyline fill="none" stroke="black" points="0,-41.5 83,-41.5 "/>
<text text-anchor="start" x="8" y="-29.5" font-family="Helvetica,sans-Serif" font-size="10.00">+ Tijdschrift()</text>
<text text-anchor="start" x="8" y="-18.5" font-family="Helvetica,sans-Serif" font-size="10.00">+ setMaand()</text>
<text text-anchor="start" x="8" y="-7.5" font-family="Helvetica,sans-Serif" font-size="10.00">+ toString()</text>
</g>
<!-- Node2 -->
<g id="node2" class="node"><title>Node2</title>
<g id="a_node2"><a xlink:href="classUitgave.html" target="_top" xlink:title="Parent klasse voor een Uitgave. ">
<polygon fill="white" stroke="black" points="4.5,-127.5 4.5,-228.5 78.5,-228.5 78.5,-127.5 4.5,-127.5"/>
<text text-anchor="middle" x="41.5" y="-216.5" font-family="Helvetica,sans-Serif" font-size="10.00">Uitgave</text>
<polyline fill="none" stroke="black" points="4.5,-209.5 78.5,-209.5 "/>
<text text-anchor="start" x="12.5" y="-197.5" font-family="Helvetica,sans-Serif" font-size="10.00"># titel</text>
<text text-anchor="start" x="12.5" y="-186.5" font-family="Helvetica,sans-Serif" font-size="10.00"># prijs</text>
<polyline fill="none" stroke="black" points="4.5,-179.5 78.5,-179.5 "/>
<text text-anchor="start" x="12.5" y="-167.5" font-family="Helvetica,sans-Serif" font-size="10.00">+ Uitgave()</text>
<text text-anchor="start" x="12.5" y="-156.5" font-family="Helvetica,sans-Serif" font-size="10.00">+ setTitle()</text>
<text text-anchor="start" x="12.5" y="-145.5" font-family="Helvetica,sans-Serif" font-size="10.00">+ setPrijs()</text>
<text text-anchor="start" x="12.5" y="-134.5" font-family="Helvetica,sans-Serif" font-size="10.00">+ toString()</text>
</a>
</g>
</g>
<!-- Node2&#45;&gt;Node1 -->
<g id="edge1" class="edge"><title>Node2&#45;&gt;Node1</title>
<path fill="none" stroke="midnightblue" d="M41.5,-117.232C41.5,-108.236 41.5,-99.1012 41.5,-90.5165"/>
<polygon fill="none" stroke="midnightblue" points="38.0001,-117.291 41.5,-127.291 45.0001,-117.291 38.0001,-117.291"/>
</g>
</g>
</svg>
