<?xml version="1.0" encoding="UTF-8" standalone="no"?>
<!DOCTYPE svg PUBLIC "-//W3C//DTD SVG 1.1//EN"
 "http://www.w3.org/Graphics/SVG/1.1/DTD/svg11.dtd">
<!-- Generated by graphviz version 2.38.0 (20140413.2041)
 -->
<!-- Title: BlueRay Pages: 1 -->
<svg width="97pt" height="226pt"
 viewBox="0.00 0.00 97.00 226.00" xmlns="http://www.w3.org/2000/svg" xmlns:xlink="http://www.w3.org/1999/xlink">
<g id="graph0" class="graph" transform="scale(1 1) rotate(0) translate(4 222)">
<title>BlueRay</title>
<polygon fill="white" stroke="none" points="-4,4 -4,-222 93,-222 93,4 -4,4"/>
<!-- Node1 -->
<g id="node1" class="node"><title>Node1</title>
<polygon fill="#bfbfbf" stroke="black" points="-7.10543e-15,-0.5 -7.10543e-15,-79.5 89,-79.5 89,-0.5 -7.10543e-15,-0.5"/>
<text text-anchor="middle" x="44.5" y="-67.5" font-family="Helvetica,sans-Serif" font-size="10.00">BlueRay</text>
<polyline fill="none" stroke="black" points="-7.10543e-15,-60.5 89,-60.5 "/>
<text text-anchor="start" x="8" y="-48.5" font-family="Helvetica,sans-Serif" font-size="10.00">&#45; minuten</text>
<polyline fill="none" stroke="black" points="-7.10543e-15,-41.5 89,-41.5 "/>
<text text-anchor="start" x="8" y="-29.5" font-family="Helvetica,sans-Serif" font-size="10.00">+ BlueRay()</text>
<text text-anchor="start" x="8" y="-18.5" font-family="Helvetica,sans-Serif" font-size="10.00">+ setMinuten()</text>
<text text-anchor="start" x="8" y="-7.5" font-family="Helvetica,sans-Serif" font-size="10.00">+ toString()</text>
</g>
<!-- Node2 -->
<g id="node2" class="node"><title>Node2</title>
<g id="a_node2"><a xlink:href="classUitgave.html" target="_top" xlink:title="Parent klasse voor een Uitgave. ">
<polygon fill="white" stroke="black" points="7.5,-116.5 7.5,-217.5 81.5,-217.5 81.5,-116.5 7.5,-116.5"/>
<text text-anchor="middle" x="44.5" y="-205.5" font-family="Helvetica,sans-Serif" font-size="10.00">Uitgave</text>
<polyline fill="none" stroke="black" points="7.5,-198.5 81.5,-198.5 "/>
<text text-anchor="start" x="15.5" y="-186.5" font-family="Helvetica,sans-Serif" font-size="10.00"># titel</text>
<text text-anchor="start" x="15.5" y="-175.5" font-family="Helvetica,sans-Serif" font-size="10.00"># prijs</text>
<polyline fill="none" stroke="black" points="7.5,-168.5 81.5,-168.5 "/>
<text text-anchor="start" x="15.5" y="-156.5" font-family="Helvetica,sans-Serif" font-size="10.00">+ Uitgave()</text>
<text text-anchor="start" x="15.5" y="-145.5" font-family="Helvetica,sans-Serif" font-size="10.00">+ setTitle()</text>
<text text-anchor="start" x="15.5" y="-134.5" font-family="Helvetica,sans-Serif" font-size="10.00">+ setPrijs()</text>
<text text-anchor="start" x="15.5" y="-123.5" font-family="Helvetica,sans-Serif" font-size="10.00">+ toString()</text>
</a>
</g>
</g>
<!-- Node2&#45;&gt;Node1 -->
<g id="edge1" class="edge"><title>Node2&#45;&gt;Node1</title>
<path fill="none" stroke="midnightblue" d="M44.5,-106.186C44.5,-97.2207 44.5,-88.1815 44.5,-79.8082"/>
<polygon fill="none" stroke="midnightblue" points="41.0001,-106.237 44.5,-116.238 48.0001,-106.238 41.0001,-106.237"/>
</g>
</g>
</svg>
