<?xml version="1.0" encoding="UTF-8" standalone="no"?>
<!DOCTYPE svg PUBLIC "-//W3C//DTD SVG 1.1//EN"
 "http://www.w3.org/Graphics/SVG/1.1/DTD/svg11.dtd">
<!-- Generated by graphviz version 2.38.0 (20140413.2041)
 -->
<!-- Title: Wedstrijd::toString Pages: 1 -->
<svg width="242pt" height="66pt"
 viewBox="0.00 0.00 242.00 66.00" xmlns="http://www.w3.org/2000/svg" xmlns:xlink="http://www.w3.org/1999/xlink">
<g id="graph0" class="graph" transform="scale(1 1) rotate(0) translate(4 62)">
<title>Wedstrijd::toString</title>
<polygon fill="white" stroke="none" points="-4,4 -4,-62 238,-62 238,4 -4,4"/>
<!-- Node1 -->
<g id="node1" class="node"><title>Node1</title>
<polygon fill="#bfbfbf" stroke="black" points="0,-19.5 0,-38.5 104,-38.5 104,-19.5 0,-19.5"/>
<text text-anchor="middle" x="52" y="-26.5" font-family="Helvetica,sans-Serif" font-size="10.00">Wedstrijd::toString</text>
</g>
<!-- Node2 -->
<g id="node2" class="node"><title>Node2</title>
<g id="a_node2"><a xlink:href="classDatum.html#ad1db0f79466bbb80c69b00964a6a81df" target="_top" xlink:title="Datum gerepresenteerd als een string in format dd&#45;mm&#45;jjjj. ">
<polygon fill="white" stroke="black" points="140,-38.5 140,-57.5 234,-57.5 234,-38.5 140,-38.5"/>
<text text-anchor="middle" x="187" y="-45.5" font-family="Helvetica,sans-Serif" font-size="10.00">Datum::toString</text>
</a>
</g>
</g>
<!-- Node1&#45;&gt;Node2 -->
<g id="edge1" class="edge"><title>Node1&#45;&gt;Node2</title>
<path fill="none" stroke="midnightblue" d="M104.041,-36.2916C112.374,-37.482 121.049,-38.7213 129.504,-39.9292"/>
<polygon fill="midnightblue" stroke="midnightblue" points="129.275,-43.4319 139.67,-41.3814 130.265,-36.5023 129.275,-43.4319"/>
</g>
<!-- Node3 -->
<g id="node3" class="node"><title>Node3</title>
<g id="a_node3"><a xlink:href="classTeller.html#ab5f12819a09287bc9bcdb42c7b9641e9" target="_top" xlink:title="Verkrijgt de waarde van de teller. ">
<polygon fill="white" stroke="black" points="144,-0.5 144,-19.5 230,-19.5 230,-0.5 144,-0.5"/>
<text text-anchor="middle" x="187" y="-7.5" font-family="Helvetica,sans-Serif" font-size="10.00">Teller::getTeller</text>
</a>
</g>
</g>
<!-- Node1&#45;&gt;Node3 -->
<g id="edge2" class="edge"><title>Node1&#45;&gt;Node3</title>
<path fill="none" stroke="midnightblue" d="M104.041,-21.7084C113.827,-20.3104 124.087,-18.8448 133.906,-17.442"/>
<polygon fill="midnightblue" stroke="midnightblue" points="134.536,-20.8876 143.941,-16.0085 133.546,-13.9579 134.536,-20.8876"/>
</g>
</g>
</svg>
