<?xml version="1.0" encoding="UTF-8" standalone="no"?>
<!DOCTYPE svg PUBLIC "-//W3C//DTD SVG 1.1//EN"
 "http://www.w3.org/Graphics/SVG/1.1/DTD/svg11.dtd">
<!-- Generated by graphviz version 2.38.0 (20140413.2041)
 -->
<!-- Title: Boek Pages: 1 -->
<svg width="95pt" height="248pt"
 viewBox="0.00 0.00 95.00 248.00" xmlns="http://www.w3.org/2000/svg" xmlns:xlink="http://www.w3.org/1999/xlink">
<g id="graph0" class="graph" transform="scale(1 1) rotate(0) translate(4 244)">
<title>Boek</title>
<polygon fill="white" stroke="none" points="-4,4 -4,-244 91,-244 91,4 -4,4"/>
<!-- Node1 -->
<g id="node1" class="node"><title>Node1</title>
<polygon fill="#bfbfbf" stroke="black" points="0,-0.5 0,-101.5 87,-101.5 87,-0.5 0,-0.5"/>
<text text-anchor="middle" x="43.5" y="-89.5" font-family="Helvetica,sans-Serif" font-size="10.00">Boek</text>
<polyline fill="none" stroke="black" points="0,-82.5 87,-82.5 "/>
<text text-anchor="start" x="8" y="-70.5" font-family="Helvetica,sans-Serif" font-size="10.00">&#45; auteur</text>
<text text-anchor="start" x="8" y="-59.5" font-family="Helvetica,sans-Serif" font-size="10.00">&#45; paginas</text>
<polyline fill="none" stroke="black" points="0,-52.5 87,-52.5 "/>
<text text-anchor="start" x="8" y="-40.5" font-family="Helvetica,sans-Serif" font-size="10.00">+ Boek()</text>
<text text-anchor="start" x="8" y="-29.5" font-family="Helvetica,sans-Serif" font-size="10.00">+ setAuteur()</text>
<text text-anchor="start" x="8" y="-18.5" font-family="Helvetica,sans-Serif" font-size="10.00">+ setPaginas()</text>
<text text-anchor="start" x="8" y="-7.5" font-family="Helvetica,sans-Serif" font-size="10.00">+ toString()</text>
</g>
<!-- Node2 -->
<g id="node2" class="node"><title>Node2</title>
<g id="a_node2"><a xlink:href="classUitgave.html" target="_top" xlink:title="Parent klasse voor een Uitgave. ">
<polygon fill="white" stroke="black" points="6.5,-138.5 6.5,-239.5 80.5,-239.5 80.5,-138.5 6.5,-138.5"/>
<text text-anchor="middle" x="43.5" y="-227.5" font-family="Helvetica,sans-Serif" font-size="10.00">Uitgave</text>
<polyline fill="none" stroke="black" points="6.5,-220.5 80.5,-220.5 "/>
<text text-anchor="start" x="14.5" y="-208.5" font-family="Helvetica,sans-Serif" font-size="10.00"># titel</text>
<text text-anchor="start" x="14.5" y="-197.5" font-family="Helvetica,sans-Serif" font-size="10.00"># prijs</text>
<polyline fill="none" stroke="black" points="6.5,-190.5 80.5,-190.5 "/>
<text text-anchor="start" x="14.5" y="-178.5" font-family="Helvetica,sans-Serif" font-size="10.00">+ Uitgave()</text>
<text text-anchor="start" x="14.5" y="-167.5" font-family="Helvetica,sans-Serif" font-size="10.00">+ setTitle()</text>
<text text-anchor="start" x="14.5" y="-156.5" font-family="Helvetica,sans-Serif" font-size="10.00">+ setPrijs()</text>
<text text-anchor="start" x="14.5" y="-145.5" font-family="Helvetica,sans-Serif" font-size="10.00">+ toString()</text>
</a>
</g>
</g>
<!-- Node2&#45;&gt;Node1 -->
<g id="edge1" class="edge"><title>Node2&#45;&gt;Node1</title>
<path fill="none" stroke="midnightblue" d="M43.5,-128C43.5,-119.271 43.5,-110.363 43.5,-101.863"/>
<polygon fill="none" stroke="midnightblue" points="40.0001,-128.131 43.5,-138.131 47.0001,-128.131 40.0001,-128.131"/>
</g>
</g>
</svg>
