<?xml version="1.0" encoding="UTF-8" standalone="no"?>
<!DOCTYPE svg PUBLIC "-//W3C//DTD SVG 1.1//EN"
 "http://www.w3.org/Graphics/SVG/1.1/DTD/svg11.dtd">
<!-- Generated by graphviz version 2.38.0 (20140413.2041)
 -->
<!-- Title: Tijdstip::addLeadingZero Pages: 1 -->
<svg width="349pt" height="28pt"
 viewBox="0.00 0.00 349.00 28.00" xmlns="http://www.w3.org/2000/svg" xmlns:xlink="http://www.w3.org/1999/xlink">
<g id="graph0" class="graph" transform="scale(1 1) rotate(0) translate(4 24)">
<title>Tijdstip::addLeadingZero</title>
<polygon fill="white" stroke="none" points="-4,4 -4,-24 345,-24 345,4 -4,4"/>
<!-- Node1 -->
<g id="node1" class="node"><title>Node1</title>
<polygon fill="#bfbfbf" stroke="black" points="0,-0.5 0,-19.5 134,-19.5 134,-0.5 0,-0.5"/>
<text text-anchor="middle" x="67" y="-7.5" font-family="Helvetica,sans-Serif" font-size="10.00">Tijdstip::addLeadingZero</text>
</g>
<!-- Node2 -->
<g id="node2" class="node"><title>Node2</title>
<g id="a_node2"><a xlink:href="classTijdstip.html#a30a010b20c1bb85577a57efb71b00144" target="_top" xlink:title="Tijdstip gerepresenteerd als een string in format uu:mm:ss. ">
<polygon fill="white" stroke="black" points="170,-0.5 170,-19.5 264,-19.5 264,-0.5 170,-0.5"/>
<text text-anchor="middle" x="217" y="-7.5" font-family="Helvetica,sans-Serif" font-size="10.00">Tijdstip::toString</text>
</a>
</g>
</g>
<!-- Node1&#45;&gt;Node2 -->
<g id="edge1" class="edge"><title>Node1&#45;&gt;Node2</title>
<path fill="none" stroke="midnightblue" d="M144.376,-10C153.044,-10 161.669,-10 169.774,-10"/>
<polygon fill="midnightblue" stroke="midnightblue" points="144.208,-6.5001 134.208,-10 144.208,-13.5001 144.208,-6.5001"/>
</g>
<!-- Node3 -->
<g id="node3" class="node"><title>Node3</title>
<g id="a_node3"><a xlink:href="group__HFST61.html#gae66f6b31b5ad750f1fe042a706a4e3d4" target="_top" xlink:title="Main function. ">
<polygon fill="white" stroke="black" points="300,-0.5 300,-19.5 341,-19.5 341,-0.5 300,-0.5"/>
<text text-anchor="middle" x="320.5" y="-7.5" font-family="Helvetica,sans-Serif" font-size="10.00">main</text>
</a>
</g>
</g>
<!-- Node2&#45;&gt;Node3 -->
<g id="edge2" class="edge"><title>Node2&#45;&gt;Node3</title>
<path fill="none" stroke="midnightblue" d="M274.313,-10C283.511,-10 292.461,-10 299.937,-10"/>
<polygon fill="midnightblue" stroke="midnightblue" points="274.295,-6.5001 264.295,-10 274.295,-13.5001 274.295,-6.5001"/>
</g>
</g>
</svg>
