<?xml version="1.0" encoding="UTF-8" standalone="no"?>
<!DOCTYPE svg PUBLIC "-//W3C//DTD SVG 1.1//EN"
 "http://www.w3.org/Graphics/SVG/1.1/DTD/svg11.dtd">
<!-- Generated by graphviz version 2.38.0 (20140413.2041)
 -->
<!-- Title: Voertuig::toString Pages: 1 -->
<svg width="305pt" height="47pt"
 viewBox="0.00 0.00 305.00 47.00" xmlns="http://www.w3.org/2000/svg" xmlns:xlink="http://www.w3.org/1999/xlink">
<g id="graph0" class="graph" transform="scale(1 1) rotate(0) translate(4 43)">
<title>Voertuig::toString</title>
<polygon fill="white" stroke="none" points="-4,4 -4,-43 301,-43 301,4 -4,4"/>
<!-- Node1 -->
<g id="node1" class="node"><title>Node1</title>
<polygon fill="#bfbfbf" stroke="black" points="0,-19.5 0,-38.5 101,-38.5 101,-19.5 0,-19.5"/>
<text text-anchor="middle" x="50.5" y="-26.5" font-family="Helvetica,sans-Serif" font-size="10.00">Voertuig::toString</text>
</g>
<!-- Node2 -->
<g id="node2" class="node"><title>Node2</title>
<g id="a_node2"><a xlink:href="group__HFST91.html#gae66f6b31b5ad750f1fe042a706a4e3d4" target="_top" xlink:title="Main function. ">
<polygon fill="white" stroke="black" points="256,-19.5 256,-38.5 297,-38.5 297,-19.5 256,-19.5"/>
<text text-anchor="middle" x="276.5" y="-26.5" font-family="Helvetica,sans-Serif" font-size="10.00">main</text>
</a>
</g>
</g>
<!-- Node1&#45;&gt;Node2 -->
<g id="edge1" class="edge"><title>Node1&#45;&gt;Node2</title>
<path fill="none" stroke="midnightblue" d="M111.508,-29C159.572,-29 224.052,-29 255.946,-29"/>
<polygon fill="midnightblue" stroke="midnightblue" points="111.213,-25.5001 101.213,-29 111.213,-32.5001 111.213,-25.5001"/>
</g>
<!-- Node3 -->
<g id="node3" class="node"><title>Node3</title>
<g id="a_node3"><a xlink:href="classFiets.html#a8f6e80af4d9b7fb9ae67da7aa35661f1" target="_top" xlink:title="Alle gegevens van een fiets weer gegeven als string. ">
<polygon fill="white" stroke="black" points="137,-0.5 137,-19.5 220,-19.5 220,-0.5 137,-0.5"/>
<text text-anchor="middle" x="178.5" y="-7.5" font-family="Helvetica,sans-Serif" font-size="10.00">Fiets::toString</text>
</a>
</g>
</g>
<!-- Node1&#45;&gt;Node3 -->
<g id="edge2" class="edge"><title>Node1&#45;&gt;Node3</title>
<path fill="none" stroke="midnightblue" d="M111.396,-19.968C120.062,-18.6612 128.807,-17.3426 136.972,-16.1114"/>
<polygon fill="midnightblue" stroke="midnightblue" points="110.665,-16.5387 101.299,-21.4907 111.709,-23.4604 110.665,-16.5387"/>
</g>
<!-- Node3&#45;&gt;Node2 -->
<g id="edge3" class="edge"><title>Node3&#45;&gt;Node2</title>
<path fill="none" stroke="midnightblue" d="M230.144,-20.0233C239.308,-21.837 248.344,-23.6253 255.908,-25.1225"/>
<polygon fill="midnightblue" stroke="midnightblue" points="230.702,-16.5659 220.213,-18.0577 229.343,-23.4327 230.702,-16.5659"/>
</g>
</g>
</svg>
