<?xml version="1.0" encoding="UTF-8" standalone="no"?>
<!DOCTYPE svg PUBLIC "-//W3C//DTD SVG 1.1//EN"
 "http://www.w3.org/Graphics/SVG/1.1/DTD/svg11.dtd">
<!-- Generated by graphviz version 2.38.0 (20140413.2041)
 -->
<!-- Title: Teller::setTeller Pages: 1 -->
<svg width="211pt" height="66pt"
 viewBox="0.00 0.00 211.00 66.00" xmlns="http://www.w3.org/2000/svg" xmlns:xlink="http://www.w3.org/1999/xlink">
<g id="graph0" class="graph" transform="scale(1 1) rotate(0) translate(4 62)">
<title>Teller::setTeller</title>
<polygon fill="white" stroke="none" points="-4,4 -4,-62 207,-62 207,4 -4,4"/>
<!-- Node1 -->
<g id="node1" class="node"><title>Node1</title>
<polygon fill="#bfbfbf" stroke="black" points="0,-19.5 0,-38.5 86,-38.5 86,-19.5 0,-19.5"/>
<text text-anchor="middle" x="43" y="-26.5" font-family="Helvetica,sans-Serif" font-size="10.00">Teller::setTeller</text>
</g>
<!-- Node2 -->
<g id="node2" class="node"><title>Node2</title>
<g id="a_node2"><a xlink:href="group__HFST62.html#gae66f6b31b5ad750f1fe042a706a4e3d4" target="_top" xlink:title="Main function. ">
<polygon fill="white" stroke="black" points="142,-38.5 142,-57.5 183,-57.5 183,-38.5 142,-38.5"/>
<text text-anchor="middle" x="162.5" y="-45.5" font-family="Helvetica,sans-Serif" font-size="10.00">main</text>
</a>
</g>
</g>
<!-- Node1&#45;&gt;Node2 -->
<g id="edge1" class="edge"><title>Node1&#45;&gt;Node2</title>
<path fill="none" stroke="midnightblue" d="M96.046,-37.4159C112.254,-40.0368 129.151,-42.7692 141.717,-44.8011"/>
<polygon fill="midnightblue" stroke="midnightblue" points="96.5188,-33.947 86.0883,-35.8058 95.4014,-40.8573 96.5188,-33.947"/>
</g>
<!-- Node3 -->
<g id="node3" class="node"><title>Node3</title>
<g id="a_node3"><a xlink:href="classMV.html#a5ca0b1bef820a073c244acc68b18183f" target="_top" xlink:title="Zet beide tellers op nul. ">
<polygon fill="white" stroke="black" points="122,-0.5 122,-19.5 203,-19.5 203,-0.5 122,-0.5"/>
<text text-anchor="middle" x="162.5" y="-7.5" font-family="Helvetica,sans-Serif" font-size="10.00">MV::zetOpNul</text>
</a>
</g>
</g>
<!-- Node1&#45;&gt;Node3 -->
<g id="edge2" class="edge"><title>Node1&#45;&gt;Node3</title>
<path fill="none" stroke="midnightblue" d="M96.046,-20.5841C104.643,-19.194 113.433,-17.7725 121.669,-16.4408"/>
<polygon fill="midnightblue" stroke="midnightblue" points="95.4014,-17.1427 86.0883,-22.1942 96.5188,-24.053 95.4014,-17.1427"/>
</g>
</g>
</svg>
