<?xml version="1.0" encoding="UTF-8" standalone="no"?>
<!DOCTYPE svg PUBLIC "-//W3C//DTD SVG 1.1//EN"
 "http://www.w3.org/Graphics/SVG/1.1/DTD/svg11.dtd">
<!-- Generated by graphviz version 2.44.0 ()
 -->
<!-- Title: Datum::toString Pages: 1 -->
<svg width="296pt" height="66pt"
 viewBox="0.00 0.00 296.00 66.00" xmlns="http://www.w3.org/2000/svg" xmlns:xlink="http://www.w3.org/1999/xlink">
<g id="graph0" class="graph" transform="scale(1 1) rotate(0) translate(4 62)">
<title>Datum::toString</title>
<polygon fill="white" stroke="transparent" points="-4,4 -4,-62 292,-62 292,4 -4,4"/>
<!-- Node1 -->
<g id="node1" class="node">
<title>Node1</title>
<g id="a_node1"><a xlink:title="Datum gerepresenteerd als een string in format dd&#45;mm&#45;jjjj.">
<polygon fill="#bfbfbf" stroke="black" points="205,-19.5 205,-38.5 288,-38.5 288,-19.5 205,-19.5"/>
<text text-anchor="middle" x="246.5" y="-26.5" font-family="Helvetica,sans-Serif" font-size="10.00">Datum::toString</text>
</a>
</g>
</g>
<!-- Node2 -->
<g id="node2" class="node">
<title>Node2</title>
<g id="a_node2"><a xlink:href="classStudent.html#ac7a968ef80ecd6e24ab21e198c6d9a4a" target="_top" xlink:title="Alle gegevens van de student weer gegeven als string.">
<polygon fill="white" stroke="black" points="77,-38.5 77,-57.5 166,-57.5 166,-38.5 77,-38.5"/>
<text text-anchor="middle" x="121.5" y="-45.5" font-family="Helvetica,sans-Serif" font-size="10.00">Student::toString</text>
</a>
</g>
</g>
<!-- Node1&#45;&gt;Node2 -->
<g id="edge1" class="edge">
<title>Node1&#45;&gt;Node2</title>
<path fill="none" stroke="midnightblue" d="M194.73,-36.84C185.2,-38.31 175.32,-39.84 166.03,-41.28"/>
<polygon fill="midnightblue" stroke="midnightblue" points="195.54,-40.26 204.88,-35.27 194.47,-33.34 195.54,-40.26"/>
</g>
<!-- Node3 -->
<g id="node3" class="node">
<title>Node3</title>
<g id="a_node3"><a xlink:href="classWedstrijd.html#a7947a3a0c84536131cde838fafbf3344" target="_top" xlink:title="Alle gegevens van de wedstrijd weer gegeven als string.">
<polygon fill="white" stroke="black" points="74,-0.5 74,-19.5 169,-19.5 169,-0.5 74,-0.5"/>
<text text-anchor="middle" x="121.5" y="-7.5" font-family="Helvetica,sans-Serif" font-size="10.00">Wedstrijd::toString</text>
</a>
</g>
</g>
<!-- Node1&#45;&gt;Node3 -->
<g id="edge2" class="edge">
<title>Node1&#45;&gt;Node3</title>
<path fill="none" stroke="midnightblue" d="M194.98,-21.2C186.4,-19.87 177.51,-18.5 169.04,-17.19"/>
<polygon fill="midnightblue" stroke="midnightblue" points="194.47,-24.66 204.88,-22.73 195.54,-17.74 194.47,-24.66"/>
</g>
<!-- Node4 -->
<g id="node4" class="node">
<title>Node4</title>
<g id="a_node4"><a xlink:href="group__HFST71.html#gae66f6b31b5ad750f1fe042a706a4e3d4" target="_top" xlink:title="Main function.">
<polygon fill="white" stroke="black" points="0,-0.5 0,-19.5 38,-19.5 38,-0.5 0,-0.5"/>
<text text-anchor="middle" x="19" y="-7.5" font-family="Helvetica,sans-Serif" font-size="10.00">main</text>
</a>
</g>
</g>
<!-- Node3&#45;&gt;Node4 -->
<g id="edge3" class="edge">
<title>Node3&#45;&gt;Node4</title>
<path fill="none" stroke="midnightblue" d="M63.65,-10C54.36,-10 45.39,-10 38.01,-10"/>
<polygon fill="midnightblue" stroke="midnightblue" points="63.78,-13.5 73.78,-10 63.78,-6.5 63.78,-13.5"/>
</g>
</g>
</svg>
