<?xml version="1.0" encoding="UTF-8" standalone="no"?>
<!DOCTYPE svg PUBLIC "-//W3C//DTD SVG 1.1//EN"
 "http://www.w3.org/Graphics/SVG/1.1/DTD/svg11.dtd">
<!-- Generated by graphviz version 2.44.0 ()
 -->
<!-- Title: Teller::getTeller Pages: 1 -->
<svg width="296pt" height="85pt"
 viewBox="0.00 0.00 296.00 85.00" xmlns="http://www.w3.org/2000/svg" xmlns:xlink="http://www.w3.org/1999/xlink">
<g id="graph0" class="graph" transform="scale(1 1) rotate(0) translate(4 81)">
<title>Teller::getTeller</title>
<polygon fill="white" stroke="transparent" points="-4,4 -4,-81 292,-81 292,4 -4,4"/>
<!-- Node1 -->
<g id="node1" class="node">
<title>Node1</title>
<g id="a_node1"><a xlink:title="Verkrijgt de waarde van de teller.">
<polygon fill="#bfbfbf" stroke="black" points="205,-38.5 205,-57.5 288,-57.5 288,-38.5 205,-38.5"/>
<text text-anchor="middle" x="246.5" y="-45.5" font-family="Helvetica,sans-Serif" font-size="10.00">Teller::getTeller</text>
</a>
</g>
</g>
<!-- Node2 -->
<g id="node2" class="node">
<title>Node2</title>
<g id="a_node2"><a xlink:href="group__HFST62.html#gae66f6b31b5ad750f1fe042a706a4e3d4" target="_top" xlink:title="Main function.">
<polygon fill="white" stroke="black" points="0,-57.5 0,-76.5 38,-76.5 38,-57.5 0,-57.5"/>
<text text-anchor="middle" x="19" y="-64.5" font-family="Helvetica,sans-Serif" font-size="10.00">main</text>
</a>
</g>
</g>
<!-- Node1&#45;&gt;Node2 -->
<g id="edge1" class="edge">
<title>Node1&#45;&gt;Node2</title>
<path fill="none" stroke="midnightblue" d="M204.8,-60.06C193.33,-62.92 180.77,-65.56 169,-67 122.27,-72.72 66.67,-70.3 38.44,-68.43"/>
<polygon fill="midnightblue" stroke="midnightblue" points="205.77,-63.42 214.56,-57.51 204,-56.65 205.77,-63.42"/>
</g>
<!-- Node3 -->
<g id="node3" class="node">
<title>Node3</title>
<g id="a_node3"><a xlink:href="classMV.html#a50f872cc3aa7f47440910cce5ebaa84f" target="_top" xlink:title="Weergave van beide tellers.">
<polygon fill="white" stroke="black" points="86.5,-38.5 86.5,-57.5 156.5,-57.5 156.5,-38.5 86.5,-38.5"/>
<text text-anchor="middle" x="121.5" y="-45.5" font-family="Helvetica,sans-Serif" font-size="10.00">MV::toString</text>
</a>
</g>
</g>
<!-- Node1&#45;&gt;Node3 -->
<g id="edge2" class="edge">
<title>Node1&#45;&gt;Node3</title>
<path fill="none" stroke="midnightblue" d="M194.83,-48C182.06,-48 168.66,-48 156.9,-48"/>
<polygon fill="midnightblue" stroke="midnightblue" points="194.88,-51.5 204.88,-48 194.88,-44.5 194.88,-51.5"/>
</g>
<!-- Node4 -->
<g id="node4" class="node">
<title>Node4</title>
<g id="a_node4"><a xlink:href="classWedstrijd.html#a7947a3a0c84536131cde838fafbf3344" target="_top" xlink:title="Alle gegevens van de wedstrijd weer gegeven als string.">
<polygon fill="white" stroke="black" points="74,-0.5 74,-19.5 169,-19.5 169,-0.5 74,-0.5"/>
<text text-anchor="middle" x="121.5" y="-7.5" font-family="Helvetica,sans-Serif" font-size="10.00">Wedstrijd::toString</text>
</a>
</g>
</g>
<!-- Node1&#45;&gt;Node4 -->
<g id="edge4" class="edge">
<title>Node1&#45;&gt;Node4</title>
<path fill="none" stroke="midnightblue" d="M204.46,-35.32C187.84,-30.19 168.97,-24.36 153.53,-19.59"/>
<polygon fill="midnightblue" stroke="midnightblue" points="203.87,-38.8 214.46,-38.41 205.94,-32.12 203.87,-38.8"/>
</g>
<!-- Node3&#45;&gt;Node2 -->
<g id="edge3" class="edge">
<title>Node3&#45;&gt;Node2</title>
<path fill="none" stroke="midnightblue" d="M76.37,-56.34C62.93,-58.88 48.89,-61.54 38.19,-63.56"/>
<polygon fill="midnightblue" stroke="midnightblue" points="77.3,-59.73 86.48,-54.43 76,-52.85 77.3,-59.73"/>
</g>
<!-- Node5 -->
<g id="node5" class="node">
<title>Node5</title>
<g id="a_node5"><a xlink:href="group__HFST71.html#gae66f6b31b5ad750f1fe042a706a4e3d4" target="_top" xlink:title="Main function.">
<polygon fill="white" stroke="black" points="0,-0.5 0,-19.5 38,-19.5 38,-0.5 0,-0.5"/>
<text text-anchor="middle" x="19" y="-7.5" font-family="Helvetica,sans-Serif" font-size="10.00">main</text>
</a>
</g>
</g>
<!-- Node4&#45;&gt;Node5 -->
<g id="edge5" class="edge">
<title>Node4&#45;&gt;Node5</title>
<path fill="none" stroke="midnightblue" d="M63.65,-10C54.36,-10 45.39,-10 38.01,-10"/>
<polygon fill="midnightblue" stroke="midnightblue" points="63.78,-13.5 73.78,-10 63.78,-6.5 63.78,-13.5"/>
</g>
</g>
</svg>
