<?xml version="1.0" encoding="UTF-8" standalone="no"?>
<!DOCTYPE svg PUBLIC "-//W3C//DTD SVG 1.1//EN"
 "http://www.w3.org/Graphics/SVG/1.1/DTD/svg11.dtd">
<!-- Generated by graphviz version 2.44.0 ()
 -->
<!-- Title: Datum1::toString Pages: 1 -->
<svg width="239pt" height="78pt"
 viewBox="0.00 0.00 239.00 77.50" xmlns="http://www.w3.org/2000/svg" xmlns:xlink="http://www.w3.org/1999/xlink">
<g id="graph0" class="graph" transform="scale(1 1) rotate(0) translate(4 73.5)">
<title>Datum1::toString</title>
<polygon fill="white" stroke="transparent" points="-4,4 -4,-73.5 235,-73.5 235,4 -4,4"/>
<!-- Node1 -->
<g id="node1" class="node">
<title>Node1</title>
<g id="a_node1"><a xlink:title="Datum gerepresenteerd als een string in format dd&#45;mm&#45;jjjj.">
<polygon fill="#bfbfbf" stroke="black" points="142,-28 142,-47 231,-47 231,-28 142,-28"/>
<text text-anchor="middle" x="186.5" y="-35" font-family="Helvetica,sans-Serif" font-size="10.00">Datum1::toString</text>
</a>
</g>
</g>
<!-- Node2 -->
<g id="node2" class="node">
<title>Node2</title>
<g id="a_node2"><a xlink:href="classStudent1.html#a8000f6257a4c3cb215ff659c01415766" target="_top" xlink:title="Alle gegevens van de student weer gegeven als string.">
<polygon fill="white" stroke="black" points="6,-50 6,-69 100,-69 100,-50 6,-50"/>
<text text-anchor="middle" x="53" y="-57" font-family="Helvetica,sans-Serif" font-size="10.00">Student1::toString</text>
</a>
</g>
</g>
<!-- Node1&#45;&gt;Node2 -->
<g id="edge1" class="edge">
<title>Node1&#45;&gt;Node2</title>
<path fill="none" stroke="midnightblue" d="M131.85,-46.48C121.39,-48.23 110.5,-50.05 100.3,-51.75"/>
<polygon fill="midnightblue" stroke="midnightblue" points="132.43,-49.93 141.71,-44.83 131.27,-43.02 132.43,-49.93"/>
</g>
<!-- Node3 -->
<g id="node3" class="node">
<title>Node3</title>
<g id="a_node3"><a xlink:href="classTentamenResultaat.html#ae57de76395e60af1237ddbd5aea6ba32" target="_top" xlink:title="Alle gegevens van het tentamen resultaat weer gegeven als string.">
<polygon fill="white" stroke="black" points="0,-0.5 0,-30.5 106,-30.5 106,-0.5 0,-0.5"/>
<text text-anchor="start" x="8" y="-18.5" font-family="Helvetica,sans-Serif" font-size="10.00">TentamenResultaat::</text>
<text text-anchor="middle" x="53" y="-7.5" font-family="Helvetica,sans-Serif" font-size="10.00">toString</text>
</a>
</g>
</g>
<!-- Node1&#45;&gt;Node3 -->
<g id="edge2" class="edge">
<title>Node1&#45;&gt;Node3</title>
<path fill="none" stroke="midnightblue" d="M131.65,-28.49C123.27,-27.09 114.62,-25.64 106.27,-24.24"/>
<polygon fill="midnightblue" stroke="midnightblue" points="131.27,-31.98 141.71,-30.17 132.43,-25.07 131.27,-31.98"/>
</g>
</g>
</svg>
