<?xml version="1.0" encoding="UTF-8" standalone="no"?>
<!DOCTYPE svg PUBLIC "-//W3C//DTD SVG 1.1//EN"
 "http://www.w3.org/Graphics/SVG/1.1/DTD/svg11.dtd">
<!-- Generated by graphviz version 2.38.0 (20140413.2041)
 -->
<!-- Title: Datum1::changeDatum Pages: 1 -->
<svg width="334pt" height="78pt"
 viewBox="0.00 0.00 334.00 77.50" xmlns="http://www.w3.org/2000/svg" xmlns:xlink="http://www.w3.org/1999/xlink">
<g id="graph0" class="graph" transform="scale(1 1) rotate(0) translate(4 73.5)">
<title>Datum1::changeDatum</title>
<polygon fill="white" stroke="none" points="-4,4 -4,-73.5 330,-73.5 330,4 -4,4"/>
<!-- Node1 -->
<g id="node1" class="node"><title>Node1</title>
<polygon fill="#bfbfbf" stroke="black" points="0,-28 0,-47 130,-47 130,-28 0,-28"/>
<text text-anchor="middle" x="65" y="-35" font-family="Helvetica,sans-Serif" font-size="10.00">Datum1::changeDatum</text>
</g>
<!-- Node2 -->
<g id="node2" class="node"><title>Node2</title>
<g id="a_node2"><a xlink:href="classStudent1.html#a55ea5c1a1a7eb6d9d3d4e2a0e21789fb" target="_top" xlink:title="Set geboorte datum van de student. ">
<polygon fill="white" stroke="black" points="166,-50 166,-69 326,-69 326,-50 166,-50"/>
<text text-anchor="middle" x="246" y="-57" font-family="Helvetica,sans-Serif" font-size="10.00">Student1::setGeboorteDatum</text>
</a>
</g>
</g>
<!-- Node1&#45;&gt;Node2 -->
<g id="edge1" class="edge"><title>Node1&#45;&gt;Node2</title>
<path fill="none" stroke="midnightblue" d="M140.207,-46.6204C149.241,-47.7308 158.49,-48.8675 167.571,-49.9836"/>
<polygon fill="midnightblue" stroke="midnightblue" points="140.47,-43.1265 130.118,-45.3804 139.616,-50.0742 140.47,-43.1265"/>
</g>
<!-- Node3 -->
<g id="node3" class="node"><title>Node3</title>
<g id="a_node3"><a xlink:href="classTentamenResultaat.html#abb86c650be5b867f277bd3ad17415b41" target="_top" xlink:title="Set het tentamenresulataat. ">
<polygon fill="white" stroke="black" points="184.5,-0.5 184.5,-30.5 307.5,-30.5 307.5,-0.5 184.5,-0.5"/>
<text text-anchor="start" x="192.5" y="-18.5" font-family="Helvetica,sans-Serif" font-size="10.00">TentamenResultaat::</text>
<text text-anchor="middle" x="246" y="-7.5" font-family="Helvetica,sans-Serif" font-size="10.00">setTentamenResultaat</text>
</a>
</g>
</g>
<!-- Node1&#45;&gt;Node3 -->
<g id="edge2" class="edge"><title>Node1&#45;&gt;Node3</title>
<path fill="none" stroke="midnightblue" d="M140.18,-28.3829C154.875,-26.5768 170.138,-24.7009 184.321,-22.9578"/>
<polygon fill="midnightblue" stroke="midnightblue" points="139.616,-24.9258 130.118,-29.6196 140.47,-31.8735 139.616,-24.9258"/>
</g>
</g>
</svg>
