<?xml version="1.0" encoding="UTF-8" standalone="no"?>
<!DOCTYPE svg PUBLIC "-//W3C//DTD SVG 1.1//EN"
 "http://www.w3.org/Graphics/SVG/1.1/DTD/svg11.dtd">
<!-- Generated by graphviz version 2.38.0 (20140413.2041)
 -->
<!-- Title: Teller::getTeller Pages: 1 -->
<svg width="311pt" height="85pt"
 viewBox="0.00 0.00 311.00 85.00" xmlns="http://www.w3.org/2000/svg" xmlns:xlink="http://www.w3.org/1999/xlink">
<g id="graph0" class="graph" transform="scale(1 1) rotate(0) translate(4 81)">
<title>Teller::getTeller</title>
<polygon fill="white" stroke="none" points="-4,4 -4,-81 307,-81 307,4 -4,4"/>
<!-- Node1 -->
<g id="node1" class="node"><title>Node1</title>
<polygon fill="#bfbfbf" stroke="black" points="0,-38.5 0,-57.5 86,-57.5 86,-38.5 0,-38.5"/>
<text text-anchor="middle" x="43" y="-45.5" font-family="Helvetica,sans-Serif" font-size="10.00">Teller::getTeller</text>
</g>
<!-- Node2 -->
<g id="node2" class="node"><title>Node2</title>
<g id="a_node2"><a xlink:href="group__HFST62.html#gae66f6b31b5ad750f1fe042a706a4e3d4" target="_top" xlink:title="Main function. ">
<polygon fill="white" stroke="black" points="262,-57.5 262,-76.5 303,-76.5 303,-57.5 262,-57.5"/>
<text text-anchor="middle" x="282.5" y="-64.5" font-family="Helvetica,sans-Serif" font-size="10.00">main</text>
</a>
</g>
</g>
<!-- Node1&#45;&gt;Node2 -->
<g id="edge1" class="edge"><title>Node1&#45;&gt;Node2</title>
<path fill="none" stroke="midnightblue" d="M85.5089,-60.0561C97.2067,-62.9204 110.013,-65.561 122,-67 172.038,-73.0066 231.545,-70.4726 261.766,-68.5057"/>
<polygon fill="midnightblue" stroke="midnightblue" points="86.1185,-56.5993 75.5626,-57.506 84.38,-63.3799 86.1185,-56.5993"/>
</g>
<!-- Node3 -->
<g id="node3" class="node"><title>Node3</title>
<g id="a_node3"><a xlink:href="classMV.html#a50f872cc3aa7f47440910cce5ebaa84f" target="_top" xlink:title="Weergave van beide tellers. ">
<polygon fill="white" stroke="black" points="136.5,-38.5 136.5,-57.5 211.5,-57.5 211.5,-38.5 136.5,-38.5"/>
<text text-anchor="middle" x="174" y="-45.5" font-family="Helvetica,sans-Serif" font-size="10.00">MV::toString</text>
</a>
</g>
</g>
<!-- Node1&#45;&gt;Node3 -->
<g id="edge2" class="edge"><title>Node1&#45;&gt;Node3</title>
<path fill="none" stroke="midnightblue" d="M96.3132,-48C109.725,-48 123.867,-48 136.303,-48"/>
<polygon fill="midnightblue" stroke="midnightblue" points="96.2395,-44.5001 86.2394,-48 96.2394,-51.5001 96.2395,-44.5001"/>
</g>
<!-- Node4 -->
<g id="node4" class="node"><title>Node4</title>
<g id="a_node4"><a xlink:href="classWedstrijd.html#ae4dde403b3e23492f813f2e54972327d" target="_top" xlink:title="Alle gegevens van de wedstrijd weer gegeven als string. ">
<polygon fill="white" stroke="black" points="122,-0.5 122,-19.5 226,-19.5 226,-0.5 122,-0.5"/>
<text text-anchor="middle" x="174" y="-7.5" font-family="Helvetica,sans-Serif" font-size="10.00">Wedstrijd::toString</text>
</a>
</g>
</g>
<!-- Node1&#45;&gt;Node4 -->
<g id="edge4" class="edge"><title>Node1&#45;&gt;Node4</title>
<path fill="none" stroke="midnightblue" d="M86.554,-35.4647C104.103,-30.2952 124.113,-24.4009 140.458,-19.5859"/>
<polygon fill="midnightblue" stroke="midnightblue" points="85.1556,-32.2279 76.5521,-38.411 87.1336,-38.9426 85.1556,-32.2279"/>
</g>
<!-- Node3&#45;&gt;Node2 -->
<g id="edge3" class="edge"><title>Node3&#45;&gt;Node2</title>
<path fill="none" stroke="midnightblue" d="M221.747,-56.3398C235.841,-58.8542 250.551,-61.4787 261.85,-63.4944"/>
<polygon fill="midnightblue" stroke="midnightblue" points="222.111,-52.8495 211.651,-54.5387 220.881,-59.7407 222.111,-52.8495"/>
</g>
<!-- Node5 -->
<g id="node5" class="node"><title>Node5</title>
<g id="a_node5"><a xlink:href="group__HFST71.html#gae66f6b31b5ad750f1fe042a706a4e3d4" target="_top" xlink:title="Main function. ">
<polygon fill="white" stroke="black" points="262,-0.5 262,-19.5 303,-19.5 303,-0.5 262,-0.5"/>
<text text-anchor="middle" x="282.5" y="-7.5" font-family="Helvetica,sans-Serif" font-size="10.00">main</text>
</a>
</g>
</g>
<!-- Node4&#45;&gt;Node5 -->
<g id="edge5" class="edge"><title>Node4&#45;&gt;Node5</title>
<path fill="none" stroke="midnightblue" d="M236.172,-10C245.417,-10 254.336,-10 261.781,-10"/>
<polygon fill="midnightblue" stroke="midnightblue" points="236.066,-6.5001 226.066,-10 236.066,-13.5001 236.066,-6.5001"/>
</g>
</g>
</svg>
