<?xml version="1.0" encoding="UTF-8" standalone="no"?>
<!DOCTYPE svg PUBLIC "-//W3C//DTD SVG 1.1//EN"
 "http://www.w3.org/Graphics/SVG/1.1/DTD/svg11.dtd">
<!-- Generated by graphviz version 2.38.0 (20140413.2041)
 -->
<!-- Title: Boek::Boek Pages: 1 -->
<svg width="213pt" height="66pt"
 viewBox="0.00 0.00 213.00 66.00" xmlns="http://www.w3.org/2000/svg" xmlns:xlink="http://www.w3.org/1999/xlink">
<g id="graph0" class="graph" transform="scale(1 1) rotate(0) translate(4 62)">
<title>Boek::Boek</title>
<polygon fill="white" stroke="none" points="-4,4 -4,-62 209,-62 209,4 -4,4"/>
<!-- Node1 -->
<g id="node1" class="node"><title>Node1</title>
<polygon fill="#bfbfbf" stroke="black" points="0,-19.5 0,-38.5 71,-38.5 71,-19.5 0,-19.5"/>
<text text-anchor="middle" x="35.5" y="-26.5" font-family="Helvetica,sans-Serif" font-size="10.00">Boek::Boek</text>
</g>
<!-- Node2 -->
<g id="node2" class="node"><title>Node2</title>
<g id="a_node2"><a xlink:href="classBoek.html#a65ba8132ba099716bb5e7b952933ca08" target="_top" xlink:title="Set de naam van de auteur van het boek. ">
<polygon fill="white" stroke="black" points="109,-38.5 109,-57.5 203,-57.5 203,-38.5 109,-38.5"/>
<text text-anchor="middle" x="156" y="-45.5" font-family="Helvetica,sans-Serif" font-size="10.00">Boek::setAuteur</text>
</a>
</g>
</g>
<!-- Node1&#45;&gt;Node2 -->
<g id="edge1" class="edge"><title>Node1&#45;&gt;Node2</title>
<path fill="none" stroke="midnightblue" d="M71.0937,-34.5467C79.7226,-35.9302 89.2007,-37.4499 98.5839,-38.9544"/>
<polygon fill="midnightblue" stroke="midnightblue" points="98.2556,-42.4464 108.684,-40.5737 99.3639,-35.5347 98.2556,-42.4464"/>
</g>
<!-- Node3 -->
<g id="node3" class="node"><title>Node3</title>
<g id="a_node3"><a xlink:href="classBoek.html#ae8b2985f6e7f207d4722591e3325bb51" target="_top" xlink:title="Set het aantal pagina&#39;s van het boek. ">
<polygon fill="white" stroke="black" points="107,-0.5 107,-19.5 205,-19.5 205,-0.5 107,-0.5"/>
<text text-anchor="middle" x="156" y="-7.5" font-family="Helvetica,sans-Serif" font-size="10.00">Boek::setPaginas</text>
</a>
</g>
</g>
<!-- Node1&#45;&gt;Node3 -->
<g id="edge2" class="edge"><title>Node1&#45;&gt;Node3</title>
<path fill="none" stroke="midnightblue" d="M71.0937,-23.4533C79.2337,-22.1482 88.1295,-20.7219 96.9883,-19.3014"/>
<polygon fill="midnightblue" stroke="midnightblue" points="97.6126,-22.7462 106.932,-17.7071 96.5043,-15.8344 97.6126,-22.7462"/>
</g>
</g>
</svg>
