<?xml version="1.0" encoding="UTF-8" standalone="no"?>
<!DOCTYPE svg PUBLIC "-//W3C//DTD SVG 1.1//EN"
 "http://www.w3.org/Graphics/SVG/1.1/DTD/svg11.dtd">
<!-- Generated by graphviz version 2.38.0 (20140413.2041)
 -->
<!-- Title: Uitgave Pages: 1 -->
<svg width="303pt" height="248pt"
 viewBox="0.00 0.00 303.00 248.00" xmlns="http://www.w3.org/2000/svg" xmlns:xlink="http://www.w3.org/1999/xlink">
<g id="graph0" class="graph" transform="scale(1 1) rotate(0) translate(4 244)">
<title>Uitgave</title>
<polygon fill="white" stroke="none" points="-4,4 -4,-244 299,-244 299,4 -4,4"/>
<!-- Node1 -->
<g id="node1" class="node"><title>Node1</title>
<polygon fill="#bfbfbf" stroke="black" points="113.5,-138.5 113.5,-239.5 187.5,-239.5 187.5,-138.5 113.5,-138.5"/>
<text text-anchor="middle" x="150.5" y="-227.5" font-family="Helvetica,sans-Serif" font-size="10.00">Uitgave</text>
<polyline fill="none" stroke="black" points="113.5,-220.5 187.5,-220.5 "/>
<text text-anchor="start" x="121.5" y="-208.5" font-family="Helvetica,sans-Serif" font-size="10.00"># titel</text>
<text text-anchor="start" x="121.5" y="-197.5" font-family="Helvetica,sans-Serif" font-size="10.00"># prijs</text>
<polyline fill="none" stroke="black" points="113.5,-190.5 187.5,-190.5 "/>
<text text-anchor="start" x="121.5" y="-178.5" font-family="Helvetica,sans-Serif" font-size="10.00">+ Uitgave()</text>
<text text-anchor="start" x="121.5" y="-167.5" font-family="Helvetica,sans-Serif" font-size="10.00">+ setTitle()</text>
<text text-anchor="start" x="121.5" y="-156.5" font-family="Helvetica,sans-Serif" font-size="10.00">+ setPrijs()</text>
<text text-anchor="start" x="121.5" y="-145.5" font-family="Helvetica,sans-Serif" font-size="10.00">+ toString()</text>
</g>
<!-- Node2 -->
<g id="node2" class="node"><title>Node2</title>
<g id="a_node2"><a xlink:href="classBlueRay.html" target="_top" xlink:title="Child klasse blueRay, parent: Uitgave. ">
<polygon fill="white" stroke="black" points="0,-11.5 0,-90.5 89,-90.5 89,-11.5 0,-11.5"/>
<text text-anchor="middle" x="44.5" y="-78.5" font-family="Helvetica,sans-Serif" font-size="10.00">BlueRay</text>
<polyline fill="none" stroke="black" points="0,-71.5 89,-71.5 "/>
<text text-anchor="start" x="8" y="-59.5" font-family="Helvetica,sans-Serif" font-size="10.00">&#45; minuten</text>
<polyline fill="none" stroke="black" points="0,-52.5 89,-52.5 "/>
<text text-anchor="start" x="8" y="-40.5" font-family="Helvetica,sans-Serif" font-size="10.00">+ BlueRay()</text>
<text text-anchor="start" x="8" y="-29.5" font-family="Helvetica,sans-Serif" font-size="10.00">+ setMinuten()</text>
<text text-anchor="start" x="8" y="-18.5" font-family="Helvetica,sans-Serif" font-size="10.00">+ toString()</text>
</a>
</g>
</g>
<!-- Node1&#45;&gt;Node2 -->
<g id="edge1" class="edge"><title>Node1&#45;&gt;Node2</title>
<path fill="none" stroke="midnightblue" d="M107.103,-132.321C96.2304,-118.371 84.7996,-103.705 74.7246,-90.7788"/>
<polygon fill="none" stroke="midnightblue" points="104.518,-134.698 113.426,-140.434 110.039,-130.395 104.518,-134.698"/>
</g>
<!-- Node3 -->
<g id="node3" class="node"><title>Node3</title>
<g id="a_node3"><a xlink:href="classBoek.html" target="_top" xlink:title="Child klasse boek, parent: Uitgave. ">
<polygon fill="white" stroke="black" points="107,-0.5 107,-101.5 194,-101.5 194,-0.5 107,-0.5"/>
<text text-anchor="middle" x="150.5" y="-89.5" font-family="Helvetica,sans-Serif" font-size="10.00">Boek</text>
<polyline fill="none" stroke="black" points="107,-82.5 194,-82.5 "/>
<text text-anchor="start" x="115" y="-70.5" font-family="Helvetica,sans-Serif" font-size="10.00">&#45; auteur</text>
<text text-anchor="start" x="115" y="-59.5" font-family="Helvetica,sans-Serif" font-size="10.00">&#45; paginas</text>
<polyline fill="none" stroke="black" points="107,-52.5 194,-52.5 "/>
<text text-anchor="start" x="115" y="-40.5" font-family="Helvetica,sans-Serif" font-size="10.00">+ Boek()</text>
<text text-anchor="start" x="115" y="-29.5" font-family="Helvetica,sans-Serif" font-size="10.00">+ setAuteur()</text>
<text text-anchor="start" x="115" y="-18.5" font-family="Helvetica,sans-Serif" font-size="10.00">+ setPaginas()</text>
<text text-anchor="start" x="115" y="-7.5" font-family="Helvetica,sans-Serif" font-size="10.00">+ toString()</text>
</a>
</g>
</g>
<!-- Node1&#45;&gt;Node3 -->
<g id="edge2" class="edge"><title>Node1&#45;&gt;Node3</title>
<path fill="none" stroke="midnightblue" d="M150.5,-128C150.5,-119.271 150.5,-110.363 150.5,-101.863"/>
<polygon fill="none" stroke="midnightblue" points="147,-128.131 150.5,-138.131 154,-128.131 147,-128.131"/>
</g>
<!-- Node4 -->
<g id="node4" class="node"><title>Node4</title>
<g id="a_node4"><a xlink:href="classTijdschrift.html" target="_top" xlink:title="Child klasse Tijdschrift, parent: Uitgave. ">
<polygon fill="white" stroke="black" points="212,-6 212,-96 295,-96 295,-6 212,-6"/>
<text text-anchor="middle" x="253.5" y="-84" font-family="Helvetica,sans-Serif" font-size="10.00">Tijdschrift</text>
<polyline fill="none" stroke="black" points="212,-77 295,-77 "/>
<text text-anchor="start" x="220" y="-65" font-family="Helvetica,sans-Serif" font-size="10.00">&#45; maand</text>
<text text-anchor="start" x="220" y="-54" font-family="Helvetica,sans-Serif" font-size="10.00">&#45; maanden</text>
<polyline fill="none" stroke="black" points="212,-47 295,-47 "/>
<text text-anchor="start" x="220" y="-35" font-family="Helvetica,sans-Serif" font-size="10.00">+ Tijdschrift()</text>
<text text-anchor="start" x="220" y="-24" font-family="Helvetica,sans-Serif" font-size="10.00">+ setMaand()</text>
<text text-anchor="start" x="220" y="-13" font-family="Helvetica,sans-Serif" font-size="10.00">+ toString()</text>
</a>
</g>
</g>
<!-- Node1&#45;&gt;Node4 -->
<g id="edge3" class="edge"><title>Node1&#45;&gt;Node4</title>
<path fill="none" stroke="midnightblue" d="M193.729,-130.921C202.554,-119.268 211.713,-107.176 220.13,-96.0614"/>
<polygon fill="none" stroke="midnightblue" points="190.933,-128.816 187.685,-138.901 196.513,-133.042 190.933,-128.816"/>
</g>
</g>
</svg>
