<?xml version="1.0" encoding="UTF-8" standalone="no"?>
<!DOCTYPE svg PUBLIC "-//W3C//DTD SVG 1.1//EN"
 "http://www.w3.org/Graphics/SVG/1.1/DTD/svg11.dtd">
<!-- Generated by graphviz version 2.44.0 ()
 -->
<!-- Title: Voertuig::toString Pages: 1 -->
<svg width="286pt" height="47pt"
 viewBox="0.00 0.00 286.00 47.00" xmlns="http://www.w3.org/2000/svg" xmlns:xlink="http://www.w3.org/1999/xlink">
<g id="graph0" class="graph" transform="scale(1 1) rotate(0) translate(4 43)">
<title>Voertuig::toString</title>
<polygon fill="white" stroke="transparent" points="-4,4 -4,-43 282,-43 282,4 -4,4"/>
<!-- Node1 -->
<g id="node1" class="node">
<title>Node1</title>
<g id="a_node1"><a xlink:title="Alle gegevens van een voertuig weer gegeven als string.">
<polygon fill="#bfbfbf" stroke="black" points="187,-19.5 187,-38.5 278,-38.5 278,-19.5 187,-19.5"/>
<text text-anchor="middle" x="232.5" y="-26.5" font-family="Helvetica,sans-Serif" font-size="10.00">Voertuig::toString</text>
</a>
</g>
</g>
<!-- Node2 -->
<g id="node2" class="node">
<title>Node2</title>
<g id="a_node2"><a xlink:href="group__HFST91.html#gae66f6b31b5ad750f1fe042a706a4e3d4" target="_top" xlink:title="Main function.">
<polygon fill="white" stroke="black" points="0,-19.5 0,-38.5 38,-38.5 38,-19.5 0,-19.5"/>
<text text-anchor="middle" x="19" y="-26.5" font-family="Helvetica,sans-Serif" font-size="10.00">main</text>
</a>
</g>
</g>
<!-- Node1&#45;&gt;Node2 -->
<g id="edge1" class="edge">
<title>Node1&#45;&gt;Node2</title>
<path fill="none" stroke="midnightblue" d="M176.83,-29C131.09,-29 68.55,-29 38.12,-29"/>
<polygon fill="midnightblue" stroke="midnightblue" points="176.9,-32.5 186.9,-29 176.9,-25.5 176.9,-32.5"/>
</g>
<!-- Node3 -->
<g id="node3" class="node">
<title>Node3</title>
<g id="a_node3"><a xlink:href="classFiets.html#a266a16ff6236e46e22377e17cbed6881" target="_top" xlink:title="Alle gegevens van een fiets weer gegeven als string.">
<polygon fill="white" stroke="black" points="74,-0.5 74,-19.5 151,-19.5 151,-0.5 74,-0.5"/>
<text text-anchor="middle" x="112.5" y="-7.5" font-family="Helvetica,sans-Serif" font-size="10.00">Fiets::toString</text>
</a>
</g>
</g>
<!-- Node1&#45;&gt;Node3 -->
<g id="edge2" class="edge">
<title>Node1&#45;&gt;Node3</title>
<path fill="none" stroke="midnightblue" d="M176.83,-20.2C168.17,-18.8 159.39,-17.39 151.24,-16.08"/>
<polygon fill="midnightblue" stroke="midnightblue" points="176.46,-23.68 186.89,-21.82 177.57,-16.77 176.46,-23.68"/>
</g>
<!-- Node3&#45;&gt;Node2 -->
<g id="edge3" class="edge">
<title>Node3&#45;&gt;Node2</title>
<path fill="none" stroke="midnightblue" d="M63.93,-19.88C54.84,-21.76 45.86,-23.63 38.4,-25.18"/>
<polygon fill="midnightblue" stroke="midnightblue" points="64.68,-23.3 73.76,-17.84 63.25,-16.44 64.68,-23.3"/>
</g>
</g>
</svg>
