<?xml version="1.0" encoding="UTF-8" standalone="no"?>
<!DOCTYPE svg PUBLIC "-//W3C//DTD SVG 1.1//EN"
 "http://www.w3.org/Graphics/SVG/1.1/DTD/svg11.dtd">
<!-- Generated by graphviz version 2.44.0 ()
 -->
<!-- Title: Hoofdstuk 6 Pages: 1 -->
<svg width="296pt" height="64pt"
 viewBox="0.00 0.00 296.00 64.00" xmlns="http://www.w3.org/2000/svg" xmlns:xlink="http://www.w3.org/1999/xlink">
<g id="graph0" class="graph" transform="scale(1 1) rotate(0) translate(4 60)">
<title>Hoofdstuk 6</title>
<polygon fill="white" stroke="transparent" points="-4,4 -4,-60 292,-60 292,4 -4,4"/>
<!-- Node1 -->
<g id="node1" class="node">
<title>Node1</title>
<g id="a_node1"><a xlink:title="Opdrachten van Hoofdstuk 6.">
<polygon fill="#bfbfbf" stroke="black" points="172,-37 103,-37 103,-18 172,-18 172,-37"/>
<text text-anchor="middle" x="137.5" y="-25" font-family="Helvetica,sans-Serif" font-size="10.00">Hoofdstuk 6</text>
</a>
</g>
</g>
<!-- Node3 -->
<g id="node3" class="node">
<title>Node3</title>
<g id="a_node3"><a xlink:href="group__HFST61.html" target="_top" xlink:title="Opdrachten 2 &amp; 3.">
<polygon fill="white" stroke="black" points="288,-56 208,-56 208,-37 288,-37 288,-56"/>
<text text-anchor="middle" x="248" y="-44" font-family="Helvetica,sans-Serif" font-size="10.00">Opdracht 2 &amp; 3</text>
</a>
</g>
</g>
<!-- Node1&#45;&gt;Node3 -->
<g id="edge2" class="edge">
<title>Node1&#45;&gt;Node3</title>
<path fill="none" stroke="black" d="M182.35,-35.18C190.83,-36.66 199.66,-38.21 207.97,-39.67"/>
<polygon fill="black" stroke="black" points="182.69,-31.69 172.24,-33.41 181.48,-38.58 182.69,-31.69"/>
</g>
<!-- Node4 -->
<g id="node4" class="node">
<title>Node4</title>
<g id="a_node4"><a xlink:href="group__HFST62.html" target="_top" xlink:title="Opdrachten 5 &amp; 6.">
<polygon fill="white" stroke="black" points="288,-19 208,-19 208,0 288,0 288,-19"/>
<text text-anchor="middle" x="248" y="-7" font-family="Helvetica,sans-Serif" font-size="10.00">Opdracht 5 &amp; 6</text>
</a>
</g>
</g>
<!-- Node1&#45;&gt;Node4 -->
<g id="edge3" class="edge">
<title>Node1&#45;&gt;Node4</title>
<path fill="none" stroke="black" d="M182.35,-20.23C190.83,-18.82 199.66,-17.35 207.97,-15.97"/>
<polygon fill="black" stroke="black" points="181.53,-16.81 172.24,-21.9 182.67,-23.72 181.53,-16.81"/>
</g>
<!-- Node2 -->
<g id="node2" class="node">
<title>Node2</title>
<g id="a_node2"><a xlink:href="group__boek.html" target="_top" xlink:title="Alle in te leveren opgaven uit het boek.">
<polygon fill="white" stroke="black" points="67,-37 0,-37 0,-18 67,-18 67,-37"/>
<text text-anchor="middle" x="33.5" y="-25" font-family="Helvetica,sans-Serif" font-size="10.00">Opdrachten</text>
</a>
</g>
</g>
<!-- Node2&#45;&gt;Node1 -->
<g id="edge1" class="edge">
<title>Node2&#45;&gt;Node1</title>
<path fill="none" stroke="black" d="M77.25,-27.5C85.8,-27.5 94.67,-27.5 102.85,-27.5"/>
<polygon fill="black" stroke="black" points="77.05,-24 67.05,-27.5 77.05,-31 77.05,-24"/>
</g>
</g>
</svg>
