<?xml version="1.0" encoding="UTF-8" standalone="no"?>
<!DOCTYPE svg PUBLIC "-//W3C//DTD SVG 1.1//EN"
 "http://www.w3.org/Graphics/SVG/1.1/DTD/svg11.dtd">
<!-- Generated by graphviz version 2.44.0 ()
 -->
<!-- Title: main Pages: 1 -->
<svg width="323pt" height="142pt"
 viewBox="0.00 0.00 323.00 142.00" xmlns="http://www.w3.org/2000/svg" xmlns:xlink="http://www.w3.org/1999/xlink">
<g id="graph0" class="graph" transform="scale(1 1) rotate(0) translate(4 138)">
<title>main</title>
<polygon fill="white" stroke="transparent" points="-4,4 -4,-138 319,-138 319,4 -4,4"/>
<!-- Node1 -->
<g id="node1" class="node">
<title>Node1</title>
<g id="a_node1"><a xlink:title="Main function.">
<polygon fill="#bfbfbf" stroke="black" points="0,-57.5 0,-76.5 38,-76.5 38,-57.5 0,-57.5"/>
<text text-anchor="middle" x="19" y="-64.5" font-family="Helvetica,sans-Serif" font-size="10.00">main</text>
</a>
</g>
</g>
<!-- Node2 -->
<g id="node2" class="node">
<title>Node2</title>
<g id="a_node2"><a xlink:href="classWedstrijd.html#a5b0dc4d5ad9bdc2ac84f1a9b6a8e8465" target="_top" xlink:title="Team 1 scoort een punt.">
<polygon fill="white" stroke="black" points="90.5,-114.5 90.5,-133.5 179.5,-133.5 179.5,-114.5 90.5,-114.5"/>
<text text-anchor="middle" x="135" y="-121.5" font-family="Helvetica,sans-Serif" font-size="10.00">Wedstrijd::team1</text>
</a>
</g>
</g>
<!-- Node1&#45;&gt;Node2 -->
<g id="edge1" class="edge">
<title>Node1&#45;&gt;Node2</title>
<path fill="none" stroke="midnightblue" d="M31.35,-76.56C41.85,-85 58.18,-97.16 74,-105 78.53,-107.25 83.39,-109.3 88.31,-111.16"/>
<polygon fill="midnightblue" stroke="midnightblue" points="87.17,-114.47 97.76,-114.5 89.49,-107.87 87.17,-114.47"/>
</g>
<!-- Node4 -->
<g id="node4" class="node">
<title>Node4</title>
<g id="a_node4"><a xlink:href="classTeam.html#ada4f595ee6904dbeabf6dfba87b74d2c" target="_top" xlink:title="Alle gegevens van het team weer gegeven als string.">
<polygon fill="white" stroke="black" points="95,-76.5 95,-95.5 175,-95.5 175,-76.5 95,-76.5"/>
<text text-anchor="middle" x="135" y="-83.5" font-family="Helvetica,sans-Serif" font-size="10.00">Team::toString</text>
</a>
</g>
</g>
<!-- Node1&#45;&gt;Node4 -->
<g id="edge3" class="edge">
<title>Node1&#45;&gt;Node4</title>
<path fill="none" stroke="midnightblue" d="M38.06,-70.01C50.65,-72.11 68.08,-75.01 84.63,-77.77"/>
<polygon fill="midnightblue" stroke="midnightblue" points="84.34,-81.27 94.78,-79.46 85.49,-74.37 84.34,-81.27"/>
</g>
<!-- Node5 -->
<g id="node5" class="node">
<title>Node5</title>
<g id="a_node5"><a xlink:href="classWedstrijd.html#a7947a3a0c84536131cde838fafbf3344" target="_top" xlink:title="Alle gegevens van de wedstrijd weer gegeven als string.">
<polygon fill="white" stroke="black" points="87.5,-38.5 87.5,-57.5 182.5,-57.5 182.5,-38.5 87.5,-38.5"/>
<text text-anchor="middle" x="135" y="-45.5" font-family="Helvetica,sans-Serif" font-size="10.00">Wedstrijd::toString</text>
</a>
</g>
</g>
<!-- Node1&#45;&gt;Node5 -->
<g id="edge4" class="edge">
<title>Node1&#45;&gt;Node5</title>
<path fill="none" stroke="midnightblue" d="M38.06,-63.99C48.88,-62.19 63.27,-59.79 77.62,-57.4"/>
<polygon fill="midnightblue" stroke="midnightblue" points="78.21,-60.85 87.5,-55.75 77.06,-53.94 78.21,-60.85"/>
</g>
<!-- Node8 -->
<g id="node8" class="node">
<title>Node8</title>
<g id="a_node8"><a xlink:href="classTeam.html#a55ae62581e3fd4f082c24d7bf0a23a10" target="_top" xlink:title="Voeg een lid toe aan het team.">
<polygon fill="white" stroke="black" points="74,-0.5 74,-19.5 196,-19.5 196,-0.5 74,-0.5"/>
<text text-anchor="middle" x="135" y="-7.5" font-family="Helvetica,sans-Serif" font-size="10.00">Team::voegTeamLidToe</text>
</a>
</g>
</g>
<!-- Node1&#45;&gt;Node8 -->
<g id="edge7" class="edge">
<title>Node1&#45;&gt;Node8</title>
<path fill="none" stroke="midnightblue" d="M31.35,-57.44C41.85,-49 58.18,-36.84 74,-29 78.53,-26.75 83.39,-24.7 88.31,-22.84"/>
<polygon fill="midnightblue" stroke="midnightblue" points="89.49,-26.13 97.76,-19.5 87.17,-19.53 89.49,-26.13"/>
</g>
<!-- Node3 -->
<g id="node3" class="node">
<title>Node3</title>
<g id="a_node3"><a xlink:href="classTeller.html#a2c301f440b0e059aa1a29d8dc3c55f24" target="_top" xlink:title="Verhoogt de waarde van de teller met 1.">
<polygon fill="white" stroke="black" points="233.5,-114.5 233.5,-133.5 313.5,-133.5 313.5,-114.5 233.5,-114.5"/>
<text text-anchor="middle" x="273.5" y="-121.5" font-family="Helvetica,sans-Serif" font-size="10.00">Teller::verhoog</text>
</a>
</g>
</g>
<!-- Node2&#45;&gt;Node3 -->
<g id="edge2" class="edge">
<title>Node2&#45;&gt;Node3</title>
<path fill="none" stroke="midnightblue" d="M179.56,-124C193.38,-124 208.75,-124 222.95,-124"/>
<polygon fill="midnightblue" stroke="midnightblue" points="223.04,-127.5 233.04,-124 223.04,-120.5 223.04,-127.5"/>
</g>
<!-- Node6 -->
<g id="node6" class="node">
<title>Node6</title>
<g id="a_node6"><a xlink:href="classTeller.html#a8434a2f74e7cd10eaa63804afe3dfeb8" target="_top" xlink:title="Verkrijgt de waarde van de teller.">
<polygon fill="white" stroke="black" points="232,-57.5 232,-76.5 315,-76.5 315,-57.5 232,-57.5"/>
<text text-anchor="middle" x="273.5" y="-64.5" font-family="Helvetica,sans-Serif" font-size="10.00">Teller::getTeller</text>
</a>
</g>
</g>
<!-- Node5&#45;&gt;Node6 -->
<g id="edge5" class="edge">
<title>Node5&#45;&gt;Node6</title>
<path fill="none" stroke="midnightblue" d="M182.59,-54.49C195.15,-56.23 208.79,-58.13 221.57,-59.91"/>
<polygon fill="midnightblue" stroke="midnightblue" points="221.21,-63.39 231.59,-61.31 222.17,-56.46 221.21,-63.39"/>
</g>
<!-- Node7 -->
<g id="node7" class="node">
<title>Node7</title>
<g id="a_node7"><a xlink:href="classDatum.html#a1d4fde90bf79b6aa26a55b74f9a0c3c8" target="_top" xlink:title="Datum gerepresenteerd als een string in format dd&#45;mm&#45;jjjj.">
<polygon fill="white" stroke="black" points="232,-19.5 232,-38.5 315,-38.5 315,-19.5 232,-19.5"/>
<text text-anchor="middle" x="273.5" y="-26.5" font-family="Helvetica,sans-Serif" font-size="10.00">Datum::toString</text>
</a>
</g>
</g>
<!-- Node5&#45;&gt;Node7 -->
<g id="edge6" class="edge">
<title>Node5&#45;&gt;Node7</title>
<path fill="none" stroke="midnightblue" d="M182.59,-41.51C195.15,-39.77 208.79,-37.87 221.57,-36.09"/>
<polygon fill="midnightblue" stroke="midnightblue" points="222.17,-39.54 231.59,-34.69 221.21,-32.61 222.17,-39.54"/>
</g>
</g>
</svg>
