<?xml version="1.0" encoding="UTF-8" standalone="no"?>
<!DOCTYPE svg PUBLIC "-//W3C//DTD SVG 1.1//EN"
 "http://www.w3.org/Graphics/SVG/1.1/DTD/svg11.dtd">
<!-- Generated by graphviz version 2.44.0 ()
 -->
<!-- Title: main Pages: 1 -->
<svg width="286pt" height="47pt"
 viewBox="0.00 0.00 286.00 47.00" xmlns="http://www.w3.org/2000/svg" xmlns:xlink="http://www.w3.org/1999/xlink">
<g id="graph0" class="graph" transform="scale(1 1) rotate(0) translate(4 43)">
<title>main</title>
<polygon fill="white" stroke="transparent" points="-4,4 -4,-43 282,-43 282,4 -4,4"/>
<!-- Node1 -->
<g id="node1" class="node">
<title>Node1</title>
<g id="a_node1"><a xlink:title="Main function.">
<polygon fill="#bfbfbf" stroke="black" points="0,-0.5 0,-19.5 38,-19.5 38,-0.5 0,-0.5"/>
<text text-anchor="middle" x="19" y="-7.5" font-family="Helvetica,sans-Serif" font-size="10.00">main</text>
</a>
</g>
</g>
<!-- Node2 -->
<g id="node2" class="node">
<title>Node2</title>
<g id="a_node2"><a xlink:href="classFiets.html#a266a16ff6236e46e22377e17cbed6881" target="_top" xlink:title="Alle gegevens van een fiets weer gegeven als string.">
<polygon fill="white" stroke="black" points="74,-19.5 74,-38.5 151,-38.5 151,-19.5 74,-19.5"/>
<text text-anchor="middle" x="112.5" y="-26.5" font-family="Helvetica,sans-Serif" font-size="10.00">Fiets::toString</text>
</a>
</g>
</g>
<!-- Node1&#45;&gt;Node2 -->
<g id="edge1" class="edge">
<title>Node1&#45;&gt;Node2</title>
<path fill="none" stroke="midnightblue" d="M38.08,-13.75C45.57,-15.31 54.66,-17.2 63.85,-19.1"/>
<polygon fill="midnightblue" stroke="midnightblue" points="63.28,-22.56 73.78,-21.17 64.7,-15.71 63.28,-22.56"/>
</g>
<!-- Node3 -->
<g id="node3" class="node">
<title>Node3</title>
<g id="a_node3"><a xlink:href="classVoertuig.html#a7dfbb262f3ad516fa48a8003c0179a01" target="_top" xlink:title="Alle gegevens van een voertuig weer gegeven als string.">
<polygon fill="white" stroke="black" points="187,-0.5 187,-19.5 278,-19.5 278,-0.5 187,-0.5"/>
<text text-anchor="middle" x="232.5" y="-7.5" font-family="Helvetica,sans-Serif" font-size="10.00">Voertuig::toString</text>
</a>
</g>
</g>
<!-- Node1&#45;&gt;Node3 -->
<g id="edge3" class="edge">
<title>Node1&#45;&gt;Node3</title>
<path fill="none" stroke="midnightblue" d="M38.03,-10C68.4,-10 130.91,-10 176.69,-10"/>
<polygon fill="midnightblue" stroke="midnightblue" points="176.77,-13.5 186.77,-10 176.77,-6.5 176.77,-13.5"/>
</g>
<!-- Node2&#45;&gt;Node3 -->
<g id="edge2" class="edge">
<title>Node2&#45;&gt;Node3</title>
<path fill="none" stroke="midnightblue" d="M151.16,-22.94C159.3,-21.62 168.08,-20.21 176.73,-18.82"/>
<polygon fill="midnightblue" stroke="midnightblue" points="177.46,-22.25 186.78,-17.2 176.35,-15.34 177.46,-22.25"/>
</g>
</g>
</svg>
