<?xml version="1.0" encoding="UTF-8" standalone="no"?>
<!DOCTYPE svg PUBLIC "-//W3C//DTD SVG 1.1//EN"
 "http://www.w3.org/Graphics/SVG/1.1/DTD/svg11.dtd">
<!-- Generated by graphviz version 2.38.0 (20140413.2041)
 -->
<!-- Title: main Pages: 1 -->
<svg width="191pt" height="235pt"
 viewBox="0.00 0.00 191.00 235.00" xmlns="http://www.w3.org/2000/svg" xmlns:xlink="http://www.w3.org/1999/xlink">
<g id="graph0" class="graph" transform="scale(1 1) rotate(0) translate(4 231)">
<title>main</title>
<polygon fill="white" stroke="none" points="-4,4 -4,-231 187,-231 187,4 -4,4"/>
<!-- Node1 -->
<g id="node1" class="node"><title>Node1</title>
<polygon fill="#bfbfbf" stroke="black" points="0,-104 0,-123 41,-123 41,-104 0,-104"/>
<text text-anchor="middle" x="20.5" y="-111" font-family="Helvetica,sans-Serif" font-size="10.00">main</text>
</g>
<!-- Node2 -->
<g id="node2" class="node"><title>Node2</title>
<g id="a_node2"><a xlink:href="classCijferAdministratie.html#aa2cd2ea11e1d3ad6fd02743f127c1677" target="_top" xlink:title="Voegt een student toe aan de cijfer administratie. ">
<polygon fill="white" stroke="black" points="78,-196.5 78,-226.5 182,-226.5 182,-196.5 78,-196.5"/>
<text text-anchor="start" x="86" y="-214.5" font-family="Helvetica,sans-Serif" font-size="10.00">CijferAdministratie</text>
<text text-anchor="middle" x="130" y="-203.5" font-family="Helvetica,sans-Serif" font-size="10.00">::voegStudentToe</text>
</a>
</g>
</g>
<!-- Node1&#45;&gt;Node2 -->
<g id="edge1" class="edge"><title>Node1&#45;&gt;Node2</title>
<path fill="none" stroke="midnightblue" d="M26.7479,-123.36C35.403,-138.822 54.021,-168.923 77,-187.5 78.5368,-188.742 80.1484,-189.936 81.8139,-191.082"/>
<polygon fill="midnightblue" stroke="midnightblue" points="80.1406,-194.162 90.4943,-196.41 83.8021,-188.196 80.1406,-194.162"/>
</g>
<!-- Node3 -->
<g id="node3" class="node"><title>Node3</title>
<g id="a_node3"><a xlink:href="classCijferAdministratie.html#a9d4f5bedf81ef1db17ae7aa0ba2fdb5d" target="_top" xlink:title="Voegt een tentamen resulataat toe. ">
<polygon fill="white" stroke="black" points="77,-147.5 77,-177.5 183,-177.5 183,-147.5 77,-147.5"/>
<text text-anchor="start" x="85" y="-165.5" font-family="Helvetica,sans-Serif" font-size="10.00">CijferAdministratie</text>
<text text-anchor="middle" x="130" y="-154.5" font-family="Helvetica,sans-Serif" font-size="10.00">::voegResultaatToe</text>
</a>
</g>
</g>
<!-- Node1&#45;&gt;Node3 -->
<g id="edge2" class="edge"><title>Node1&#45;&gt;Node3</title>
<path fill="none" stroke="midnightblue" d="M41.2172,-122.487C53.8665,-128.253 70.7878,-135.966 86.3972,-143.081"/>
<polygon fill="midnightblue" stroke="midnightblue" points="85.3458,-146.448 95.8968,-147.411 88.2491,-140.079 85.3458,-146.448"/>
</g>
<!-- Node4 -->
<g id="node4" class="node"><title>Node4</title>
<g id="a_node4"><a xlink:href="classCijferAdministratie.html#a9402594d94d41c2baf3ca350e80f249b" target="_top" xlink:title="Toont alle resultaten van een student. ">
<polygon fill="white" stroke="black" points="78,-98.5 78,-128.5 182,-128.5 182,-98.5 78,-98.5"/>
<text text-anchor="start" x="86" y="-116.5" font-family="Helvetica,sans-Serif" font-size="10.00">CijferAdministratie</text>
<text text-anchor="middle" x="130" y="-105.5" font-family="Helvetica,sans-Serif" font-size="10.00">::toonResultaten</text>
</a>
</g>
</g>
<!-- Node1&#45;&gt;Node4 -->
<g id="edge3" class="edge"><title>Node1&#45;&gt;Node4</title>
<path fill="none" stroke="midnightblue" d="M41.2172,-113.5C48.8649,-113.5 58.0743,-113.5 67.6111,-113.5"/>
<polygon fill="midnightblue" stroke="midnightblue" points="67.6163,-117 77.6163,-113.5 67.6163,-110 67.6163,-117"/>
</g>
<!-- Node5 -->
<g id="node5" class="node"><title>Node5</title>
<g id="a_node5"><a xlink:href="classCijferAdministratie.html#a5023ec7e7df1d233b69c2646c0e901ee" target="_top" xlink:title="Toont alle studenten in de cijfer administratie. ">
<polygon fill="white" stroke="black" points="78,-49.5 78,-79.5 182,-79.5 182,-49.5 78,-49.5"/>
<text text-anchor="start" x="86" y="-67.5" font-family="Helvetica,sans-Serif" font-size="10.00">CijferAdministratie</text>
<text text-anchor="middle" x="130" y="-56.5" font-family="Helvetica,sans-Serif" font-size="10.00">::toonStudenten</text>
</a>
</g>
</g>
<!-- Node1&#45;&gt;Node5 -->
<g id="edge4" class="edge"><title>Node1&#45;&gt;Node5</title>
<path fill="none" stroke="midnightblue" d="M41.2172,-104.513C53.8665,-98.7469 70.7878,-91.0339 86.3972,-83.9189"/>
<polygon fill="midnightblue" stroke="midnightblue" points="88.2491,-86.9213 95.8968,-79.5889 85.3458,-80.5518 88.2491,-86.9213"/>
</g>
<!-- Node6 -->
<g id="node6" class="node"><title>Node6</title>
<g id="a_node6"><a xlink:href="classCijferAdministratie.html#a5667b79cc4a13820353f1e32df81cc84" target="_top" xlink:title="Alle gegevens van de cijfer administratie weer gegeven als string. ">
<polygon fill="white" stroke="black" points="78,-0.5 78,-30.5 182,-30.5 182,-0.5 78,-0.5"/>
<text text-anchor="start" x="86" y="-18.5" font-family="Helvetica,sans-Serif" font-size="10.00">CijferAdministratie</text>
<text text-anchor="middle" x="130" y="-7.5" font-family="Helvetica,sans-Serif" font-size="10.00">::toString</text>
</a>
</g>
</g>
<!-- Node1&#45;&gt;Node6 -->
<g id="edge5" class="edge"><title>Node1&#45;&gt;Node6</title>
<path fill="none" stroke="midnightblue" d="M26.8151,-103.82C35.5622,-88.6299 54.3042,-59.0208 77,-40.5 78.9693,-38.893 81.0591,-37.3589 83.2262,-35.8991"/>
<polygon fill="midnightblue" stroke="midnightblue" points="85.15,-38.8256 91.8761,-30.6396 81.5132,-32.8444 85.15,-38.8256"/>
</g>
</g>
</svg>
