<?xml version="1.0" encoding="UTF-8" standalone="no"?>
<!DOCTYPE svg PUBLIC "-//W3C//DTD SVG 1.1//EN"
 "http://www.w3.org/Graphics/SVG/1.1/DTD/svg11.dtd">
<!-- Generated by graphviz version 2.38.0 (20140413.2041)
 -->
<!-- Title: Hoofdstuk 6 Pages: 1 -->
<svg width="317pt" height="66pt"
 viewBox="0.00 0.00 317.00 66.00" xmlns="http://www.w3.org/2000/svg" xmlns:xlink="http://www.w3.org/1999/xlink">
<g id="graph0" class="graph" transform="scale(1 1) rotate(0) translate(4 62)">
<title>Hoofdstuk 6</title>
<polygon fill="white" stroke="none" points="-4,4 -4,-62 313,-62 313,4 -4,4"/>
<!-- Node0 -->
<g id="node1" class="node"><title>Node0</title>
<polygon fill="#bfbfbf" stroke="black" points="109,-19.5 109,-38.5 183,-38.5 183,-19.5 109,-19.5"/>
<text text-anchor="middle" x="146" y="-26.5" font-family="Helvetica,sans-Serif" font-size="10.00">Hoofdstuk 6</text>
</g>
<!-- Node2 -->
<g id="node3" class="node"><title>Node2</title>
<g id="a_node3"><a xlink:href="group__HFST61.html" target="_top" xlink:title="Opdrachten 2 &amp; 3. ">
<polygon fill="white" stroke="black" points="219,-38.5 219,-57.5 309,-57.5 309,-38.5 219,-38.5"/>
<text text-anchor="middle" x="264" y="-45.5" font-family="Helvetica,sans-Serif" font-size="10.00">Opdracht 2 &amp; 3</text>
</a>
</g>
</g>
<!-- Node0&#45;&gt;Node2 -->
<g id="edge2" class="edge"><title>Node0&#45;&gt;Node2</title>
<path fill="none" stroke="black" d="M193.148,-36.5587C201.596,-37.9425 210.396,-39.3837 218.786,-40.7581"/>
<polygon fill="black" stroke="black" points="193.502,-33.0701 183.067,-34.9076 192.37,-39.978 193.502,-33.0701"/>
</g>
<!-- Node3 -->
<g id="node4" class="node"><title>Node3</title>
<g id="a_node4"><a xlink:href="group__HFST62.html" target="_top" xlink:title="Opdrachten 5 &amp; 6. ">
<polygon fill="white" stroke="black" points="219,-0.5 219,-19.5 309,-19.5 309,-0.5 219,-0.5"/>
<text text-anchor="middle" x="264" y="-7.5" font-family="Helvetica,sans-Serif" font-size="10.00">Opdracht 5 &amp; 6</text>
</a>
</g>
</g>
<!-- Node0&#45;&gt;Node3 -->
<g id="edge3" class="edge"><title>Node0&#45;&gt;Node3</title>
<path fill="none" stroke="black" d="M193.148,-21.4413C201.596,-20.0575 210.396,-18.6163 218.786,-17.2419"/>
<polygon fill="black" stroke="black" points="192.37,-18.022 183.067,-23.0924 193.502,-24.9299 192.37,-18.022"/>
</g>
<!-- Node1 -->
<g id="node2" class="node"><title>Node1</title>
<g id="a_node2"><a xlink:href="group__boek.html" target="_top" xlink:title="Alle in te leveren opgaven uit het boek. ">
<polygon fill="white" stroke="black" points="0,-19.5 0,-38.5 73,-38.5 73,-19.5 0,-19.5"/>
<text text-anchor="middle" x="36.5" y="-26.5" font-family="Helvetica,sans-Serif" font-size="10.00">Opdrachten</text>
</a>
</g>
</g>
<!-- Node1&#45;&gt;Node0 -->
<g id="edge1" class="edge"><title>Node1&#45;&gt;Node0</title>
<path fill="none" stroke="black" d="M83.5038,-29C92.029,-29 100.82,-29 108.994,-29"/>
<polygon fill="black" stroke="black" points="83.296,-25.5001 73.2959,-29 83.2959,-32.5001 83.296,-25.5001"/>
</g>
</g>
</svg>
