<?xml version="1.0" encoding="UTF-8" standalone="no"?>
<!DOCTYPE svg PUBLIC "-//W3C//DTD SVG 1.1//EN"
 "http://www.w3.org/Graphics/SVG/1.1/DTD/svg11.dtd">
<!-- Generated by graphviz version 2.38.0 (20140413.2041)
 -->
<!-- Title: main Pages: 1 -->
<svg width="341pt" height="180pt"
 viewBox="0.00 0.00 341.00 180.00" xmlns="http://www.w3.org/2000/svg" xmlns:xlink="http://www.w3.org/1999/xlink">
<g id="graph0" class="graph" transform="scale(1 1) rotate(0) translate(4 176)">
<title>main</title>
<polygon fill="white" stroke="none" points="-4,4 -4,-176 337,-176 337,4 -4,4"/>
<!-- Node1 -->
<g id="node1" class="node"><title>Node1</title>
<polygon fill="#bfbfbf" stroke="black" points="0,-95.5 0,-114.5 41,-114.5 41,-95.5 0,-95.5"/>
<text text-anchor="middle" x="20.5" y="-102.5" font-family="Helvetica,sans-Serif" font-size="10.00">main</text>
</g>
<!-- Node2 -->
<g id="node2" class="node"><title>Node2</title>
<g id="a_node2"><a xlink:href="classTeam.html#a55ae62581e3fd4f082c24d7bf0a23a10" target="_top" xlink:title="Voeg een lid toe aan het team. ">
<polygon fill="white" stroke="black" points="77,-152.5 77,-171.5 203,-171.5 203,-152.5 77,-152.5"/>
<text text-anchor="middle" x="140" y="-159.5" font-family="Helvetica,sans-Serif" font-size="10.00">Team::voegTeamLidToe</text>
</a>
</g>
</g>
<!-- Node1&#45;&gt;Node2 -->
<g id="edge1" class="edge"><title>Node1&#45;&gt;Node2</title>
<path fill="none" stroke="midnightblue" d="M33.1949,-114.574C44.0049,-123.03 60.7981,-135.196 77,-143 81.6356,-145.233 86.592,-147.274 91.6071,-149.121"/>
<polygon fill="midnightblue" stroke="midnightblue" points="90.66,-152.496 101.255,-152.432 92.9323,-145.875 90.66,-152.496"/>
</g>
<!-- Node3 -->
<g id="node3" class="node"><title>Node3</title>
<g id="a_node3"><a xlink:href="classTeam.html#a2065c76c45ede476e860da83a099e2a9" target="_top" xlink:title="Alle gegevens van het team weer gegeven als string. ">
<polygon fill="white" stroke="black" points="97,-114.5 97,-133.5 183,-133.5 183,-114.5 97,-114.5"/>
<text text-anchor="middle" x="140" y="-121.5" font-family="Helvetica,sans-Serif" font-size="10.00">Team::toString</text>
</a>
</g>
</g>
<!-- Node1&#45;&gt;Node3 -->
<g id="edge2" class="edge"><title>Node1&#45;&gt;Node3</title>
<path fill="none" stroke="midnightblue" d="M41.1669,-108.18C53.7185,-110.21 70.626,-112.944 86.853,-115.568"/>
<polygon fill="midnightblue" stroke="midnightblue" points="86.3931,-119.039 96.8236,-117.18 87.5105,-112.128 86.3931,-119.039"/>
</g>
<!-- Node4 -->
<g id="node4" class="node"><title>Node4</title>
<g id="a_node4"><a xlink:href="classWedstrijd.html#a5b0dc4d5ad9bdc2ac84f1a9b6a8e8465" target="_top" xlink:title="Team 1 scoort een punt. ">
<polygon fill="white" stroke="black" points="91.5,-76.5 91.5,-95.5 188.5,-95.5 188.5,-76.5 91.5,-76.5"/>
<text text-anchor="middle" x="140" y="-83.5" font-family="Helvetica,sans-Serif" font-size="10.00">Wedstrijd::team1</text>
</a>
</g>
</g>
<!-- Node1&#45;&gt;Node4 -->
<g id="edge3" class="edge"><title>Node1&#45;&gt;Node4</title>
<path fill="none" stroke="midnightblue" d="M41.1669,-101.82C52.3139,-100.017 66.8965,-97.6593 81.3868,-95.3162"/>
<polygon fill="midnightblue" stroke="midnightblue" points="82.0474,-98.7549 91.3604,-93.7034 80.9299,-91.8447 82.0474,-98.7549"/>
</g>
<!-- Node6 -->
<g id="node6" class="node"><title>Node6</title>
<g id="a_node6"><a xlink:href="classWedstrijd.html#ae4dde403b3e23492f813f2e54972327d" target="_top" xlink:title="Alle gegevens van de wedstrijd weer gegeven als string. ">
<polygon fill="white" stroke="black" points="88,-38.5 88,-57.5 192,-57.5 192,-38.5 88,-38.5"/>
<text text-anchor="middle" x="140" y="-45.5" font-family="Helvetica,sans-Serif" font-size="10.00">Wedstrijd::toString</text>
</a>
</g>
</g>
<!-- Node1&#45;&gt;Node6 -->
<g id="edge5" class="edge"><title>Node1&#45;&gt;Node6</title>
<path fill="none" stroke="midnightblue" d="M33.1949,-95.4261C44.0049,-86.97 60.7981,-74.8038 77,-67 81.6356,-64.7672 86.592,-62.7261 91.6071,-60.8794"/>
<polygon fill="midnightblue" stroke="midnightblue" points="92.9323,-64.125 101.255,-57.5683 90.66,-57.5041 92.9323,-64.125"/>
</g>
<!-- Node5 -->
<g id="node5" class="node"><title>Node5</title>
<g id="a_node5"><a xlink:href="classTeller.html#a2c301f440b0e059aa1a29d8dc3c55f24" target="_top" xlink:title="Verhoogt de waarde van de teller met 1. ">
<polygon fill="white" stroke="black" points="243,-76.5 243,-95.5 329,-95.5 329,-76.5 243,-76.5"/>
<text text-anchor="middle" x="286" y="-83.5" font-family="Helvetica,sans-Serif" font-size="10.00">Teller::verhoog</text>
</a>
</g>
</g>
<!-- Node4&#45;&gt;Node5 -->
<g id="edge4" class="edge"><title>Node4&#45;&gt;Node5</title>
<path fill="none" stroke="midnightblue" d="M188.55,-86C202.657,-86 218.185,-86 232.583,-86"/>
<polygon fill="midnightblue" stroke="midnightblue" points="232.83,-89.5001 242.83,-86 232.83,-82.5001 232.83,-89.5001"/>
</g>
<!-- Node7 -->
<g id="node7" class="node"><title>Node7</title>
<g id="a_node7"><a xlink:href="classDatum.html#ad1db0f79466bbb80c69b00964a6a81df" target="_top" xlink:title="Datum gerepresenteerd als een string in format dd&#45;mm&#45;jjjj. ">
<polygon fill="white" stroke="black" points="239,-38.5 239,-57.5 333,-57.5 333,-38.5 239,-38.5"/>
<text text-anchor="middle" x="286" y="-45.5" font-family="Helvetica,sans-Serif" font-size="10.00">Datum::toString</text>
</a>
</g>
</g>
<!-- Node6&#45;&gt;Node7 -->
<g id="edge6" class="edge"><title>Node6&#45;&gt;Node7</title>
<path fill="none" stroke="midnightblue" d="M192.174,-48C203.929,-48 216.494,-48 228.461,-48"/>
<polygon fill="midnightblue" stroke="midnightblue" points="228.788,-51.5001 238.788,-48 228.787,-44.5001 228.788,-51.5001"/>
</g>
<!-- Node8 -->
<g id="node8" class="node"><title>Node8</title>
<g id="a_node8"><a xlink:href="classTeller.html#ab5f12819a09287bc9bcdb42c7b9641e9" target="_top" xlink:title="Verkrijgt de waarde van de teller. ">
<polygon fill="white" stroke="black" points="243,-0.5 243,-19.5 329,-19.5 329,-0.5 243,-0.5"/>
<text text-anchor="middle" x="286" y="-7.5" font-family="Helvetica,sans-Serif" font-size="10.00">Teller::getTeller</text>
</a>
</g>
</g>
<!-- Node6&#45;&gt;Node8 -->
<g id="edge7" class="edge"><title>Node6&#45;&gt;Node8</title>
<path fill="none" stroke="midnightblue" d="M177.337,-38.411C196.083,-33.4642 219.143,-27.3789 239.107,-22.1108"/>
<polygon fill="midnightblue" stroke="midnightblue" points="240.148,-25.4558 248.924,-19.5201 238.362,-18.6875 240.148,-25.4558"/>
</g>
</g>
</svg>
