<?xml version="1.0" encoding="UTF-8" standalone="no"?>
<!DOCTYPE svg PUBLIC "-//W3C//DTD SVG 1.1//EN"
 "http://www.w3.org/Graphics/SVG/1.1/DTD/svg11.dtd">
<!-- Generated by graphviz version 2.44.0 ()
 -->
<!-- Title: Opdrachten Pages: 1 -->
<svg width="180pt" height="101pt"
 viewBox="0.00 0.00 180.00 101.00" xmlns="http://www.w3.org/2000/svg" xmlns:xlink="http://www.w3.org/1999/xlink">
<g id="graph0" class="graph" transform="scale(1 1) rotate(0) translate(4 97)">
<title>Opdrachten</title>
<polygon fill="white" stroke="transparent" points="-4,4 -4,-97 176,-97 176,4 -4,4"/>
<!-- Node2 -->
<g id="node1" class="node">
<title>Node2</title>
<g id="a_node1"><a xlink:href="group__HFST6.html" target="_top" xlink:title="Opdrachten van Hoofdstuk 6.">
<polygon fill="white" stroke="black" points="172,-93 103,-93 103,-74 172,-74 172,-93"/>
<text text-anchor="middle" x="137.5" y="-81" font-family="Helvetica,sans-Serif" font-size="10.00">Hoofdstuk 6</text>
</a>
</g>
</g>
<!-- Node3 -->
<g id="node2" class="node">
<title>Node3</title>
<g id="a_node2"><a xlink:href="group__HFST7.html" target="_top" xlink:title="Opdrachten van Hoofdstuk 7.">
<polygon fill="white" stroke="black" points="172,-56 103,-56 103,-37 172,-37 172,-56"/>
<text text-anchor="middle" x="137.5" y="-44" font-family="Helvetica,sans-Serif" font-size="10.00">Hoofdstuk 7</text>
</a>
</g>
</g>
<!-- Node4 -->
<g id="node3" class="node">
<title>Node4</title>
<g id="a_node3"><a xlink:href="group__HFST9.html" target="_top" xlink:title="Opdrachten van Hoofdstuk9.">
<polygon fill="white" stroke="black" points="172,-19 103,-19 103,0 172,0 172,-19"/>
<text text-anchor="middle" x="137.5" y="-7" font-family="Helvetica,sans-Serif" font-size="10.00">Hoofdstuk 9</text>
</a>
</g>
</g>
<!-- Node1 -->
<g id="node4" class="node">
<title>Node1</title>
<g id="a_node4"><a xlink:title="Alle in te leveren opgaven uit het boek.">
<polygon fill="#bfbfbf" stroke="black" points="67,-56 0,-56 0,-37 67,-37 67,-56"/>
<text text-anchor="middle" x="33.5" y="-44" font-family="Helvetica,sans-Serif" font-size="10.00">Opdrachten</text>
</a>
</g>
</g>
<!-- Node1&#45;&gt;Node2 -->
<g id="edge1" class="edge">
<title>Node1&#45;&gt;Node2</title>
<path fill="none" stroke="black" d="M70.39,-59.52C83.41,-64.24 97.89,-69.49 109.97,-73.88"/>
<polygon fill="black" stroke="black" points="71.36,-56.15 60.77,-56.03 68.97,-62.73 71.36,-56.15"/>
</g>
<!-- Node1&#45;&gt;Node3 -->
<g id="edge2" class="edge">
<title>Node1&#45;&gt;Node3</title>
<path fill="none" stroke="black" d="M77.25,-46.5C85.8,-46.5 94.67,-46.5 102.85,-46.5"/>
<polygon fill="black" stroke="black" points="77.05,-43 67.05,-46.5 77.05,-50 77.05,-43"/>
</g>
<!-- Node1&#45;&gt;Node4 -->
<g id="edge3" class="edge">
<title>Node1&#45;&gt;Node4</title>
<path fill="none" stroke="black" d="M70.39,-33.48C83.41,-28.76 97.89,-23.51 109.97,-19.12"/>
<polygon fill="black" stroke="black" points="68.97,-30.27 60.77,-36.97 71.36,-36.85 68.97,-30.27"/>
</g>
</g>
</svg>
