<?xml version="1.0" encoding="UTF-8" standalone="no"?>
<!DOCTYPE svg PUBLIC "-//W3C//DTD SVG 1.1//EN"
 "http://www.w3.org/Graphics/SVG/1.1/DTD/svg11.dtd">
<!-- Generated by graphviz version 2.38.0 (20140413.2041)
 -->
<!-- Title: main Pages: 1 -->
<svg width="396pt" height="180pt"
 viewBox="0.00 0.00 396.00 180.00" xmlns="http://www.w3.org/2000/svg" xmlns:xlink="http://www.w3.org/1999/xlink">
<g id="graph0" class="graph" transform="scale(1 1) rotate(0) translate(4 176)">
<title>main</title>
<polygon fill="white" stroke="none" points="-4,4 -4,-176 392,-176 392,4 -4,4"/>
<!-- Node1 -->
<g id="node1" class="node"><title>Node1</title>
<polygon fill="#bfbfbf" stroke="black" points="0,-76.5 0,-95.5 41,-95.5 41,-76.5 0,-76.5"/>
<text text-anchor="middle" x="20.5" y="-83.5" font-family="Helvetica,sans-Serif" font-size="10.00">main</text>
</g>
<!-- Node2 -->
<g id="node2" class="node"><title>Node2</title>
<g id="a_node2"><a xlink:href="classTijdstip.html#a5d541994f0d9d2c93d9d5069ff2a9b88" target="_top" xlink:title="Het ingeven van een tijdStip. ">
<polygon fill="white" stroke="black" points="95,-152.5 95,-171.5 200,-171.5 200,-152.5 95,-152.5"/>
<text text-anchor="middle" x="147.5" y="-159.5" font-family="Helvetica,sans-Serif" font-size="10.00">Tijdstip::setTijdStip</text>
</a>
</g>
</g>
<!-- Node1&#45;&gt;Node2 -->
<g id="edge1" class="edge"><title>Node1&#45;&gt;Node2</title>
<path fill="none" stroke="midnightblue" d="M28.2377,-95.6028C37.6804,-108.341 56.0605,-130.652 77,-143 80.6971,-145.18 84.6518,-147.117 88.7284,-148.837"/>
<polygon fill="midnightblue" stroke="midnightblue" points="87.8062,-152.229 98.3984,-152.469 90.2673,-145.676 87.8062,-152.229"/>
</g>
<!-- Node3 -->
<g id="node3" class="node"><title>Node3</title>
<g id="a_node3"><a xlink:href="classTijdstip.html#a30a010b20c1bb85577a57efb71b00144" target="_top" xlink:title="Tijdstip gerepresenteerd als een string in format uu:mm:ss. ">
<polygon fill="white" stroke="black" points="100.5,-114.5 100.5,-133.5 194.5,-133.5 194.5,-114.5 100.5,-114.5"/>
<text text-anchor="middle" x="147.5" y="-121.5" font-family="Helvetica,sans-Serif" font-size="10.00">Tijdstip::toString</text>
</a>
</g>
</g>
<!-- Node1&#45;&gt;Node3 -->
<g id="edge2" class="edge"><title>Node1&#45;&gt;Node3</title>
<path fill="none" stroke="midnightblue" d="M41.1798,-93.0748C51.7467,-96.7879 65.0266,-101.318 77,-105 84.4819,-107.301 92.4589,-109.612 100.242,-111.791"/>
<polygon fill="midnightblue" stroke="midnightblue" points="99.3736,-115.183 109.944,-114.47 101.237,-108.435 99.3736,-115.183"/>
</g>
<!-- Node5 -->
<g id="node5" class="node"><title>Node5</title>
<g id="a_node5"><a xlink:href="classTijdstip.html#a5c3c767eadb6fa0fe5e87b5361c73ca0" target="_top" xlink:title="Het verstrijken van een uur in 24&#45;uurs format. ">
<polygon fill="white" stroke="black" points="92.5,-76.5 92.5,-95.5 202.5,-95.5 202.5,-76.5 92.5,-76.5"/>
<text text-anchor="middle" x="147.5" y="-83.5" font-family="Helvetica,sans-Serif" font-size="10.00">Tijdstip::volgendUur</text>
</a>
</g>
</g>
<!-- Node1&#45;&gt;Node5 -->
<g id="edge4" class="edge"><title>Node1&#45;&gt;Node5</title>
<path fill="none" stroke="midnightblue" d="M41.0312,-86C52.245,-86 67.0357,-86 81.9804,-86"/>
<polygon fill="midnightblue" stroke="midnightblue" points="82.3094,-89.5001 92.3094,-86 82.3093,-82.5001 82.3094,-89.5001"/>
</g>
<!-- Node6 -->
<g id="node6" class="node"><title>Node6</title>
<g id="a_node6"><a xlink:href="classTijdstip.html#a30eb38d591bb1ddd0b591e39299dcd41" target="_top" xlink:title="Het verstrijken van een minuut. ">
<polygon fill="white" stroke="black" points="82,-38.5 82,-57.5 213,-57.5 213,-38.5 82,-38.5"/>
<text text-anchor="middle" x="147.5" y="-45.5" font-family="Helvetica,sans-Serif" font-size="10.00">Tijdstip::volgendeMinuut</text>
</a>
</g>
</g>
<!-- Node1&#45;&gt;Node6 -->
<g id="edge5" class="edge"><title>Node1&#45;&gt;Node6</title>
<path fill="none" stroke="midnightblue" d="M41.1798,-78.9252C51.7467,-75.2121 65.0266,-70.6822 77,-67 84.4819,-64.6991 92.4589,-62.3878 100.242,-60.2086"/>
<polygon fill="midnightblue" stroke="midnightblue" points="101.237,-63.5649 109.944,-57.5297 99.3736,-56.8174 101.237,-63.5649"/>
</g>
<!-- Node7 -->
<g id="node7" class="node"><title>Node7</title>
<g id="a_node7"><a xlink:href="classTijdstip.html#a39c1cb75608a1150a29760187b7b7a51" target="_top" xlink:title="Het verstrijken van een seconde. ">
<polygon fill="white" stroke="black" points="77,-0.5 77,-19.5 218,-19.5 218,-0.5 77,-0.5"/>
<text text-anchor="middle" x="147.5" y="-7.5" font-family="Helvetica,sans-Serif" font-size="10.00">Tijdstip::volgendeSeconde</text>
</a>
</g>
</g>
<!-- Node1&#45;&gt;Node7 -->
<g id="edge6" class="edge"><title>Node1&#45;&gt;Node7</title>
<path fill="none" stroke="midnightblue" d="M28.2377,-76.3972C37.6804,-63.6586 56.0605,-41.3476 77,-29 80.6971,-26.8199 84.6518,-24.8828 88.7284,-23.1629"/>
<polygon fill="midnightblue" stroke="midnightblue" points="90.2673,-26.3237 98.3984,-19.5314 87.8062,-19.7706 90.2673,-26.3237"/>
</g>
<!-- Node4 -->
<g id="node4" class="node"><title>Node4</title>
<g id="a_node4"><a xlink:href="classTijdstip.html#af62dd17a0af7c5784c727fd3e6b8879e" target="_top" xlink:title="voegt een &#39;0&#39;&#45;character toe voor i &lt; 10 ">
<polygon fill="white" stroke="black" points="254,-114.5 254,-133.5 388,-133.5 388,-114.5 254,-114.5"/>
<text text-anchor="middle" x="321" y="-121.5" font-family="Helvetica,sans-Serif" font-size="10.00">Tijdstip::addLeadingZero</text>
</a>
</g>
</g>
<!-- Node3&#45;&gt;Node4 -->
<g id="edge3" class="edge"><title>Node3&#45;&gt;Node4</title>
<path fill="none" stroke="midnightblue" d="M194.91,-124C209.944,-124 227.037,-124 243.653,-124"/>
<polygon fill="midnightblue" stroke="midnightblue" points="243.915,-127.5 253.915,-124 243.915,-120.5 243.915,-127.5"/>
</g>
</g>
</svg>
