<?xml version="1.0" encoding="UTF-8" standalone="no"?>
<!DOCTYPE svg PUBLIC "-//W3C//DTD SVG 1.1//EN"
 "http://www.w3.org/Graphics/SVG/1.1/DTD/svg11.dtd">
<!-- Generated by graphviz version 2.38.0 (20140413.2041)
 -->
<!-- Title: main Pages: 1 -->
<svg width="293pt" height="161pt"
 viewBox="0.00 0.00 293.00 161.21" xmlns="http://www.w3.org/2000/svg" xmlns:xlink="http://www.w3.org/1999/xlink">
<g id="graph0" class="graph" transform="scale(1 1) rotate(0) translate(4 157.209)">
<title>main</title>
<polygon fill="white" stroke="none" points="-4,4 -4,-157.209 289,-157.209 289,4 -4,4"/>
<!-- Node1 -->
<g id="node1" class="node"><title>Node1</title>
<polygon fill="#bfbfbf" stroke="black" points="0,-76.5 0,-95.5 41,-95.5 41,-76.5 0,-76.5"/>
<text text-anchor="middle" x="20.5" y="-83.5" font-family="Helvetica,sans-Serif" font-size="10.00">main</text>
</g>
<!-- Node2 -->
<g id="node2" class="node"><title>Node2</title>
<g id="a_node2"><a xlink:href="classTeller.html#ab5f12819a09287bc9bcdb42c7b9641e9" target="_top" xlink:title="Verkrijgt de waarde van de teller. ">
<polygon fill="white" stroke="black" points="199,-76.5 199,-95.5 285,-95.5 285,-76.5 199,-76.5"/>
<text text-anchor="middle" x="242" y="-83.5" font-family="Helvetica,sans-Serif" font-size="10.00">Teller::getTeller</text>
</a>
</g>
</g>
<!-- Node1&#45;&gt;Node2 -->
<g id="edge1" class="edge"><title>Node1&#45;&gt;Node2</title>
<path fill="none" stroke="midnightblue" d="M27.2139,-95.5322C35.9618,-109.08 54.095,-133.333 77,-143 112.214,-157.862 126.665,-154.861 163,-143 187.215,-135.095 210.151,-116.508 224.803,-102.695"/>
<polygon fill="midnightblue" stroke="midnightblue" points="227.345,-105.105 232.046,-95.6111 222.45,-100.101 227.345,-105.105"/>
</g>
<!-- Node3 -->
<g id="node3" class="node"><title>Node3</title>
<g id="a_node3"><a xlink:href="classTeller.html#a2bc91fcb36cb8e81eaacf531463cc3fb" target="_top" xlink:title="Zet de waarde van de teller. ">
<polygon fill="white" stroke="black" points="77,-114.5 77,-133.5 163,-133.5 163,-114.5 77,-114.5"/>
<text text-anchor="middle" x="120" y="-121.5" font-family="Helvetica,sans-Serif" font-size="10.00">Teller::setTeller</text>
</a>
</g>
</g>
<!-- Node1&#45;&gt;Node3 -->
<g id="edge2" class="edge"><title>Node1&#45;&gt;Node3</title>
<path fill="none" stroke="midnightblue" d="M41.2306,-93.6899C53.7088,-98.5532 70.1752,-104.971 84.7424,-110.648"/>
<polygon fill="midnightblue" stroke="midnightblue" points="83.8634,-114.062 94.4517,-114.432 86.4054,-107.54 83.8634,-114.062"/>
</g>
<!-- Node4 -->
<g id="node4" class="node"><title>Node4</title>
<g id="a_node4"><a xlink:href="classTeller.html#a2c301f440b0e059aa1a29d8dc3c55f24" target="_top" xlink:title="Verhoogt de waarde van de teller met 1. ">
<polygon fill="white" stroke="black" points="77,-76.5 77,-95.5 163,-95.5 163,-76.5 77,-76.5"/>
<text text-anchor="middle" x="120" y="-83.5" font-family="Helvetica,sans-Serif" font-size="10.00">Teller::verhoog</text>
</a>
</g>
</g>
<!-- Node1&#45;&gt;Node4 -->
<g id="edge3" class="edge"><title>Node1&#45;&gt;Node4</title>
<path fill="none" stroke="midnightblue" d="M41.2306,-86C48.6695,-86 57.5258,-86 66.5522,-86"/>
<polygon fill="midnightblue" stroke="midnightblue" points="66.7491,-89.5001 76.749,-86 66.749,-82.5001 66.7491,-89.5001"/>
</g>
<!-- Node5 -->
<g id="node5" class="node"><title>Node5</title>
<g id="a_node5"><a xlink:href="classTeller.html#adf506891a49824fad0ac2982a80bf38d" target="_top" xlink:title="Verlaagt de waarde van de teller met 1. ">
<polygon fill="white" stroke="black" points="79,-38.5 79,-57.5 161,-57.5 161,-38.5 79,-38.5"/>
<text text-anchor="middle" x="120" y="-45.5" font-family="Helvetica,sans-Serif" font-size="10.00">Teller::verlaag</text>
</a>
</g>
</g>
<!-- Node1&#45;&gt;Node5 -->
<g id="edge4" class="edge"><title>Node1&#45;&gt;Node5</title>
<path fill="none" stroke="midnightblue" d="M41.2306,-78.3101C53.7088,-73.4468 70.1752,-67.0292 84.7424,-61.3517"/>
<polygon fill="midnightblue" stroke="midnightblue" points="86.4054,-64.4601 94.4517,-57.5675 83.8634,-57.9379 86.4054,-64.4601"/>
</g>
<!-- Node6 -->
<g id="node6" class="node"><title>Node6</title>
<g id="a_node6"><a xlink:href="classMV.html#a50f872cc3aa7f47440910cce5ebaa84f" target="_top" xlink:title="Weergave van beide tellers. ">
<polygon fill="white" stroke="black" points="82.5,-0.5 82.5,-19.5 157.5,-19.5 157.5,-0.5 82.5,-0.5"/>
<text text-anchor="middle" x="120" y="-7.5" font-family="Helvetica,sans-Serif" font-size="10.00">MV::toString</text>
</a>
</g>
</g>
<!-- Node1&#45;&gt;Node6 -->
<g id="edge5" class="edge"><title>Node1&#45;&gt;Node6</title>
<path fill="none" stroke="midnightblue" d="M28.8794,-76.4503C38.7568,-64.1749 57.3262,-42.8026 77,-29 79.3954,-27.3194 81.9633,-25.7314 84.6055,-24.2436"/>
<polygon fill="midnightblue" stroke="midnightblue" points="86.4182,-27.248 93.7329,-19.5834 83.235,-21.0136 86.4182,-27.248"/>
</g>
<!-- Node6&#45;&gt;Node2 -->
<g id="edge6" class="edge"><title>Node6&#45;&gt;Node2</title>
<path fill="none" stroke="midnightblue" d="M144.537,-19.6192C150.675,-22.4036 157.193,-25.6134 163,-29 183.832,-41.1485 205.868,-57.6311 221.185,-69.7471"/>
<polygon fill="midnightblue" stroke="midnightblue" points="219.376,-72.7832 229.366,-76.3105 223.756,-67.323 219.376,-72.7832"/>
</g>
</g>
</svg>
