<?xml version="1.0" encoding="UTF-8" standalone="no"?>
<!DOCTYPE svg PUBLIC "-//W3C//DTD SVG 1.1//EN"
 "http://www.w3.org/Graphics/SVG/1.1/DTD/svg11.dtd">
<!-- Generated by graphviz version 2.44.0 ()
 -->
<!-- Title: Opdracht 1 Pages: 1 -->
<svg width="319pt" height="29pt"
 viewBox="0.00 0.00 319.00 28.50" xmlns="http://www.w3.org/2000/svg" xmlns:xlink="http://www.w3.org/1999/xlink">
<g id="graph0" class="graph" transform="scale(1 1) rotate(0) translate(4 24.5)">
<title>Opdracht 1</title>
<polygon fill="white" stroke="transparent" points="-4,4 -4,-24.5 315,-24.5 315,4 -4,4"/>
<!-- Node2 -->
<g id="node1" class="node">
<title>Node2</title>
<g id="a_node1"><a xlink:href="group__HFST7.html" target="_top" xlink:title="Opdrachten van Hoofdstuk 7.">
<polygon fill="white" stroke="black" points="69,-19 0,-19 0,0 69,0 69,-19"/>
<text text-anchor="middle" x="34.5" y="-7" font-family="Helvetica,sans-Serif" font-size="10.00">Hoofdstuk 7</text>
</a>
</g>
</g>
<!-- Node1 -->
<g id="node3" class="node">
<title>Node1</title>
<g id="a_node3"><a xlink:title="Opdracht 1.">
<polygon fill="#bfbfbf" stroke="black" points="170,-19 106,-19 106,0 170,0 170,-19"/>
<text text-anchor="middle" x="138" y="-7" font-family="Helvetica,sans-Serif" font-size="10.00">Opdracht 1</text>
</a>
</g>
</g>
<!-- Node2&#45;&gt;Node1 -->
<g id="edge1" class="edge">
<title>Node2&#45;&gt;Node1</title>
<path fill="none" stroke="black" d="M79.03,-9.5C88.08,-9.5 97.43,-9.5 105.92,-9.5"/>
<polygon fill="black" stroke="black" points="79.02,-6 69.02,-9.5 79.02,-13 79.02,-6"/>
</g>
<!-- Node3 -->
<g id="node2" class="node">
<title>Node3</title>
<g id="a_node2"><a xlink:href="group__HFST62.html" target="_top" xlink:title="Opdrachten 5 &amp; 6.">
<polygon fill="white" stroke="black" points="311,-19 231,-19 231,0 311,0 311,-19"/>
<text text-anchor="middle" x="271" y="-7" font-family="Helvetica,sans-Serif" font-size="10.00">Opdracht 5 &amp; 6</text>
</a>
</g>
</g>
<!-- Node1&#45;&gt;Node3 -->
<g id="edge2" class="edge">
<title>Node1&#45;&gt;Node3</title>
<path fill="none" stroke="orange" stroke-dasharray="5,2" d="M170.05,-9.5C188.2,-9.5 211.3,-9.5 230.72,-9.5"/>
<text text-anchor="middle" x="200.5" y="-12.5" font-family="Helvetica,sans-Serif" font-size="10.00">Teller</text>
</g>
</g>
</svg>
