<?xml version="1.0" encoding="UTF-8" standalone="no"?>
<!DOCTYPE svg PUBLIC "-//W3C//DTD SVG 1.1//EN"
 "http://www.w3.org/Graphics/SVG/1.1/DTD/svg11.dtd">
<!-- Generated by graphviz version 2.38.0 (20140413.2041)
 -->
<!-- Title: main Pages: 1 -->
<svg width="305pt" height="47pt"
 viewBox="0.00 0.00 305.00 47.00" xmlns="http://www.w3.org/2000/svg" xmlns:xlink="http://www.w3.org/1999/xlink">
<g id="graph0" class="graph" transform="scale(1 1) rotate(0) translate(4 43)">
<title>main</title>
<polygon fill="white" stroke="none" points="-4,4 -4,-43 301,-43 301,4 -4,4"/>
<!-- Node1 -->
<g id="node1" class="node"><title>Node1</title>
<polygon fill="#bfbfbf" stroke="black" points="0,-19.5 0,-38.5 41,-38.5 41,-19.5 0,-19.5"/>
<text text-anchor="middle" x="20.5" y="-26.5" font-family="Helvetica,sans-Serif" font-size="10.00">main</text>
</g>
<!-- Node2 -->
<g id="node2" class="node"><title>Node2</title>
<g id="a_node2"><a xlink:href="classVoertuig.html#a0e60374b37eb9337028515408804864f" target="_top" xlink:title="Alle gegevens van een voertuig weer gegeven als string. ">
<polygon fill="white" stroke="black" points="196,-19.5 196,-38.5 297,-38.5 297,-19.5 196,-19.5"/>
<text text-anchor="middle" x="246.5" y="-26.5" font-family="Helvetica,sans-Serif" font-size="10.00">Voertuig::toString</text>
</a>
</g>
</g>
<!-- Node1&#45;&gt;Node2 -->
<g id="edge1" class="edge"><title>Node1&#45;&gt;Node2</title>
<path fill="none" stroke="midnightblue" d="M41.3785,-29C73.3993,-29 137.653,-29 185.561,-29"/>
<polygon fill="midnightblue" stroke="midnightblue" points="185.824,-32.5001 195.824,-29 185.824,-25.5001 185.824,-32.5001"/>
</g>
<!-- Node3 -->
<g id="node3" class="node"><title>Node3</title>
<g id="a_node3"><a xlink:href="classFiets.html#a8f6e80af4d9b7fb9ae67da7aa35661f1" target="_top" xlink:title="Alle gegevens van een fiets weer gegeven als string. ">
<polygon fill="white" stroke="black" points="77,-0.5 77,-19.5 160,-19.5 160,-0.5 77,-0.5"/>
<text text-anchor="middle" x="118.5" y="-7.5" font-family="Helvetica,sans-Serif" font-size="10.00">Fiets::toString</text>
</a>
</g>
</g>
<!-- Node1&#45;&gt;Node3 -->
<g id="edge2" class="edge"><title>Node1&#45;&gt;Node3</title>
<path fill="none" stroke="midnightblue" d="M41.3913,-25.0632C48.8132,-23.5943 57.6194,-21.8514 66.5622,-20.0814"/>
<polygon fill="midnightblue" stroke="midnightblue" points="67.5202,-23.4598 76.6503,-18.0848 66.1611,-16.593 67.5202,-23.4598"/>
</g>
<!-- Node3&#45;&gt;Node2 -->
<g id="edge3" class="edge"><title>Node3&#45;&gt;Node2</title>
<path fill="none" stroke="midnightblue" d="M160.061,-16.1163C168.231,-17.3483 176.979,-18.6675 185.649,-19.9748"/>
<polygon fill="midnightblue" stroke="midnightblue" points="185.339,-23.4677 195.75,-21.4979 186.383,-16.5459 185.339,-23.4677"/>
</g>
</g>
</svg>
