<?xml version="1.0" encoding="UTF-8" standalone="no"?>
<!DOCTYPE svg PUBLIC "-//W3C//DTD SVG 1.1//EN"
 "http://www.w3.org/Graphics/SVG/1.1/DTD/svg11.dtd">
<!-- Generated by graphviz version 2.38.0 (20140413.2041)
 -->
<!-- Title: main Pages: 1 -->
<svg width="325pt" height="104pt"
 viewBox="0.00 0.00 325.00 104.00" xmlns="http://www.w3.org/2000/svg" xmlns:xlink="http://www.w3.org/1999/xlink">
<g id="graph0" class="graph" transform="scale(1 1) rotate(0) translate(4 100)">
<title>main</title>
<polygon fill="white" stroke="none" points="-4,4 -4,-100 321,-100 321,4 -4,4"/>
<!-- Node1 -->
<g id="node1" class="node"><title>Node1</title>
<polygon fill="#bfbfbf" stroke="black" points="0,-38.5 0,-57.5 41,-57.5 41,-38.5 0,-38.5"/>
<text text-anchor="middle" x="20.5" y="-45.5" font-family="Helvetica,sans-Serif" font-size="10.00">main</text>
</g>
<!-- Node2 -->
<g id="node2" class="node"><title>Node2</title>
<g id="a_node2"><a xlink:href="classTijdschrift.html#a06a64b55da768d0a657132c015c892be" target="_top" xlink:title="Alle gegevens van een tijdschrift weer gegeven als string. ">
<polygon fill="white" stroke="black" points="77,-76.5 77,-95.5 183,-95.5 183,-76.5 77,-76.5"/>
<text text-anchor="middle" x="130" y="-83.5" font-family="Helvetica,sans-Serif" font-size="10.00">Tijdschrift::toString</text>
</a>
</g>
</g>
<!-- Node1&#45;&gt;Node2 -->
<g id="edge1" class="edge"><title>Node1&#45;&gt;Node2</title>
<path fill="none" stroke="midnightblue" d="M41.2172,-54.9698C55.5059,-60.0207 75.2458,-66.9985 92.3881,-73.0581"/>
<polygon fill="midnightblue" stroke="midnightblue" points="91.5254,-76.4654 102.12,-76.4983 93.8584,-69.8656 91.5254,-76.4654"/>
</g>
<!-- Node4 -->
<g id="node4" class="node"><title>Node4</title>
<g id="a_node4"><a xlink:href="classBoek.html#a21c8fd42ff784b1b4c06bb277bb53507" target="_top" xlink:title="Alle gegevens van een boek weer gegeven als string. ">
<polygon fill="white" stroke="black" points="87.5,-38.5 87.5,-57.5 172.5,-57.5 172.5,-38.5 87.5,-38.5"/>
<text text-anchor="middle" x="130" y="-45.5" font-family="Helvetica,sans-Serif" font-size="10.00">Boek::toString</text>
</a>
</g>
</g>
<!-- Node1&#45;&gt;Node4 -->
<g id="edge3" class="edge"><title>Node1&#45;&gt;Node4</title>
<path fill="none" stroke="midnightblue" d="M41.2172,-48C51.3567,-48 64.2412,-48 76.9946,-48"/>
<polygon fill="midnightblue" stroke="midnightblue" points="77.1395,-51.5001 87.1395,-48 77.1395,-44.5001 77.1395,-51.5001"/>
</g>
<!-- Node5 -->
<g id="node5" class="node"><title>Node5</title>
<g id="a_node5"><a xlink:href="classBlueRay.html#abd86f893890db0b3b90c5a926a73d47a" target="_top" xlink:title="Alle gegevens van een blueRay weer gegeven als string. ">
<polygon fill="white" stroke="black" points="81,-0.5 81,-19.5 179,-19.5 179,-0.5 81,-0.5"/>
<text text-anchor="middle" x="130" y="-7.5" font-family="Helvetica,sans-Serif" font-size="10.00">BlueRay::toString</text>
</a>
</g>
</g>
<!-- Node1&#45;&gt;Node5 -->
<g id="edge5" class="edge"><title>Node1&#45;&gt;Node5</title>
<path fill="none" stroke="midnightblue" d="M41.2172,-41.0302C55.5059,-35.9793 75.2458,-29.0015 92.3881,-22.9419"/>
<polygon fill="midnightblue" stroke="midnightblue" points="93.8584,-26.1344 102.12,-19.5017 91.5254,-19.5346 93.8584,-26.1344"/>
</g>
<!-- Node3 -->
<g id="node3" class="node"><title>Node3</title>
<g id="a_node3"><a xlink:href="classUitgave.html#ae0206979b90e066e81e976af1f708e2e" target="_top" xlink:title="Alle gegevens van een uitgave weer gegeven als string. ">
<polygon fill="white" stroke="black" points="219,-38.5 219,-57.5 317,-57.5 317,-38.5 219,-38.5"/>
<text text-anchor="middle" x="268" y="-45.5" font-family="Helvetica,sans-Serif" font-size="10.00">Uitgave::toString</text>
</a>
</g>
</g>
<!-- Node2&#45;&gt;Node3 -->
<g id="edge2" class="edge"><title>Node2&#45;&gt;Node3</title>
<path fill="none" stroke="midnightblue" d="M165.319,-76.411C182.794,-71.5281 204.241,-65.5357 222.925,-60.315"/>
<polygon fill="midnightblue" stroke="midnightblue" points="224.003,-63.6479 232.692,-57.5859 222.119,-56.9062 224.003,-63.6479"/>
</g>
<!-- Node4&#45;&gt;Node3 -->
<g id="edge4" class="edge"><title>Node4&#45;&gt;Node3</title>
<path fill="none" stroke="midnightblue" d="M172.543,-48C183.895,-48 196.411,-48 208.517,-48"/>
<polygon fill="midnightblue" stroke="midnightblue" points="208.555,-51.5001 218.555,-48 208.555,-44.5001 208.555,-51.5001"/>
</g>
<!-- Node5&#45;&gt;Node3 -->
<g id="edge6" class="edge"><title>Node5&#45;&gt;Node3</title>
<path fill="none" stroke="midnightblue" d="M165.319,-19.589C182.794,-24.4719 204.241,-30.4643 222.925,-35.685"/>
<polygon fill="midnightblue" stroke="midnightblue" points="222.119,-39.0938 232.692,-38.4141 224.003,-32.3521 222.119,-39.0938"/>
</g>
</g>
</svg>
