<?xml version="1.0" encoding="UTF-8" standalone="no"?>
<!DOCTYPE svg PUBLIC "-//W3C//DTD SVG 1.1//EN"
 "http://www.w3.org/Graphics/SVG/1.1/DTD/svg11.dtd">
<!-- Generated by graphviz version 2.44.0 ()
 -->
<!-- Title: main Pages: 1 -->
<svg width="370pt" height="180pt"
 viewBox="0.00 0.00 370.00 180.00" xmlns="http://www.w3.org/2000/svg" xmlns:xlink="http://www.w3.org/1999/xlink">
<g id="graph0" class="graph" transform="scale(1 1) rotate(0) translate(4 176)">
<title>main</title>
<polygon fill="white" stroke="transparent" points="-4,4 -4,-176 366,-176 366,4 -4,4"/>
<!-- Node1 -->
<g id="node1" class="node">
<title>Node1</title>
<g id="a_node1"><a xlink:title="Main function.">
<polygon fill="#bfbfbf" stroke="black" points="0,-76.5 0,-95.5 38,-95.5 38,-76.5 0,-76.5"/>
<text text-anchor="middle" x="19" y="-83.5" font-family="Helvetica,sans-Serif" font-size="10.00">main</text>
</a>
</g>
</g>
<!-- Node2 -->
<g id="node2" class="node">
<title>Node2</title>
<g id="a_node2"><a xlink:href="classTijdstip.html#a5d541994f0d9d2c93d9d5069ff2a9b88" target="_top" xlink:title="Het ingeven van een tijdStip.">
<polygon fill="white" stroke="black" points="89.5,-152.5 89.5,-171.5 188.5,-171.5 188.5,-152.5 89.5,-152.5"/>
<text text-anchor="middle" x="139" y="-159.5" font-family="Helvetica,sans-Serif" font-size="10.00">Tijdstip::setTijdStip</text>
</a>
</g>
</g>
<!-- Node1&#45;&gt;Node2 -->
<g id="edge1" class="edge">
<title>Node1&#45;&gt;Node2</title>
<path fill="none" stroke="midnightblue" d="M26.53,-95.54C35.7,-108.21 53.55,-130.45 74,-143 77.4,-145.09 81.05,-146.96 84.81,-148.63"/>
<polygon fill="midnightblue" stroke="midnightblue" points="83.75,-151.98 94.33,-152.4 86.32,-145.47 83.75,-151.98"/>
</g>
<!-- Node3 -->
<g id="node3" class="node">
<title>Node3</title>
<g id="a_node3"><a xlink:href="classTijdstip.html#a30a010b20c1bb85577a57efb71b00144" target="_top" xlink:title="Tijdstip gerepresenteerd als een string in format uu:mm:ss.">
<polygon fill="white" stroke="black" points="96,-114.5 96,-133.5 182,-133.5 182,-114.5 96,-114.5"/>
<text text-anchor="middle" x="139" y="-121.5" font-family="Helvetica,sans-Serif" font-size="10.00">Tijdstip::toString</text>
</a>
</g>
</g>
<!-- Node1&#45;&gt;Node3 -->
<g id="edge2" class="edge">
<title>Node1&#45;&gt;Node3</title>
<path fill="none" stroke="midnightblue" d="M38.42,-92.74C48.82,-96.48 62.09,-101.14 74,-105 80.67,-107.16 87.76,-109.36 94.69,-111.46"/>
<polygon fill="midnightblue" stroke="midnightblue" points="94.1,-114.94 104.69,-114.45 96.11,-108.23 94.1,-114.94"/>
</g>
<!-- Node5 -->
<g id="node5" class="node">
<title>Node5</title>
<g id="a_node5"><a xlink:href="classTijdstip.html#a30eb38d591bb1ddd0b591e39299dcd41" target="_top" xlink:title="Het verstrijken van een minuut">
<polygon fill="white" stroke="black" points="78.5,-76.5 78.5,-95.5 199.5,-95.5 199.5,-76.5 78.5,-76.5"/>
<text text-anchor="middle" x="139" y="-83.5" font-family="Helvetica,sans-Serif" font-size="10.00">Tijdstip::volgendeMinuut</text>
</a>
</g>
</g>
<!-- Node1&#45;&gt;Node5 -->
<g id="edge4" class="edge">
<title>Node1&#45;&gt;Node5</title>
<path fill="none" stroke="midnightblue" d="M38.18,-86C46.54,-86 57.06,-86 68.1,-86"/>
<polygon fill="midnightblue" stroke="midnightblue" points="68.34,-89.5 78.34,-86 68.34,-82.5 68.34,-89.5"/>
</g>
<!-- Node6 -->
<g id="node6" class="node">
<title>Node6</title>
<g id="a_node6"><a xlink:href="classTijdstip.html#a39c1cb75608a1150a29760187b7b7a51" target="_top" xlink:title="Het verstrijken van een seconde.">
<polygon fill="white" stroke="black" points="74,-38.5 74,-57.5 204,-57.5 204,-38.5 74,-38.5"/>
<text text-anchor="middle" x="139" y="-45.5" font-family="Helvetica,sans-Serif" font-size="10.00">Tijdstip::volgendeSeconde</text>
</a>
</g>
</g>
<!-- Node1&#45;&gt;Node6 -->
<g id="edge5" class="edge">
<title>Node1&#45;&gt;Node6</title>
<path fill="none" stroke="midnightblue" d="M38.42,-79.26C48.82,-75.52 62.09,-70.86 74,-67 80.67,-64.84 87.76,-62.64 94.69,-60.54"/>
<polygon fill="midnightblue" stroke="midnightblue" points="96.11,-63.77 104.69,-57.55 94.1,-57.06 96.11,-63.77"/>
</g>
<!-- Node7 -->
<g id="node7" class="node">
<title>Node7</title>
<g id="a_node7"><a xlink:href="classTijdstip.html#a5c3c767eadb6fa0fe5e87b5361c73ca0" target="_top" xlink:title="Het verstrijken van een uur in 24&#45;uurs format.">
<polygon fill="white" stroke="black" points="88,-0.5 88,-19.5 190,-19.5 190,-0.5 88,-0.5"/>
<text text-anchor="middle" x="139" y="-7.5" font-family="Helvetica,sans-Serif" font-size="10.00">Tijdstip::volgendUur</text>
</a>
</g>
</g>
<!-- Node1&#45;&gt;Node7 -->
<g id="edge6" class="edge">
<title>Node1&#45;&gt;Node7</title>
<path fill="none" stroke="midnightblue" d="M26.53,-76.46C35.7,-63.79 53.55,-41.55 74,-29 77.4,-26.91 81.05,-25.04 84.81,-23.37"/>
<polygon fill="midnightblue" stroke="midnightblue" points="86.32,-26.53 94.33,-19.6 83.75,-20.02 86.32,-26.53"/>
</g>
<!-- Node4 -->
<g id="node4" class="node">
<title>Node4</title>
<g id="a_node4"><a xlink:href="classTijdstip.html#af62dd17a0af7c5784c727fd3e6b8879e" target="_top" xlink:title="voegt een &#39;0&#39;&#45;character toe voor i &lt; 10">
<polygon fill="white" stroke="black" points="240,-114.5 240,-133.5 362,-133.5 362,-114.5 240,-114.5"/>
<text text-anchor="middle" x="301" y="-121.5" font-family="Helvetica,sans-Serif" font-size="10.00">Tijdstip::addLeadingZero</text>
</a>
</g>
</g>
<!-- Node3&#45;&gt;Node4 -->
<g id="edge3" class="edge">
<title>Node3&#45;&gt;Node4</title>
<path fill="none" stroke="midnightblue" d="M182.04,-124C196.68,-124 213.54,-124 229.84,-124"/>
<polygon fill="midnightblue" stroke="midnightblue" points="229.89,-127.5 239.89,-124 229.89,-120.5 229.89,-127.5"/>
</g>
</g>
</svg>
