<?xml version="1.0" encoding="UTF-8" standalone="no"?>
<!DOCTYPE svg PUBLIC "-//W3C//DTD SVG 1.1//EN"
 "http://www.w3.org/Graphics/SVG/1.1/DTD/svg11.dtd">
<!-- Generated by graphviz version 2.38.0 (20140413.2041)
 -->
<!-- Title: Hoofdstuk 9 Pages: 1 -->
<svg width="297pt" height="66pt"
 viewBox="0.00 0.00 297.00 66.00" xmlns="http://www.w3.org/2000/svg" xmlns:xlink="http://www.w3.org/1999/xlink">
<g id="graph0" class="graph" transform="scale(1 1) rotate(0) translate(4 62)">
<title>Hoofdstuk 9</title>
<polygon fill="white" stroke="none" points="-4,4 -4,-62 293,-62 293,4 -4,4"/>
<!-- Node0 -->
<g id="node1" class="node"><title>Node0</title>
<polygon fill="#bfbfbf" stroke="black" points="109,-19.5 109,-38.5 183,-38.5 183,-19.5 109,-19.5"/>
<text text-anchor="middle" x="146" y="-26.5" font-family="Helvetica,sans-Serif" font-size="10.00">Hoofdstuk 9</text>
</g>
<!-- Node2 -->
<g id="node3" class="node"><title>Node2</title>
<g id="a_node3"><a xlink:href="group__HFST91.html" target="_top" xlink:title="Opdracht 1. ">
<polygon fill="white" stroke="black" points="219,-38.5 219,-57.5 289,-57.5 289,-38.5 219,-38.5"/>
<text text-anchor="middle" x="254" y="-45.5" font-family="Helvetica,sans-Serif" font-size="10.00">Opdracht 1</text>
</a>
</g>
</g>
<!-- Node0&#45;&gt;Node2 -->
<g id="edge2" class="edge"><title>Node0&#45;&gt;Node2</title>
<path fill="none" stroke="black" d="M193.123,-37.2674C201.735,-38.811 210.593,-40.3988 218.768,-41.864"/>
<polygon fill="black" stroke="black" points="193.643,-33.8049 183.183,-35.4856 192.408,-40.6951 193.643,-33.8049"/>
</g>
<!-- Node3 -->
<g id="node4" class="node"><title>Node3</title>
<g id="a_node4"><a xlink:href="group__HFST92.html" target="_top" xlink:title="Opdrachten 2. ">
<polygon fill="white" stroke="black" points="219,-0.5 219,-19.5 289,-19.5 289,-0.5 219,-0.5"/>
<text text-anchor="middle" x="254" y="-7.5" font-family="Helvetica,sans-Serif" font-size="10.00">Opdracht 2</text>
</a>
</g>
</g>
<!-- Node0&#45;&gt;Node3 -->
<g id="edge3" class="edge"><title>Node0&#45;&gt;Node3</title>
<path fill="none" stroke="black" d="M193.123,-20.7326C201.735,-19.189 210.593,-17.6012 218.768,-16.136"/>
<polygon fill="black" stroke="black" points="192.408,-17.3049 183.183,-22.5144 193.643,-24.1951 192.408,-17.3049"/>
</g>
<!-- Node1 -->
<g id="node2" class="node"><title>Node1</title>
<g id="a_node2"><a xlink:href="group__boek.html" target="_top" xlink:title="Alle in te leveren opgaven uit het boek. ">
<polygon fill="white" stroke="black" points="0,-19.5 0,-38.5 73,-38.5 73,-19.5 0,-19.5"/>
<text text-anchor="middle" x="36.5" y="-26.5" font-family="Helvetica,sans-Serif" font-size="10.00">Opdrachten</text>
</a>
</g>
</g>
<!-- Node1&#45;&gt;Node0 -->
<g id="edge1" class="edge"><title>Node1&#45;&gt;Node0</title>
<path fill="none" stroke="black" d="M83.5038,-29C92.029,-29 100.82,-29 108.994,-29"/>
<polygon fill="black" stroke="black" points="83.296,-25.5001 73.2959,-29 83.2959,-32.5001 83.296,-25.5001"/>
</g>
</g>
</svg>
