<?xml version="1.0" encoding="UTF-8" standalone="no"?>
<!DOCTYPE svg PUBLIC "-//W3C//DTD SVG 1.1//EN"
 "http://www.w3.org/Graphics/SVG/1.1/DTD/svg11.dtd">
<!-- Generated by graphviz version 2.38.0 (20140413.2041)
 -->
<!-- Title: Opdracht 1 Pages: 1 -->
<svg width="340pt" height="29pt"
 viewBox="0.00 0.00 340.00 29.00" xmlns="http://www.w3.org/2000/svg" xmlns:xlink="http://www.w3.org/1999/xlink">
<g id="graph0" class="graph" transform="scale(1 1) rotate(0) translate(4 25)">
<title>Opdracht 1</title>
<polygon fill="white" stroke="none" points="-4,4 -4,-25 336,-25 336,4 -4,4"/>
<!-- Node1 -->
<g id="node1" class="node"><title>Node1</title>
<g id="a_node1"><a xlink:href="group__HFST7.html" target="_top" xlink:title="Opdrachten van Hoofdstuk 7. ">
<polygon fill="white" stroke="black" points="0,-0.5 0,-19.5 74,-19.5 74,-0.5 0,-0.5"/>
<text text-anchor="middle" x="37" y="-7.5" font-family="Helvetica,sans-Serif" font-size="10.00">Hoofdstuk 7</text>
</a>
</g>
</g>
<!-- Node0 -->
<g id="node3" class="node"><title>Node0</title>
<polygon fill="#bfbfbf" stroke="black" points="111,-0.5 111,-19.5 181,-19.5 181,-0.5 111,-0.5"/>
<text text-anchor="middle" x="146" y="-7.5" font-family="Helvetica,sans-Serif" font-size="10.00">Opdracht 1</text>
</g>
<!-- Node1&#45;&gt;Node0 -->
<g id="edge1" class="edge"><title>Node1&#45;&gt;Node0</title>
<path fill="none" stroke="black" d="M84.4935,-10C93.395,-10 102.56,-10 110.979,-10"/>
<polygon fill="black" stroke="black" points="84.2254,-6.5001 74.2253,-10 84.2253,-13.5001 84.2254,-6.5001"/>
</g>
<!-- Node2 -->
<g id="node2" class="node"><title>Node2</title>
<g id="a_node2"><a xlink:href="group__HFST62.html" target="_top" xlink:title="Opdrachten 5 &amp; 6. ">
<polygon fill="white" stroke="black" points="242,-0.5 242,-19.5 332,-19.5 332,-0.5 242,-0.5"/>
<text text-anchor="middle" x="287" y="-7.5" font-family="Helvetica,sans-Serif" font-size="10.00">Opdracht 5 &amp; 6</text>
</a>
</g>
</g>
<!-- Node0&#45;&gt;Node2 -->
<g id="edge2" class="edge"><title>Node0&#45;&gt;Node2</title>
<path fill="none" stroke="orange" stroke-dasharray="5,2" d="M181.003,-10C199.328,-10 222.154,-10 241.838,-10"/>
<text text-anchor="middle" x="211.5" y="-13" font-family="Helvetica,sans-Serif" font-size="10.00">Teller</text>
</g>
</g>
</svg>
