<?xml version="1.0" encoding="UTF-8" standalone="no"?>
<!DOCTYPE svg PUBLIC "-//W3C//DTD SVG 1.1//EN"
 "http://www.w3.org/Graphics/SVG/1.1/DTD/svg11.dtd">
<!-- Generated by graphviz version 2.38.0 (20140413.2041)
 -->
<!-- Title: Opdrachten Pages: 1 -->
<svg width="191pt" height="104pt"
 viewBox="0.00 0.00 191.00 104.00" xmlns="http://www.w3.org/2000/svg" xmlns:xlink="http://www.w3.org/1999/xlink">
<g id="graph0" class="graph" transform="scale(1 1) rotate(0) translate(4 100)">
<title>Opdrachten</title>
<polygon fill="white" stroke="none" points="-4,4 -4,-100 187,-100 187,4 -4,4"/>
<!-- Node1 -->
<g id="node1" class="node"><title>Node1</title>
<g id="a_node1"><a xlink:href="group__HFST6.html" target="_top" xlink:title="Opdrachten van Hoofdstuk 6. ">
<polygon fill="white" stroke="black" points="109,-76.5 109,-95.5 183,-95.5 183,-76.5 109,-76.5"/>
<text text-anchor="middle" x="146" y="-83.5" font-family="Helvetica,sans-Serif" font-size="10.00">Hoofdstuk 6</text>
</a>
</g>
</g>
<!-- Node2 -->
<g id="node2" class="node"><title>Node2</title>
<g id="a_node2"><a xlink:href="group__HFST7.html" target="_top" xlink:title="Opdrachten van Hoofdstuk 7. ">
<polygon fill="white" stroke="black" points="109,-38.5 109,-57.5 183,-57.5 183,-38.5 109,-38.5"/>
<text text-anchor="middle" x="146" y="-45.5" font-family="Helvetica,sans-Serif" font-size="10.00">Hoofdstuk 7</text>
</a>
</g>
</g>
<!-- Node3 -->
<g id="node3" class="node"><title>Node3</title>
<g id="a_node3"><a xlink:href="group__HFST9.html" target="_top" xlink:title="Opdrachten van Hoofdstuk9. ">
<polygon fill="white" stroke="black" points="109,-0.5 109,-19.5 183,-19.5 183,-0.5 109,-0.5"/>
<text text-anchor="middle" x="146" y="-7.5" font-family="Helvetica,sans-Serif" font-size="10.00">Hoofdstuk 9</text>
</a>
</g>
</g>
<!-- Node0 -->
<g id="node4" class="node"><title>Node0</title>
<polygon fill="#bfbfbf" stroke="black" points="0,-38.5 0,-57.5 73,-57.5 73,-38.5 0,-38.5"/>
<text text-anchor="middle" x="36.5" y="-45.5" font-family="Helvetica,sans-Serif" font-size="10.00">Opdrachten</text>
</g>
<!-- Node0&#45;&gt;Node1 -->
<g id="edge1" class="edge"><title>Node0&#45;&gt;Node1</title>
<path fill="none" stroke="black" d="M74.1965,-60.9718C88.5185,-66.0344 104.642,-71.7341 117.882,-76.4141"/>
<polygon fill="black" stroke="black" points="75.2216,-57.622 64.6268,-57.589 72.8886,-64.2218 75.2216,-57.622"/>
</g>
<!-- Node0&#45;&gt;Node2 -->
<g id="edge2" class="edge"><title>Node0&#45;&gt;Node2</title>
<path fill="none" stroke="black" d="M83.5038,-48C92.029,-48 100.82,-48 108.994,-48"/>
<polygon fill="black" stroke="black" points="83.296,-44.5001 73.2959,-48 83.2959,-51.5001 83.296,-44.5001"/>
</g>
<!-- Node0&#45;&gt;Node3 -->
<g id="edge3" class="edge"><title>Node0&#45;&gt;Node3</title>
<path fill="none" stroke="black" d="M74.1965,-35.0282C88.5185,-29.9656 104.642,-24.2659 117.882,-19.5859"/>
<polygon fill="black" stroke="black" points="72.8886,-31.7782 64.6268,-38.411 75.2216,-38.378 72.8886,-31.7782"/>
</g>
</g>
</svg>
