<?xml version="1.0" encoding="UTF-8" standalone="no"?>
<!DOCTYPE svg PUBLIC "-//W3C//DTD SVG 1.1//EN"
 "http://www.w3.org/Graphics/SVG/1.1/DTD/svg11.dtd">
<!-- Generated by graphviz version 2.44.0 ()
 -->
<!-- Title: main Pages: 1 -->
<svg width="182pt" height="235pt"
 viewBox="0.00 0.00 182.00 235.00" xmlns="http://www.w3.org/2000/svg" xmlns:xlink="http://www.w3.org/1999/xlink">
<g id="graph0" class="graph" transform="scale(1 1) rotate(0) translate(4 231)">
<title>main</title>
<polygon fill="white" stroke="transparent" points="-4,4 -4,-231 178,-231 178,4 -4,4"/>
<!-- Node1 -->
<g id="node1" class="node">
<title>Node1</title>
<g id="a_node1"><a xlink:title="Main function.">
<polygon fill="#bfbfbf" stroke="black" points="0,-104 0,-123 38,-123 38,-104 0,-104"/>
<text text-anchor="middle" x="19" y="-111" font-family="Helvetica,sans-Serif" font-size="10.00">main</text>
</a>
</g>
</g>
<!-- Node2 -->
<g id="node2" class="node">
<title>Node2</title>
<g id="a_node2"><a xlink:href="classCijferAdministratie.html#a9402594d94d41c2baf3ca350e80f249b" target="_top" xlink:title="Toont alle resultaten van een student.">
<polygon fill="white" stroke="black" points="76,-196.5 76,-226.5 172,-226.5 172,-196.5 76,-196.5"/>
<text text-anchor="start" x="84" y="-214.5" font-family="Helvetica,sans-Serif" font-size="10.00">CijferAdministratie</text>
<text text-anchor="middle" x="124" y="-203.5" font-family="Helvetica,sans-Serif" font-size="10.00">::toonResultaten</text>
</a>
</g>
</g>
<!-- Node1&#45;&gt;Node2 -->
<g id="edge1" class="edge">
<title>Node1&#45;&gt;Node2</title>
<path fill="none" stroke="midnightblue" d="M25.09,-123.31C33.49,-138.69 51.58,-168.69 74,-187.5 75.35,-188.63 76.76,-189.72 78.21,-190.78"/>
<polygon fill="midnightblue" stroke="midnightblue" points="76.64,-193.93 86.94,-196.39 80.43,-188.04 76.64,-193.93"/>
</g>
<!-- Node3 -->
<g id="node3" class="node">
<title>Node3</title>
<g id="a_node3"><a xlink:href="classCijferAdministratie.html#a5023ec7e7df1d233b69c2646c0e901ee" target="_top" xlink:title="Toont alle studenten in de cijfer administratie.">
<polygon fill="white" stroke="black" points="76,-147.5 76,-177.5 172,-177.5 172,-147.5 76,-147.5"/>
<text text-anchor="start" x="84" y="-165.5" font-family="Helvetica,sans-Serif" font-size="10.00">CijferAdministratie</text>
<text text-anchor="middle" x="124" y="-154.5" font-family="Helvetica,sans-Serif" font-size="10.00">::toonStudenten</text>
</a>
</g>
</g>
<!-- Node1&#45;&gt;Node3 -->
<g id="edge2" class="edge">
<title>Node1&#45;&gt;Node3</title>
<path fill="none" stroke="midnightblue" d="M38.41,-122.26C50.59,-128.05 67.03,-135.87 82.19,-143.08"/>
<polygon fill="midnightblue" stroke="midnightblue" points="80.87,-146.34 91.41,-147.47 83.88,-140.01 80.87,-146.34"/>
</g>
<!-- Node4 -->
<g id="node4" class="node">
<title>Node4</title>
<g id="a_node4"><a xlink:href="classCijferAdministratie.html#a8d0c3f81c8e64073e7f7aa48f2b6e773" target="_top" xlink:title="Alle gegevens van de cijfer administratie weer gegeven als string.">
<polygon fill="white" stroke="black" points="76,-98.5 76,-128.5 172,-128.5 172,-98.5 76,-98.5"/>
<text text-anchor="start" x="84" y="-116.5" font-family="Helvetica,sans-Serif" font-size="10.00">CijferAdministratie</text>
<text text-anchor="middle" x="124" y="-105.5" font-family="Helvetica,sans-Serif" font-size="10.00">::toString</text>
</a>
</g>
</g>
<!-- Node1&#45;&gt;Node4 -->
<g id="edge3" class="edge">
<title>Node1&#45;&gt;Node4</title>
<path fill="none" stroke="midnightblue" d="M38.41,-113.5C46.14,-113.5 55.6,-113.5 65.35,-113.5"/>
<polygon fill="midnightblue" stroke="midnightblue" points="65.57,-117 75.57,-113.5 65.57,-110 65.57,-117"/>
</g>
<!-- Node5 -->
<g id="node5" class="node">
<title>Node5</title>
<g id="a_node5"><a xlink:href="classCijferAdministratie.html#a9d4f5bedf81ef1db17ae7aa0ba2fdb5d" target="_top" xlink:title="Voegt een tentamen resulataat toe.">
<polygon fill="white" stroke="black" points="74,-49.5 74,-79.5 174,-79.5 174,-49.5 74,-49.5"/>
<text text-anchor="start" x="82" y="-67.5" font-family="Helvetica,sans-Serif" font-size="10.00">CijferAdministratie</text>
<text text-anchor="middle" x="124" y="-56.5" font-family="Helvetica,sans-Serif" font-size="10.00">::voegResultaatToe</text>
</a>
</g>
</g>
<!-- Node1&#45;&gt;Node5 -->
<g id="edge4" class="edge">
<title>Node1&#45;&gt;Node5</title>
<path fill="none" stroke="midnightblue" d="M38.41,-104.74C50.59,-98.95 67.03,-91.13 82.19,-83.92"/>
<polygon fill="midnightblue" stroke="midnightblue" points="83.88,-86.99 91.41,-79.53 80.87,-80.66 83.88,-86.99"/>
</g>
<!-- Node6 -->
<g id="node6" class="node">
<title>Node6</title>
<g id="a_node6"><a xlink:href="classCijferAdministratie.html#aa2cd2ea11e1d3ad6fd02743f127c1677" target="_top" xlink:title="Voegt een student toe aan de cijfer administratie.">
<polygon fill="white" stroke="black" points="76,-0.5 76,-30.5 172,-30.5 172,-0.5 76,-0.5"/>
<text text-anchor="start" x="84" y="-18.5" font-family="Helvetica,sans-Serif" font-size="10.00">CijferAdministratie</text>
<text text-anchor="middle" x="124" y="-7.5" font-family="Helvetica,sans-Serif" font-size="10.00">::voegStudentToe</text>
</a>
</g>
</g>
<!-- Node1&#45;&gt;Node6 -->
<g id="edge5" class="edge">
<title>Node1&#45;&gt;Node6</title>
<path fill="none" stroke="midnightblue" d="M25.16,-103.87C33.65,-88.76 51.87,-59.25 74,-40.5 75.78,-39 77.66,-37.55 79.61,-36.17"/>
<polygon fill="midnightblue" stroke="midnightblue" points="81.94,-38.83 88.5,-30.51 78.19,-32.93 81.94,-38.83"/>
</g>
</g>
</svg>
