<?xml version="1.0" encoding="UTF-8" standalone="no"?>
<!DOCTYPE svg PUBLIC "-//W3C//DTD SVG 1.1//EN"
 "http://www.w3.org/Graphics/SVG/1.1/DTD/svg11.dtd">
<!-- Generated by graphviz version 2.38.0 (20140413.2041)
 -->
<!-- Title: Graphical Class Hierarchy Pages: 1 -->
<svg width="159pt" height="104pt"
 viewBox="0.00 0.00 159.00 104.00" xmlns="http://www.w3.org/2000/svg" xmlns:xlink="http://www.w3.org/1999/xlink">
<g id="graph0" class="graph" transform="scale(1 1) rotate(0) translate(4 100)">
<title>Graphical Class Hierarchy</title>
<polygon fill="white" stroke="none" points="-4,4 -4,-100 155,-100 155,4 -4,4"/>
<!-- Node1 -->
<g id="node1" class="node"><title>Node1</title>
<g id="a_node1"><a xlink:href="classUitgave.html" target="_top" xlink:title="Parent klasse voor een Uitgave. ">
<polygon fill="white" stroke="black" points="0,-38.5 0,-57.5 53,-57.5 53,-38.5 0,-38.5"/>
<text text-anchor="middle" x="26.5" y="-45.5" font-family="Helvetica,sans-Serif" font-size="10.00">Uitgave</text>
</a>
</g>
</g>
<!-- Node2 -->
<g id="node2" class="node"><title>Node2</title>
<g id="a_node2"><a xlink:href="classBlueRay.html" target="_top" xlink:title="Child klasse blueRay, parent: Uitgave. ">
<polygon fill="white" stroke="black" points="92.5,-76.5 92.5,-95.5 147.5,-95.5 147.5,-76.5 92.5,-76.5"/>
<text text-anchor="middle" x="120" y="-83.5" font-family="Helvetica,sans-Serif" font-size="10.00">BlueRay</text>
</a>
</g>
</g>
<!-- Node1&#45;&gt;Node2 -->
<g id="edge1" class="edge"><title>Node1&#45;&gt;Node2</title>
<path fill="none" stroke="midnightblue" d="M60.1478,-61.5587C71.9771,-66.4714 85.0826,-71.9141 95.9181,-76.4141"/>
<polygon fill="midnightblue" stroke="midnightblue" points="61.167,-58.1921 50.5893,-57.589 58.4822,-64.6568 61.167,-58.1921"/>
</g>
<!-- Node3 -->
<g id="node3" class="node"><title>Node3</title>
<g id="a_node3"><a xlink:href="classBoek.html" target="_top" xlink:title="Child klasse boek, parent: Uitgave. ">
<polygon fill="white" stroke="black" points="99.5,-38.5 99.5,-57.5 140.5,-57.5 140.5,-38.5 99.5,-38.5"/>
<text text-anchor="middle" x="120" y="-45.5" font-family="Helvetica,sans-Serif" font-size="10.00">Boek</text>
</a>
</g>
</g>
<!-- Node1&#45;&gt;Node3 -->
<g id="edge2" class="edge"><title>Node1&#45;&gt;Node3</title>
<path fill="none" stroke="midnightblue" d="M63.8072,-48C75.9386,-48 88.9963,-48 99.3639,-48"/>
<polygon fill="midnightblue" stroke="midnightblue" points="63.4755,-44.5001 53.4755,-48 63.4754,-51.5001 63.4755,-44.5001"/>
</g>
<!-- Node4 -->
<g id="node4" class="node"><title>Node4</title>
<g id="a_node4"><a xlink:href="classTijdschrift.html" target="_top" xlink:title="Child klasse Tijdschrift, parent: Uitgave. ">
<polygon fill="white" stroke="black" points="89,-0.5 89,-19.5 151,-19.5 151,-0.5 89,-0.5"/>
<text text-anchor="middle" x="120" y="-7.5" font-family="Helvetica,sans-Serif" font-size="10.00">Tijdschrift</text>
</a>
</g>
</g>
<!-- Node1&#45;&gt;Node4 -->
<g id="edge3" class="edge"><title>Node1&#45;&gt;Node4</title>
<path fill="none" stroke="midnightblue" d="M60.1478,-34.4413C71.9771,-29.5286 85.0826,-24.0859 95.9181,-19.5859"/>
<polygon fill="midnightblue" stroke="midnightblue" points="58.4822,-31.3432 50.5893,-38.411 61.167,-37.8079 58.4822,-31.3432"/>
</g>
</g>
</svg>
