<?xml version="1.0" encoding="UTF-8" standalone="no"?>
<!DOCTYPE svg PUBLIC "-//W3C//DTD SVG 1.1//EN"
 "http://www.w3.org/Graphics/SVG/1.1/DTD/svg11.dtd">
<!-- Generated by graphviz version 2.44.0 ()
 -->
<!-- Title: Graphical Class Hierarchy Pages: 1 -->
<svg width="153pt" height="104pt"
 viewBox="0.00 0.00 153.00 104.00" xmlns="http://www.w3.org/2000/svg" xmlns:xlink="http://www.w3.org/1999/xlink">
<g id="graph0" class="graph" transform="scale(1 1) rotate(0) translate(4 100)">
<title>Graphical Class Hierarchy</title>
<polygon fill="white" stroke="transparent" points="-4,4 -4,-100 149,-100 149,4 -4,4"/>
<!-- Node0 -->
<g id="node1" class="node">
<title>Node0</title>
<g id="a_node1"><a xlink:href="classUitgave.html" target="_top" xlink:title="Parent klasse voor een Uitgave.">
<polygon fill="white" stroke="black" points="0,-38.5 0,-57.5 50,-57.5 50,-38.5 0,-38.5"/>
<text text-anchor="middle" x="25" y="-45.5" font-family="Helvetica,sans-Serif" font-size="10.00">Uitgave</text>
</a>
</g>
</g>
<!-- Node1 -->
<g id="node2" class="node">
<title>Node1</title>
<g id="a_node2"><a xlink:href="classBlueRay.html" target="_top" xlink:title="Child klasse blueRay, parent: Uitgave.">
<polygon fill="white" stroke="black" points="89,-76.5 89,-95.5 142,-95.5 142,-76.5 89,-76.5"/>
<text text-anchor="middle" x="115.5" y="-83.5" font-family="Helvetica,sans-Serif" font-size="10.00">BlueRay</text>
</a>
</g>
</g>
<!-- Node0&#45;&gt;Node1 -->
<g id="edge1" class="edge">
<title>Node0&#45;&gt;Node1</title>
<path fill="none" stroke="midnightblue" d="M57.58,-61.56C69.02,-66.47 81.69,-71.91 92.17,-76.41"/>
<polygon fill="midnightblue" stroke="midnightblue" points="58.9,-58.32 48.33,-57.59 56.14,-64.75 58.9,-58.32"/>
</g>
<!-- Node2 -->
<g id="node3" class="node">
<title>Node2</title>
<g id="a_node3"><a xlink:href="classBoek.html" target="_top" xlink:title="Child klasse boek, parent: Uitgave.">
<polygon fill="white" stroke="black" points="96,-38.5 96,-57.5 135,-57.5 135,-38.5 96,-38.5"/>
<text text-anchor="middle" x="115.5" y="-45.5" font-family="Helvetica,sans-Serif" font-size="10.00">Boek</text>
</a>
</g>
</g>
<!-- Node0&#45;&gt;Node2 -->
<g id="edge2" class="edge">
<title>Node0&#45;&gt;Node2</title>
<path fill="none" stroke="midnightblue" d="M60.45,-48C72.55,-48 85.67,-48 95.96,-48"/>
<polygon fill="midnightblue" stroke="midnightblue" points="60.18,-44.5 50.18,-48 60.18,-51.5 60.18,-44.5"/>
</g>
<!-- Node3 -->
<g id="node4" class="node">
<title>Node3</title>
<g id="a_node4"><a xlink:href="classTijdschrift.html" target="_top" xlink:title="Child klasse Tijdschrift, parent: Uitgave.">
<polygon fill="white" stroke="black" points="86,-0.5 86,-19.5 145,-19.5 145,-0.5 86,-0.5"/>
<text text-anchor="middle" x="115.5" y="-7.5" font-family="Helvetica,sans-Serif" font-size="10.00">Tijdschrift</text>
</a>
</g>
</g>
<!-- Node0&#45;&gt;Node3 -->
<g id="edge3" class="edge">
<title>Node0&#45;&gt;Node3</title>
<path fill="none" stroke="midnightblue" d="M57.58,-34.44C69.02,-29.53 81.69,-24.09 92.17,-19.59"/>
<polygon fill="midnightblue" stroke="midnightblue" points="56.14,-31.25 48.33,-38.41 58.9,-37.68 56.14,-31.25"/>
</g>
</g>
</svg>
