<?xml version="1.0" encoding="UTF-8" standalone="no"?>
<!DOCTYPE svg PUBLIC "-//W3C//DTD SVG 1.1//EN"
 "http://www.w3.org/Graphics/SVG/1.1/DTD/svg11.dtd">
<!-- Generated by graphviz version 2.47.1 (20210417.1919)
 -->
<!-- Title: main Pages: 1 -->
<svg width="284pt" height="256pt"
 viewBox="0.00 0.00 284.00 256.00" xmlns="http://www.w3.org/2000/svg" xmlns:xlink="http://www.w3.org/1999/xlink">
<g id="graph0" class="graph" transform="scale(1 1) rotate(0) translate(4 252)">
<title>main</title>
<polygon fill="white" stroke="transparent" points="-4,4 -4,-252 280,-252 280,4 -4,4"/>
<!-- Node1 -->
<g id="node1" class="node">
<title>Node1</title>
<g id="a_node1"><a xlink:title="Main function.">
<polygon fill="#bfbfbf" stroke="black" points="0,-114.5 0,-133.5 38,-133.5 38,-114.5 0,-114.5"/>
<text text-anchor="middle" x="19" y="-121.5" font-family="Helvetica,sans-Serif" font-size="10.00">main</text>
</a>
</g>
</g>
<!-- Node2 -->
<g id="node2" class="node">
<title>Node2</title>
<g id="a_node2"><a xlink:href="../../da/d18/class_teller.html#a8434a2f74e7cd10eaa63804afe3dfeb8" target="_top" xlink:title="Verkrijgt de waarde van de teller.">
<polygon fill="white" stroke="black" points="193,-209.5 193,-228.5 276,-228.5 276,-209.5 193,-209.5"/>
<text text-anchor="middle" x="234.5" y="-216.5" font-family="Helvetica,sans-Serif" font-size="10.00">Teller::getTeller</text>
</a>
</g>
</g>
<!-- Node1&#45;&gt;Node2 -->
<g id="edge1" class="edge">
<title>Node1&#45;&gt;Node2</title>
<path fill="none" stroke="midnightblue" d="M26.44,-133.71C35.49,-146.57 53.22,-169.01 74,-181 107.26,-200.19 149.76,-209.7 182.52,-214.41"/>
<polygon fill="midnightblue" stroke="midnightblue" points="182.42,-217.93 192.79,-215.78 183.34,-210.99 182.42,-217.93"/>
</g>
<!-- Node3 -->
<g id="node3" class="node">
<title>Node3</title>
<g id="a_node3"><a xlink:href="../../d3/d11/class_m_v.html#a84a130f8a362fb391911672befb361e3" target="_top" xlink:title="Verhoog de mannen teller met een.">
<polygon fill="white" stroke="black" points="87.5,-152.5 87.5,-171.5 143.5,-171.5 143.5,-152.5 87.5,-152.5"/>
<text text-anchor="middle" x="115.5" y="-159.5" font-family="Helvetica,sans-Serif" font-size="10.00">MV::man</text>
</a>
</g>
</g>
<!-- Node1&#45;&gt;Node3 -->
<g id="edge2" class="edge">
<title>Node1&#45;&gt;Node3</title>
<path fill="none" stroke="midnightblue" d="M38.22,-131.33C50.34,-136.2 66.61,-142.74 81.01,-148.53"/>
<polygon fill="midnightblue" stroke="midnightblue" points="80.02,-151.91 90.61,-152.39 82.64,-145.41 80.02,-151.91"/>
</g>
<!-- Node4 -->
<g id="node4" class="node">
<title>Node4</title>
<g id="a_node4"><a xlink:href="../../da/d18/class_teller.html#a2c301f440b0e059aa1a29d8dc3c55f24" target="_top" xlink:title="Verhoogt de waarde van de teller met 1.">
<polygon fill="white" stroke="black" points="195,-76.5 195,-95.5 274,-95.5 274,-76.5 195,-76.5"/>
<text text-anchor="middle" x="234.5" y="-83.5" font-family="Helvetica,sans-Serif" font-size="10.00">Teller::verhoog</text>
</a>
</g>
</g>
<!-- Node1&#45;&gt;Node4 -->
<g id="edge7" class="edge">
<title>Node1&#45;&gt;Node4</title>
<path fill="none" stroke="midnightblue" d="M38.2,-116.47C48.53,-112.48 61.8,-107.84 74,-105 110.48,-96.52 152.59,-91.71 184.38,-89.05"/>
<polygon fill="midnightblue" stroke="midnightblue" points="185.05,-92.51 194.74,-88.23 184.49,-85.53 185.05,-92.51"/>
</g>
<!-- Node5 -->
<g id="node5" class="node">
<title>Node5</title>
<g id="a_node5"><a xlink:href="../../da/d18/class_teller.html#a2bc91fcb36cb8e81eaacf531463cc3fb" target="_top" xlink:title="Zet de waarde van de teller.">
<polygon fill="white" stroke="black" points="74,-114.5 74,-133.5 157,-133.5 157,-114.5 74,-114.5"/>
<text text-anchor="middle" x="115.5" y="-121.5" font-family="Helvetica,sans-Serif" font-size="10.00">Teller::setTeller</text>
</a>
</g>
</g>
<!-- Node1&#45;&gt;Node5 -->
<g id="edge4" class="edge">
<title>Node1&#45;&gt;Node5</title>
<path fill="none" stroke="midnightblue" d="M38.22,-124C45.55,-124 54.39,-124 63.43,-124"/>
<polygon fill="midnightblue" stroke="midnightblue" points="63.63,-127.5 73.63,-124 63.63,-120.5 63.63,-127.5"/>
</g>
<!-- Node6 -->
<g id="node6" class="node">
<title>Node6</title>
<g id="a_node6"><a xlink:href="../../d3/d11/class_m_v.html#a50f872cc3aa7f47440910cce5ebaa84f" target="_top" xlink:title="Weergave van beide tellers.">
<polygon fill="white" stroke="black" points="80,-228.5 80,-247.5 151,-247.5 151,-228.5 80,-228.5"/>
<text text-anchor="middle" x="115.5" y="-235.5" font-family="Helvetica,sans-Serif" font-size="10.00">MV::toString</text>
</a>
</g>
</g>
<!-- Node1&#45;&gt;Node6 -->
<g id="edge5" class="edge">
<title>Node1&#45;&gt;Node6</title>
<path fill="none" stroke="midnightblue" d="M23.9,-133.71C31.41,-151.44 49.32,-189.46 74,-214 77.28,-217.27 81.1,-220.26 85.05,-222.95"/>
<polygon fill="midnightblue" stroke="midnightblue" points="83.4,-226.04 93.75,-228.31 87.08,-220.09 83.4,-226.04"/>
</g>
<!-- Node7 -->
<g id="node7" class="node">
<title>Node7</title>
<g id="a_node7"><a xlink:href="../../da/d18/class_teller.html#adf506891a49824fad0ac2982a80bf38d" target="_top" xlink:title="Verlaagt de waarde van de teller met 1.">
<polygon fill="white" stroke="black" points="77.5,-38.5 77.5,-57.5 153.5,-57.5 153.5,-38.5 77.5,-38.5"/>
<text text-anchor="middle" x="115.5" y="-45.5" font-family="Helvetica,sans-Serif" font-size="10.00">Teller::verlaag</text>
</a>
</g>
</g>
<!-- Node1&#45;&gt;Node7 -->
<g id="edge8" class="edge">
<title>Node1&#45;&gt;Node7</title>
<path fill="none" stroke="midnightblue" d="M28.59,-114.49C38.78,-103.5 56.6,-85.25 74,-72 78.2,-68.8 82.86,-65.69 87.48,-62.82"/>
<polygon fill="midnightblue" stroke="midnightblue" points="89.37,-65.77 96.18,-57.66 85.79,-59.75 89.37,-65.77"/>
</g>
<!-- Node8 -->
<g id="node8" class="node">
<title>Node8</title>
<g id="a_node8"><a xlink:href="../../d3/d11/class_m_v.html#a801098843a7701229ddc4fae1505fb9d" target="_top" xlink:title="Verhoog de vrouwen teller met een.">
<polygon fill="white" stroke="black" points="84.5,-0.5 84.5,-19.5 146.5,-19.5 146.5,-0.5 84.5,-0.5"/>
<text text-anchor="middle" x="115.5" y="-7.5" font-family="Helvetica,sans-Serif" font-size="10.00">MV::vrouw</text>
</a>
</g>
</g>
<!-- Node1&#45;&gt;Node8 -->
<g id="edge9" class="edge">
<title>Node1&#45;&gt;Node8</title>
<path fill="none" stroke="midnightblue" d="M23.21,-114.38C29.9,-95.66 46.98,-53.99 74,-29 75.5,-27.62 77.11,-26.32 78.81,-25.1"/>
<polygon fill="midnightblue" stroke="midnightblue" points="81.02,-27.85 87.75,-19.67 77.39,-21.87 81.02,-27.85"/>
</g>
<!-- Node3&#45;&gt;Node4 -->
<g id="edge3" class="edge">
<title>Node3&#45;&gt;Node4</title>
<path fill="none" stroke="midnightblue" d="M139.2,-152.33C145.12,-149.55 151.4,-146.35 157,-143 177.43,-130.77 199.04,-114.29 214.07,-102.2"/>
<polygon fill="midnightblue" stroke="midnightblue" points="216.55,-104.69 222.09,-95.66 212.13,-99.27 216.55,-104.69"/>
</g>
<!-- Node6&#45;&gt;Node2 -->
<g id="edge6" class="edge">
<title>Node6&#45;&gt;Node2</title>
<path fill="none" stroke="midnightblue" d="M151.29,-232.35C161.19,-230.74 172.18,-228.96 182.83,-227.23"/>
<polygon fill="midnightblue" stroke="midnightblue" points="183.57,-230.65 192.88,-225.6 182.44,-223.75 183.57,-230.65"/>
</g>
<!-- Node8&#45;&gt;Node4 -->
<g id="edge10" class="edge">
<title>Node8&#45;&gt;Node4</title>
<path fill="none" stroke="midnightblue" d="M139.2,-19.67C145.12,-22.45 151.4,-25.65 157,-29 177.43,-41.23 199.04,-57.71 214.07,-69.8"/>
<polygon fill="midnightblue" stroke="midnightblue" points="212.13,-72.73 222.09,-76.34 216.55,-67.31 212.13,-72.73"/>
</g>
</g>
</svg>
