<?xml version="1.0" encoding="UTF-8" standalone="no"?>
<!DOCTYPE svg PUBLIC "-//W3C//DTD SVG 1.1//EN"
 "http://www.w3.org/Graphics/SVG/1.1/DTD/svg11.dtd">
<!-- Generated by graphviz version 2.47.1 (20210417.1919)
 -->
<!-- Title: Opdracht 5 &amp; 6 Pages: 1 -->
<svg width="321pt" height="29pt"
 viewBox="0.00 0.00 321.00 28.50" xmlns="http://www.w3.org/2000/svg" xmlns:xlink="http://www.w3.org/1999/xlink">
<g id="graph0" class="graph" transform="scale(1 1) rotate(0) translate(4 24.5)">
<title>Opdracht 5 &amp; 6</title>
<polygon fill="white" stroke="transparent" points="-4,4 -4,-24.5 317,-24.5 317,4 -4,4"/>
<!-- Node2 -->
<g id="node1" class="node">
<title>Node2</title>
<g id="a_node1"><a xlink:href="../../dc/d5a/group___h_f_s_t6.html" target="_top" xlink:title="Opdrachten van Hoofdstuk 6.">
<polygon fill="white" stroke="black" points="68,-19 0,-19 0,0 68,0 68,-19"/>
<text text-anchor="middle" x="34" y="-7" font-family="Helvetica,sans-Serif" font-size="10.00">Hoofdstuk 6</text>
</a>
</g>
</g>
<!-- Node1 -->
<g id="node2" class="node">
<title>Node1</title>
<g id="a_node2"><a xlink:title="Opdrachten 5 &amp; 6.">
<polygon fill="#bfbfbf" stroke="black" points="188,-19 105,-19 105,0 188,0 188,-19"/>
<text text-anchor="middle" x="146.5" y="-7" font-family="Helvetica,sans-Serif" font-size="10.00">Opdracht 5 &amp; 6</text>
</a>
</g>
</g>
<!-- Node2&#45;&gt;Node1 -->
<g id="edge1" class="edge">
<title>Node2&#45;&gt;Node1</title>
<path fill="none" stroke="black" d="M78.23,-9.5C87.02,-9.5 96.25,-9.5 104.94,-9.5"/>
<polygon fill="black" stroke="black" points="78.15,-6 68.15,-9.5 78.15,-13 78.15,-6"/>
</g>
<!-- Node3 -->
<g id="node3" class="node">
<title>Node3</title>
<g id="a_node3"><a xlink:href="../../d2/dc9/group___h_f_s_t71.html" target="_top" xlink:title="Opdracht 1.">
<polygon fill="white" stroke="black" points="313,-19 248,-19 248,0 313,0 313,-19"/>
<text text-anchor="middle" x="280.5" y="-7" font-family="Helvetica,sans-Serif" font-size="10.00">Opdracht 1</text>
</a>
</g>
</g>
<!-- Node1&#45;&gt;Node3 -->
<g id="edge2" class="edge">
<title>Node1&#45;&gt;Node3</title>
<path fill="none" stroke="orange" stroke-dasharray="5,2" d="M188.18,-9.5C207.42,-9.5 230.05,-9.5 247.96,-9.5"/>
<text text-anchor="middle" x="218" y="-12.5" font-family="Helvetica,sans-Serif" font-size="10.00">Teller</text>
</g>
</g>
</svg>
