<?xml version="1.0" encoding="UTF-8" standalone="no"?>
<!DOCTYPE svg PUBLIC "-//W3C//DTD SVG 1.1//EN"
 "http://www.w3.org/Graphics/SVG/1.1/DTD/svg11.dtd">
<!-- Generated by graphviz version 2.47.1 (20210417.1919)
 -->
<!-- Title: main Pages: 1 -->
<svg width="322pt" height="142pt"
 viewBox="0.00 0.00 322.00 142.00" xmlns="http://www.w3.org/2000/svg" xmlns:xlink="http://www.w3.org/1999/xlink">
<g id="graph0" class="graph" transform="scale(1 1) rotate(0) translate(4 138)">
<title>main</title>
<polygon fill="white" stroke="transparent" points="-4,4 -4,-138 318,-138 318,4 -4,4"/>
<!-- Node1 -->
<g id="node1" class="node">
<title>Node1</title>
<g id="a_node1"><a xlink:title="Main function.">
<polygon fill="#bfbfbf" stroke="black" points="0,-57.5 0,-76.5 38,-76.5 38,-57.5 0,-57.5"/>
<text text-anchor="middle" x="19" y="-64.5" font-family="Helvetica,sans-Serif" font-size="10.00">main</text>
</a>
</g>
</g>
<!-- Node2 -->
<g id="node2" class="node">
<title>Node2</title>
<g id="a_node2"><a xlink:href="../../db/de7/class_wedstrijd.html#a5b0dc4d5ad9bdc2ac84f1a9b6a8e8465" target="_top" xlink:title="Team 1 scoort een punt.">
<polygon fill="white" stroke="black" points="88,-114.5 88,-133.5 179,-133.5 179,-114.5 88,-114.5"/>
<text text-anchor="middle" x="133.5" y="-121.5" font-family="Helvetica,sans-Serif" font-size="10.00">Wedstrijd::team1</text>
</a>
</g>
</g>
<!-- Node1&#45;&gt;Node2 -->
<g id="edge1" class="edge">
<title>Node1&#45;&gt;Node2</title>
<path fill="none" stroke="midnightblue" d="M31.37,-76.53C41.88,-84.96 58.21,-97.11 74,-105 78.31,-107.15 82.92,-109.14 87.59,-110.95"/>
<polygon fill="midnightblue" stroke="midnightblue" points="86.58,-114.31 97.17,-114.41 88.96,-107.72 86.58,-114.31"/>
</g>
<!-- Node4 -->
<g id="node4" class="node">
<title>Node4</title>
<g id="a_node4"><a xlink:href="../../d1/d35/class_team.html#ada4f595ee6904dbeabf6dfba87b74d2c" target="_top" xlink:title="Alle gegevens van het team weer gegeven als string.">
<polygon fill="white" stroke="black" points="93.5,-76.5 93.5,-95.5 173.5,-95.5 173.5,-76.5 93.5,-76.5"/>
<text text-anchor="middle" x="133.5" y="-83.5" font-family="Helvetica,sans-Serif" font-size="10.00">Team::toString</text>
</a>
</g>
</g>
<!-- Node1&#45;&gt;Node4 -->
<g id="edge3" class="edge">
<title>Node1&#45;&gt;Node4</title>
<path fill="none" stroke="midnightblue" d="M38.08,-70.05C50.42,-72.14 67.41,-75.01 83.58,-77.74"/>
<polygon fill="midnightblue" stroke="midnightblue" points="83.05,-81.2 93.49,-79.41 84.21,-74.29 83.05,-81.2"/>
</g>
<!-- Node5 -->
<g id="node5" class="node">
<title>Node5</title>
<g id="a_node5"><a xlink:href="../../db/de7/class_wedstrijd.html#a7947a3a0c84536131cde838fafbf3344" target="_top" xlink:title="Alle gegevens van de wedstrijd weer gegeven als string.">
<polygon fill="white" stroke="black" points="84.5,-38.5 84.5,-57.5 182.5,-57.5 182.5,-38.5 84.5,-38.5"/>
<text text-anchor="middle" x="133.5" y="-45.5" font-family="Helvetica,sans-Serif" font-size="10.00">Wedstrijd::toString</text>
</a>
</g>
</g>
<!-- Node1&#45;&gt;Node5 -->
<g id="edge4" class="edge">
<title>Node1&#45;&gt;Node5</title>
<path fill="none" stroke="midnightblue" d="M38.08,-63.95C48.07,-62.26 61.12,-60.06 74.31,-57.83"/>
<polygon fill="midnightblue" stroke="midnightblue" points="75.09,-61.25 84.37,-56.13 73.93,-54.34 75.09,-61.25"/>
</g>
<!-- Node8 -->
<g id="node8" class="node">
<title>Node8</title>
<g id="a_node8"><a xlink:href="../../d1/d35/class_team.html#a55ae62581e3fd4f082c24d7bf0a23a10" target="_top" xlink:title="Voeg een lid toe aan het team.">
<polygon fill="white" stroke="black" points="74,-0.5 74,-19.5 193,-19.5 193,-0.5 74,-0.5"/>
<text text-anchor="middle" x="133.5" y="-7.5" font-family="Helvetica,sans-Serif" font-size="10.00">Team::voegTeamLidToe</text>
</a>
</g>
</g>
<!-- Node1&#45;&gt;Node8 -->
<g id="edge7" class="edge">
<title>Node1&#45;&gt;Node8</title>
<path fill="none" stroke="midnightblue" d="M31.37,-57.47C41.88,-49.04 58.21,-36.89 74,-29 78.31,-26.85 82.92,-24.86 87.59,-23.05"/>
<polygon fill="midnightblue" stroke="midnightblue" points="88.96,-26.28 97.17,-19.59 86.58,-19.69 88.96,-26.28"/>
</g>
<!-- Node3 -->
<g id="node3" class="node">
<title>Node3</title>
<g id="a_node3"><a xlink:href="../../da/d18/class_teller.html#a2c301f440b0e059aa1a29d8dc3c55f24" target="_top" xlink:title="Verhoogt de waarde van de teller met 1.">
<polygon fill="white" stroke="black" points="232,-114.5 232,-133.5 311,-133.5 311,-114.5 232,-114.5"/>
<text text-anchor="middle" x="271.5" y="-121.5" font-family="Helvetica,sans-Serif" font-size="10.00">Teller::verhoog</text>
</a>
</g>
</g>
<!-- Node2&#45;&gt;Node3 -->
<g id="edge2" class="edge">
<title>Node2&#45;&gt;Node3</title>
<path fill="none" stroke="midnightblue" d="M179.03,-124C192.61,-124 207.62,-124 221.48,-124"/>
<polygon fill="midnightblue" stroke="midnightblue" points="221.81,-127.5 231.81,-124 221.81,-120.5 221.81,-127.5"/>
</g>
<!-- Node6 -->
<g id="node6" class="node">
<title>Node6</title>
<g id="a_node6"><a xlink:href="../../da/d18/class_teller.html#a8434a2f74e7cd10eaa63804afe3dfeb8" target="_top" xlink:title="Verkrijgt de waarde van de teller.">
<polygon fill="white" stroke="black" points="230,-57.5 230,-76.5 313,-76.5 313,-57.5 230,-57.5"/>
<text text-anchor="middle" x="271.5" y="-64.5" font-family="Helvetica,sans-Serif" font-size="10.00">Teller::getTeller</text>
</a>
</g>
</g>
<!-- Node5&#45;&gt;Node6 -->
<g id="edge5" class="edge">
<title>Node5&#45;&gt;Node6</title>
<path fill="none" stroke="midnightblue" d="M182.83,-54.75C194.88,-56.44 207.83,-58.24 219.98,-59.94"/>
<polygon fill="midnightblue" stroke="midnightblue" points="219.58,-63.42 229.96,-61.34 220.54,-56.49 219.58,-63.42"/>
</g>
<!-- Node7 -->
<g id="node7" class="node">
<title>Node7</title>
<g id="a_node7"><a xlink:href="../../dc/d78/class_datum.html#a1d4fde90bf79b6aa26a55b74f9a0c3c8" target="_top" xlink:title="Datum gerepresenteerd als een string in format dd&#45;mm&#45;jjjj.">
<polygon fill="white" stroke="black" points="229,-19.5 229,-38.5 314,-38.5 314,-19.5 229,-19.5"/>
<text text-anchor="middle" x="271.5" y="-26.5" font-family="Helvetica,sans-Serif" font-size="10.00">Datum::toString</text>
</a>
</g>
</g>
<!-- Node5&#45;&gt;Node7 -->
<g id="edge6" class="edge">
<title>Node5&#45;&gt;Node7</title>
<path fill="none" stroke="midnightblue" d="M182.83,-41.25C194.41,-39.63 206.81,-37.9 218.54,-36.26"/>
<polygon fill="midnightblue" stroke="midnightblue" points="219.22,-39.7 228.64,-34.85 218.25,-32.77 219.22,-39.7"/>
</g>
</g>
</svg>
