<?xml version="1.0" encoding="UTF-8" standalone="no"?>
<!DOCTYPE svg PUBLIC "-//W3C//DTD SVG 1.1//EN"
 "http://www.w3.org/Graphics/SVG/1.1/DTD/svg11.dtd">
<!-- Generated by graphviz version 2.47.1 (20210417.1919)
 -->
<!-- Title: Voertuig::toString Pages: 1 -->
<svg width="288pt" height="47pt"
 viewBox="0.00 0.00 288.00 47.00" xmlns="http://www.w3.org/2000/svg" xmlns:xlink="http://www.w3.org/1999/xlink">
<g id="graph0" class="graph" transform="scale(1 1) rotate(0) translate(4 43)">
<title>Voertuig::toString</title>
<polygon fill="white" stroke="transparent" points="-4,4 -4,-43 284,-43 284,4 -4,4"/>
<!-- Node1 -->
<g id="node1" class="node">
<title>Node1</title>
<g id="a_node1"><a xlink:title="Alle gegevens van een voertuig weer gegeven als string.">
<polygon fill="#bfbfbf" stroke="black" points="188,-19.5 188,-38.5 280,-38.5 280,-19.5 188,-19.5"/>
<text text-anchor="middle" x="234" y="-26.5" font-family="Helvetica,sans-Serif" font-size="10.00">Voertuig::toString</text>
</a>
</g>
</g>
<!-- Node2 -->
<g id="node2" class="node">
<title>Node2</title>
<g id="a_node2"><a xlink:href="../../d5/d1b/group___h_f_s_t91.html#gae66f6b31b5ad750f1fe042a706a4e3d4" target="_top" xlink:title="Main function.">
<polygon fill="white" stroke="black" points="0,-19.5 0,-38.5 38,-38.5 38,-19.5 0,-19.5"/>
<text text-anchor="middle" x="19" y="-26.5" font-family="Helvetica,sans-Serif" font-size="10.00">main</text>
</a>
</g>
</g>
<!-- Node1&#45;&gt;Node2 -->
<g id="edge1" class="edge">
<title>Node1&#45;&gt;Node2</title>
<path fill="none" stroke="midnightblue" d="M177.68,-29C131.61,-29 68.77,-29 38.2,-29"/>
<polygon fill="midnightblue" stroke="midnightblue" points="177.83,-32.5 187.83,-29 177.83,-25.5 177.83,-32.5"/>
</g>
<!-- Node3 -->
<g id="node3" class="node">
<title>Node3</title>
<g id="a_node3"><a xlink:href="../../d6/d8b/class_fiets.html#a266a16ff6236e46e22377e17cbed6881" target="_top" xlink:title="Alle gegevens van een fiets weer gegeven als string.">
<polygon fill="white" stroke="black" points="74,-0.5 74,-19.5 152,-19.5 152,-0.5 74,-0.5"/>
<text text-anchor="middle" x="113" y="-7.5" font-family="Helvetica,sans-Serif" font-size="10.00">Fiets::toString</text>
</a>
</g>
</g>
<!-- Node1&#45;&gt;Node3 -->
<g id="edge2" class="edge">
<title>Node1&#45;&gt;Node3</title>
<path fill="none" stroke="midnightblue" d="M177.67,-20.17C169.06,-18.79 160.34,-17.4 152.22,-16.1"/>
<polygon fill="midnightblue" stroke="midnightblue" points="177.24,-23.64 187.67,-21.76 178.35,-16.73 177.24,-23.64"/>
</g>
<!-- Node3&#45;&gt;Node2 -->
<g id="edge3" class="edge">
<title>Node3&#45;&gt;Node2</title>
<path fill="none" stroke="midnightblue" d="M63.93,-19.93C54.83,-21.81 45.84,-23.66 38.39,-25.2"/>
<polygon fill="midnightblue" stroke="midnightblue" points="64.7,-23.34 73.78,-17.89 63.28,-16.49 64.7,-23.34"/>
</g>
</g>
</svg>
