<?xml version="1.0" encoding="UTF-8" standalone="no"?>
<!DOCTYPE svg PUBLIC "-//W3C//DTD SVG 1.1//EN"
 "http://www.w3.org/Graphics/SVG/1.1/DTD/svg11.dtd">
<!-- Generated by graphviz version 2.47.1 (20210417.1919)
 -->
<!-- Title: Tijdstip::addLeadingZero Pages: 1 -->
<svg width="327pt" height="28pt"
 viewBox="0.00 0.00 327.00 28.00" xmlns="http://www.w3.org/2000/svg" xmlns:xlink="http://www.w3.org/1999/xlink">
<g id="graph0" class="graph" transform="scale(1 1) rotate(0) translate(4 24)">
<title>Tijdstip::addLeadingZero</title>
<polygon fill="white" stroke="transparent" points="-4,4 -4,-24 323,-24 323,4 -4,4"/>
<!-- Node1 -->
<g id="node1" class="node">
<title>Node1</title>
<g id="a_node1"><a xlink:title="voegt een &#39;0&#39;&#45;character toe voor i &lt; 10">
<polygon fill="#bfbfbf" stroke="black" points="197,-0.5 197,-19.5 319,-19.5 319,-0.5 197,-0.5"/>
<text text-anchor="middle" x="258" y="-7.5" font-family="Helvetica,sans-Serif" font-size="10.00">Tijdstip::addLeadingZero</text>
</a>
</g>
</g>
<!-- Node2 -->
<g id="node2" class="node">
<title>Node2</title>
<g id="a_node2"><a xlink:href="../../d9/de4/class_tijdstip.html#a30a010b20c1bb85577a57efb71b00144" target="_top" xlink:title="Tijdstip gerepresenteerd als een string in format uu:mm:ss.">
<polygon fill="white" stroke="black" points="74,-0.5 74,-19.5 161,-19.5 161,-0.5 74,-0.5"/>
<text text-anchor="middle" x="117.5" y="-7.5" font-family="Helvetica,sans-Serif" font-size="10.00">Tijdstip::toString</text>
</a>
</g>
</g>
<!-- Node1&#45;&gt;Node2 -->
<g id="edge1" class="edge">
<title>Node1&#45;&gt;Node2</title>
<path fill="none" stroke="midnightblue" d="M186.51,-10C177.86,-10 169.23,-10 161.17,-10"/>
<polygon fill="midnightblue" stroke="midnightblue" points="186.65,-13.5 196.65,-10 186.65,-6.5 186.65,-13.5"/>
</g>
<!-- Node3 -->
<g id="node3" class="node">
<title>Node3</title>
<g id="a_node3"><a xlink:href="../../db/db5/group___h_f_s_t61.html#gae66f6b31b5ad750f1fe042a706a4e3d4" target="_top" xlink:title="Main function.">
<polygon fill="white" stroke="black" points="0,-0.5 0,-19.5 38,-19.5 38,-0.5 0,-0.5"/>
<text text-anchor="middle" x="19" y="-7.5" font-family="Helvetica,sans-Serif" font-size="10.00">main</text>
</a>
</g>
</g>
<!-- Node2&#45;&gt;Node3 -->
<g id="edge2" class="edge">
<title>Node2&#45;&gt;Node3</title>
<path fill="none" stroke="midnightblue" d="M63.87,-10C54.65,-10 45.65,-10 38.22,-10"/>
<polygon fill="midnightblue" stroke="midnightblue" points="63.89,-13.5 73.89,-10 63.89,-6.5 63.89,-13.5"/>
</g>
</g>
</svg>
