<?xml version="1.0" encoding="UTF-8" standalone="no"?>
<!DOCTYPE svg PUBLIC "-//W3C//DTD SVG 1.1//EN"
 "http://www.w3.org/Graphics/SVG/1.1/DTD/svg11.dtd">
<!-- Generated by graphviz version 2.47.1 (20210417.1919)
 -->
<!-- Title: Datum1::toString Pages: 1 -->
<svg width="274pt" height="66pt"
 viewBox="0.00 0.00 274.00 66.00" xmlns="http://www.w3.org/2000/svg" xmlns:xlink="http://www.w3.org/1999/xlink">
<g id="graph0" class="graph" transform="scale(1 1) rotate(0) translate(4 62)">
<title>Datum1::toString</title>
<polygon fill="white" stroke="transparent" points="-4,4 -4,-62 270,-62 270,4 -4,4"/>
<!-- Node1 -->
<g id="node1" class="node">
<title>Node1</title>
<g id="a_node1"><a xlink:title="Datum gerepresenteerd als een string in format dd&#45;mm&#45;jjjj.">
<polygon fill="#bfbfbf" stroke="black" points="176,-19.5 176,-38.5 266,-38.5 266,-19.5 176,-19.5"/>
<text text-anchor="middle" x="221" y="-26.5" font-family="Helvetica,sans-Serif" font-size="10.00">Datum1::toString</text>
</a>
</g>
</g>
<!-- Node2 -->
<g id="node2" class="node">
<title>Node2</title>
<g id="a_node2"><a xlink:href="../../d7/ddc/class_student1.html#a8000f6257a4c3cb215ff659c01415766" target="_top" xlink:title="Alle gegevens van de student weer gegeven als string.">
<polygon fill="white" stroke="black" points="22.5,-38.5 22.5,-57.5 117.5,-57.5 117.5,-38.5 22.5,-38.5"/>
<text text-anchor="middle" x="70" y="-45.5" font-family="Helvetica,sans-Serif" font-size="10.00">Student1::toString</text>
</a>
</g>
</g>
<!-- Node1&#45;&gt;Node2 -->
<g id="edge1" class="edge">
<title>Node1&#45;&gt;Node2</title>
<path fill="none" stroke="midnightblue" d="M165.6,-35.94C149.9,-37.94 132.91,-40.11 117.72,-42.04"/>
<polygon fill="midnightblue" stroke="midnightblue" points="166.22,-39.39 175.7,-34.65 165.34,-32.44 166.22,-39.39"/>
</g>
<!-- Node3 -->
<g id="node3" class="node">
<title>Node3</title>
<g id="a_node3"><a xlink:href="../../db/d93/class_tentamen_resultaat.html#ae57de76395e60af1237ddbd5aea6ba32" target="_top" xlink:title="Alle gegevens van het tentamen resultaat weer gegeven als string.">
<polygon fill="white" stroke="black" points="0,-0.5 0,-19.5 140,-19.5 140,-0.5 0,-0.5"/>
<text text-anchor="middle" x="70" y="-7.5" font-family="Helvetica,sans-Serif" font-size="10.00">TentamenResultaat::toString</text>
</a>
</g>
</g>
<!-- Node1&#45;&gt;Node3 -->
<g id="edge2" class="edge">
<title>Node1&#45;&gt;Node3</title>
<path fill="none" stroke="midnightblue" d="M165.51,-22.05C157.3,-21 148.73,-19.91 140.25,-18.83"/>
<polygon fill="midnightblue" stroke="midnightblue" points="165.34,-25.56 175.7,-23.35 166.22,-18.61 165.34,-25.56"/>
</g>
</g>
</svg>
