<?xml version="1.0" encoding="UTF-8" standalone="no"?>
<!DOCTYPE svg PUBLIC "-//W3C//DTD SVG 1.1//EN"
 "http://www.w3.org/Graphics/SVG/1.1/DTD/svg11.dtd">
<!-- Generated by graphviz version 2.47.1 (20210417.1919)
 -->
<!-- Title: Datum1::changeDatum Pages: 1 -->
<svg width="364pt" height="66pt"
 viewBox="0.00 0.00 364.00 66.00" xmlns="http://www.w3.org/2000/svg" xmlns:xlink="http://www.w3.org/1999/xlink">
<g id="graph0" class="graph" transform="scale(1 1) rotate(0) translate(4 62)">
<title>Datum1::changeDatum</title>
<polygon fill="white" stroke="transparent" points="-4,4 -4,-62 360,-62 360,4 -4,4"/>
<!-- Node1 -->
<g id="node1" class="node">
<title>Node1</title>
<g id="a_node1"><a xlink:title="Veranderd de datum.">
<polygon fill="#bfbfbf" stroke="black" points="240,-19.5 240,-38.5 356,-38.5 356,-19.5 240,-19.5"/>
<text text-anchor="middle" x="298" y="-26.5" font-family="Helvetica,sans-Serif" font-size="10.00">Datum1::changeDatum</text>
</a>
</g>
</g>
<!-- Node2 -->
<g id="node2" class="node">
<title>Node2</title>
<g id="a_node2"><a xlink:href="../../d7/ddc/class_student1.html#a55ea5c1a1a7eb6d9d3d4e2a0e21789fb" target="_top" xlink:title="Set geboorte datum van de student.">
<polygon fill="white" stroke="black" points="30.5,-38.5 30.5,-57.5 173.5,-57.5 173.5,-38.5 30.5,-38.5"/>
<text text-anchor="middle" x="102" y="-45.5" font-family="Helvetica,sans-Serif" font-size="10.00">Student1::setGeboorteDatum</text>
</a>
</g>
</g>
<!-- Node1&#45;&gt;Node2 -->
<g id="edge1" class="edge">
<title>Node1&#45;&gt;Node2</title>
<path fill="none" stroke="midnightblue" d="M229.65,-35.6C211.5,-37.37 191.82,-39.3 173.5,-41.1"/>
<polygon fill="midnightblue" stroke="midnightblue" points="230.23,-39.06 239.84,-34.6 229.55,-32.09 230.23,-39.06"/>
</g>
<!-- Node3 -->
<g id="node3" class="node">
<title>Node3</title>
<g id="a_node3"><a xlink:href="../../db/d93/class_tentamen_resultaat.html#abb86c650be5b867f277bd3ad17415b41" target="_top" xlink:title="Set het tentamenresulataat.">
<polygon fill="white" stroke="black" points="0,-0.5 0,-19.5 204,-19.5 204,-0.5 0,-0.5"/>
<text text-anchor="middle" x="102" y="-7.5" font-family="Helvetica,sans-Serif" font-size="10.00">TentamenResultaat::setTentamenResultaat</text>
</a>
</g>
</g>
<!-- Node1&#45;&gt;Node3 -->
<g id="edge2" class="edge">
<title>Node1&#45;&gt;Node3</title>
<path fill="none" stroke="midnightblue" d="M229.66,-22.4C220.11,-21.47 210.12,-20.49 200.14,-19.51"/>
<polygon fill="midnightblue" stroke="midnightblue" points="229.55,-25.91 239.84,-23.4 230.23,-18.94 229.55,-25.91"/>
</g>
</g>
</svg>
