<?xml version="1.0" encoding="UTF-8" standalone="no"?>
<!DOCTYPE svg PUBLIC "-//W3C//DTD SVG 1.1//EN"
 "http://www.w3.org/Graphics/SVG/1.1/DTD/svg11.dtd">
<!-- Generated by graphviz version 2.47.1 (20210417.1919)
 -->
<!-- Title: BlueRay Pages: 1 -->
<svg width="127pt" height="226pt"
 viewBox="0.00 0.00 127.00 226.00" xmlns="http://www.w3.org/2000/svg" xmlns:xlink="http://www.w3.org/1999/xlink">
<g id="graph0" class="graph" transform="scale(1 1) rotate(0) translate(4 222)">
<title>BlueRay</title>
<polygon fill="white" stroke="transparent" points="-4,4 -4,-222 123,-222 123,4 -4,4"/>
<!-- Node1 -->
<g id="node1" class="node">
<title>Node1</title>
<g id="a_node1"><a xlink:title="Child klasse blueRay, parent: Uitgave.">
<polygon fill="#bfbfbf" stroke="black" points="0,-0.5 0,-79.5 119,-79.5 119,-0.5 0,-0.5"/>
<text text-anchor="middle" x="59.5" y="-67.5" font-family="Helvetica,sans-Serif" font-size="10.00">BlueRay</text>
<polyline fill="none" stroke="black" points="0,-60.5 119,-60.5 "/>
<text text-anchor="start" x="8" y="-48.5" font-family="Helvetica,sans-Serif" font-size="10.00">&#45; unsigned int minuten</text>
<polyline fill="none" stroke="black" points="0,-41.5 119,-41.5 "/>
<text text-anchor="start" x="8" y="-29.5" font-family="Helvetica,sans-Serif" font-size="10.00">+ BlueRay()</text>
<text text-anchor="start" x="8" y="-18.5" font-family="Helvetica,sans-Serif" font-size="10.00">+ void setMinuten()</text>
<text text-anchor="start" x="8" y="-7.5" font-family="Helvetica,sans-Serif" font-size="10.00">+ string toString() const</text>
</a>
</g>
</g>
<!-- Node2 -->
<g id="node2" class="node">
<title>Node2</title>
<g id="a_node2"><a xlink:href="../../d0/d91/class_uitgave.html" target="_top" xlink:title="Parent klasse voor een Uitgave.">
<polygon fill="white" stroke="black" points="0,-116.5 0,-217.5 119,-217.5 119,-116.5 0,-116.5"/>
<text text-anchor="middle" x="59.5" y="-205.5" font-family="Helvetica,sans-Serif" font-size="10.00">Uitgave</text>
<polyline fill="none" stroke="black" points="0,-198.5 119,-198.5 "/>
<text text-anchor="start" x="8" y="-186.5" font-family="Helvetica,sans-Serif" font-size="10.00"># string titel</text>
<text text-anchor="start" x="8" y="-175.5" font-family="Helvetica,sans-Serif" font-size="10.00"># double prijs</text>
<polyline fill="none" stroke="black" points="0,-168.5 119,-168.5 "/>
<text text-anchor="start" x="8" y="-156.5" font-family="Helvetica,sans-Serif" font-size="10.00">+ Uitgave()</text>
<text text-anchor="start" x="8" y="-145.5" font-family="Helvetica,sans-Serif" font-size="10.00">+ void setTitle()</text>
<text text-anchor="start" x="8" y="-134.5" font-family="Helvetica,sans-Serif" font-size="10.00">+ void setPrijs()</text>
<text text-anchor="start" x="8" y="-123.5" font-family="Helvetica,sans-Serif" font-size="10.00">+ string toString() const</text>
</a>
</g>
</g>
<!-- Node2&#45;&gt;Node1 -->
<g id="edge1" class="edge">
<title>Node2&#45;&gt;Node1</title>
<path fill="none" stroke="midnightblue" d="M59.5,-106.19C59.5,-97.22 59.5,-88.18 59.5,-79.81"/>
<polygon fill="none" stroke="midnightblue" points="56,-106.24 59.5,-116.24 63,-106.24 56,-106.24"/>
</g>
</g>
</svg>
