<?xml version="1.0" encoding="UTF-8" standalone="no"?>
<!DOCTYPE svg PUBLIC "-//W3C//DTD SVG 1.1//EN"
 "http://www.w3.org/Graphics/SVG/1.1/DTD/svg11.dtd">
<!-- Generated by graphviz version 2.47.1 (20210417.1919)
 -->
<!-- Title: Classes Pages: 1 -->
<svg width="167pt" height="64pt"
 viewBox="0.00 0.00 167.00 64.00" xmlns="http://www.w3.org/2000/svg" xmlns:xlink="http://www.w3.org/1999/xlink">
<g id="graph0" class="graph" transform="scale(1 1) rotate(0) translate(4 60)">
<title>Classes</title>
<polygon fill="white" stroke="transparent" points="-4,4 -4,-60 163,-60 163,4 -4,4"/>
<!-- Node2 -->
<g id="node1" class="node">
<title>Node2</title>
<g id="a_node1"><a xlink:href="../../d2/dcc/group___unoheader.html" target="_top" xlink:title="all header files">
<polygon fill="white" stroke="black" points="159,-56 88,-56 88,-37 159,-37 159,-56"/>
<text text-anchor="middle" x="123.5" y="-44" font-family="Helvetica,sans-Serif" font-size="10.00">Header Files</text>
</a>
</g>
</g>
<!-- Node3 -->
<g id="node2" class="node">
<title>Node3</title>
<g id="a_node2"><a xlink:href="../../dd/d8c/group___unocpp.html" target="_top" xlink:title="all C++ files">
<polygon fill="white" stroke="black" points="153,-19 94,-19 94,0 153,0 153,-19"/>
<text text-anchor="middle" x="123.5" y="-7" font-family="Helvetica,sans-Serif" font-size="10.00">C++ Files</text>
</a>
</g>
</g>
<!-- Node1 -->
<g id="node3" class="node">
<title>Node1</title>
<g id="a_node3"><a xlink:title="all classes used">
<polygon fill="#bfbfbf" stroke="black" points="52,-37 0,-37 0,-18 52,-18 52,-37"/>
<text text-anchor="middle" x="26" y="-25" font-family="Helvetica,sans-Serif" font-size="10.00">Classes</text>
</a>
</g>
</g>
<!-- Node1&#45;&gt;Node2 -->
<g id="edge1" class="edge">
<title>Node1&#45;&gt;Node2</title>
<path fill="none" stroke="black" d="M62.02,-34.47C70.46,-36.15 79.47,-37.94 87.88,-39.61"/>
<polygon fill="black" stroke="black" points="62.58,-31.01 52.09,-32.49 61.22,-37.88 62.58,-31.01"/>
</g>
<!-- Node1&#45;&gt;Node3 -->
<g id="edge2" class="edge">
<title>Node1&#45;&gt;Node3</title>
<path fill="none" stroke="black" d="M62.16,-20.87C72.59,-18.91 83.89,-16.78 93.86,-14.9"/>
<polygon fill="black" stroke="black" points="61.27,-17.48 52.09,-22.77 62.57,-24.36 61.27,-17.48"/>
</g>
</g>
</svg>
