<?xml version="1.0" encoding="UTF-8" standalone="no"?>
<!DOCTYPE svg PUBLIC "-//W3C//DTD SVG 1.1//EN"
 "http://www.w3.org/Graphics/SVG/1.1/DTD/svg11.dtd">
<!-- Generated by graphviz version 2.47.1 (20210417.1919)
 -->
<!-- Title: Hoofdstuk 7 Pages: 1 -->
<svg width="280pt" height="64pt"
 viewBox="0.00 0.00 280.00 64.00" xmlns="http://www.w3.org/2000/svg" xmlns:xlink="http://www.w3.org/1999/xlink">
<g id="graph0" class="graph" transform="scale(1 1) rotate(0) translate(4 60)">
<title>Hoofdstuk 7</title>
<polygon fill="white" stroke="transparent" points="-4,4 -4,-60 276,-60 276,4 -4,4"/>
<!-- Node1 -->
<g id="node1" class="node">
<title>Node1</title>
<g id="a_node1"><a xlink:title="Opdrachten van Hoofdstuk 7.">
<polygon fill="#bfbfbf" stroke="black" points="171,-37 103,-37 103,-18 171,-18 171,-37"/>
<text text-anchor="middle" x="137" y="-25" font-family="Helvetica,sans-Serif" font-size="10.00">Hoofdstuk 7</text>
</a>
</g>
</g>
<!-- Node3 -->
<g id="node3" class="node">
<title>Node3</title>
<g id="a_node3"><a xlink:href="../../d2/dc9/group___h_f_s_t71.html" target="_top" xlink:title="Opdracht 1.">
<polygon fill="white" stroke="black" points="272,-56 207,-56 207,-37 272,-37 272,-56"/>
<text text-anchor="middle" x="239.5" y="-44" font-family="Helvetica,sans-Serif" font-size="10.00">Opdracht 1</text>
</a>
</g>
</g>
<!-- Node1&#45;&gt;Node3 -->
<g id="edge2" class="edge">
<title>Node1&#45;&gt;Node3</title>
<path fill="none" stroke="black" d="M181.09,-35.65C189.69,-37.27 198.58,-38.95 206.71,-40.49"/>
<polygon fill="black" stroke="black" points="181.66,-32.19 171.19,-33.77 180.36,-39.07 181.66,-32.19"/>
</g>
<!-- Node4 -->
<g id="node4" class="node">
<title>Node4</title>
<g id="a_node4"><a xlink:href="../../d1/d1b/group___h_f_s_t72.html" target="_top" xlink:title="Opdrachten 6.">
<polygon fill="white" stroke="black" points="272,-19 207,-19 207,0 272,0 272,-19"/>
<text text-anchor="middle" x="239.5" y="-7" font-family="Helvetica,sans-Serif" font-size="10.00">Opdracht 6</text>
</a>
</g>
</g>
<!-- Node1&#45;&gt;Node4 -->
<g id="edge3" class="edge">
<title>Node1&#45;&gt;Node4</title>
<path fill="none" stroke="black" d="M181.09,-19.78C189.69,-18.24 198.58,-16.65 206.71,-15.19"/>
<polygon fill="black" stroke="black" points="180.41,-16.35 171.19,-21.56 181.65,-23.24 180.41,-16.35"/>
</g>
<!-- Node2 -->
<g id="node2" class="node">
<title>Node2</title>
<g id="a_node2"><a xlink:href="../../d5/d6f/group__boek.html" target="_top" xlink:title="Alle in te leveren opgaven uit het boek.">
<polygon fill="white" stroke="black" points="67,-37 0,-37 0,-18 67,-18 67,-37"/>
<text text-anchor="middle" x="33.5" y="-25" font-family="Helvetica,sans-Serif" font-size="10.00">Opdrachten</text>
</a>
</g>
</g>
<!-- Node2&#45;&gt;Node1 -->
<g id="edge1" class="edge">
<title>Node2&#45;&gt;Node1</title>
<path fill="none" stroke="black" d="M77.31,-27.5C85.79,-27.5 94.58,-27.5 102.69,-27.5"/>
<polygon fill="black" stroke="black" points="77.17,-24 67.17,-27.5 77.17,-31 77.17,-24"/>
</g>
</g>
</svg>
