<?xml version="1.0" encoding="UTF-8" standalone="no"?>
<!DOCTYPE svg PUBLIC "-//W3C//DTD SVG 1.1//EN"
 "http://www.w3.org/Graphics/SVG/1.1/DTD/svg11.dtd">
<!-- Generated by graphviz version 2.47.1 (20210417.1919)
 -->
<!-- Title: Wedstrijd::toString Pages: 1 -->
<svg width="227pt" height="66pt"
 viewBox="0.00 0.00 227.00 66.00" xmlns="http://www.w3.org/2000/svg" xmlns:xlink="http://www.w3.org/1999/xlink">
<g id="graph0" class="graph" transform="scale(1 1) rotate(0) translate(4 62)">
<title>Wedstrijd::toString</title>
<polygon fill="white" stroke="transparent" points="-4,4 -4,-62 223,-62 223,4 -4,4"/>
<!-- Node1 -->
<g id="node1" class="node">
<title>Node1</title>
<g id="a_node1"><a xlink:title="Alle gegevens van de wedstrijd weer gegeven als string.">
<polygon fill="#bfbfbf" stroke="black" points="0,-19.5 0,-38.5 98,-38.5 98,-19.5 0,-19.5"/>
<text text-anchor="middle" x="49" y="-26.5" font-family="Helvetica,sans-Serif" font-size="10.00">Wedstrijd::toString</text>
</a>
</g>
</g>
<!-- Node2 -->
<g id="node2" class="node">
<title>Node2</title>
<g id="a_node2"><a xlink:href="../../da/d18/class_teller.html#a8434a2f74e7cd10eaa63804afe3dfeb8" target="_top" xlink:title="Verkrijgt de waarde van de teller.">
<polygon fill="white" stroke="black" points="135,-38.5 135,-57.5 218,-57.5 218,-38.5 135,-38.5"/>
<text text-anchor="middle" x="176.5" y="-45.5" font-family="Helvetica,sans-Serif" font-size="10.00">Teller::getTeller</text>
</a>
</g>
</g>
<!-- Node1&#45;&gt;Node2 -->
<g id="edge1" class="edge">
<title>Node1&#45;&gt;Node2</title>
<path fill="none" stroke="midnightblue" d="M98.16,-36.29C106.81,-37.6 115.84,-38.97 124.56,-40.29"/>
<polygon fill="midnightblue" stroke="midnightblue" points="124.2,-43.77 134.61,-41.81 125.25,-36.85 124.2,-43.77"/>
</g>
<!-- Node3 -->
<g id="node3" class="node">
<title>Node3</title>
<g id="a_node3"><a xlink:href="../../dc/d78/class_datum.html#a1d4fde90bf79b6aa26a55b74f9a0c3c8" target="_top" xlink:title="Datum gerepresenteerd als een string in format dd&#45;mm&#45;jjjj.">
<polygon fill="white" stroke="black" points="134,-0.5 134,-19.5 219,-19.5 219,-0.5 134,-0.5"/>
<text text-anchor="middle" x="176.5" y="-7.5" font-family="Helvetica,sans-Serif" font-size="10.00">Datum::toString</text>
</a>
</g>
</g>
<!-- Node1&#45;&gt;Node3 -->
<g id="edge2" class="edge">
<title>Node1&#45;&gt;Node3</title>
<path fill="none" stroke="midnightblue" d="M98.16,-21.71C106.52,-20.44 115.24,-19.12 123.68,-17.84"/>
<polygon fill="midnightblue" stroke="midnightblue" points="124.44,-21.27 133.81,-16.31 123.4,-14.35 124.44,-21.27"/>
</g>
</g>
</svg>
