<?xml version="1.0" encoding="UTF-8" standalone="no"?>
<!DOCTYPE svg PUBLIC "-//W3C//DTD SVG 1.1//EN"
 "http://www.w3.org/Graphics/SVG/1.1/DTD/svg11.dtd">
<!-- Generated by graphviz version 2.47.1 (20210417.1919)
 -->
<!-- Title: PipeLine classes Pages: 1 -->
<svg width="399pt" height="64pt"
 viewBox="0.00 0.00 399.00 64.00" xmlns="http://www.w3.org/2000/svg" xmlns:xlink="http://www.w3.org/1999/xlink">
<g id="graph0" class="graph" transform="scale(1 1) rotate(0) translate(4 60)">
<title>PipeLine classes</title>
<polygon fill="white" stroke="transparent" points="-4,4 -4,-60 395,-60 395,4 -4,4"/>
<!-- Node3 -->
<g id="node1" class="node">
<title>Node3</title>
<g id="a_node1"><a xlink:href="../../db/d17/group__pipe_lineheader.html" target="_top" xlink:title="all header files">
<polygon fill="white" stroke="black" points="391,-56 320,-56 320,-37 391,-37 391,-56"/>
<text text-anchor="middle" x="355.5" y="-44" font-family="Helvetica,sans-Serif" font-size="10.00">Header Files</text>
</a>
</g>
</g>
<!-- Node1 -->
<g id="node2" class="node">
<title>Node1</title>
<g id="a_node2"><a xlink:title="all classes used for the OpenCV pipeLine">
<polygon fill="#bfbfbf" stroke="black" points="284,-37 193,-37 193,-18 284,-18 284,-37"/>
<text text-anchor="middle" x="238.5" y="-25" font-family="Helvetica,sans-Serif" font-size="10.00">PipeLine classes</text>
</a>
</g>
</g>
<!-- Node1&#45;&gt;Node3 -->
<g id="edge2" class="edge">
<title>Node1&#45;&gt;Node3</title>
<path fill="none" stroke="black" d="M294.43,-36.57C303.13,-38.01 311.92,-39.46 319.98,-40.8"/>
<polygon fill="black" stroke="black" points="294.73,-33.08 284.29,-34.9 293.59,-39.98 294.73,-33.08"/>
</g>
<!-- Node4 -->
<g id="node4" class="node">
<title>Node4</title>
<g id="a_node4"><a xlink:href="../../d6/deb/group__pipe_linecpp.html" target="_top" xlink:title="all C++ files">
<polygon fill="white" stroke="black" points="385,-19 326,-19 326,0 385,0 385,-19"/>
<text text-anchor="middle" x="355.5" y="-7" font-family="Helvetica,sans-Serif" font-size="10.00">C++ Files</text>
</a>
</g>
</g>
<!-- Node1&#45;&gt;Node4 -->
<g id="edge3" class="edge">
<title>Node1&#45;&gt;Node4</title>
<path fill="none" stroke="black" d="M294.26,-18.93C305.21,-17.21 316.3,-15.48 325.92,-13.97"/>
<polygon fill="black" stroke="black" points="293.63,-15.48 284.29,-20.49 294.71,-22.4 293.63,-15.48"/>
</g>
<!-- Node2 -->
<g id="node3" class="node">
<title>Node2</title>
<g id="a_node3"><a xlink:href="../../dc/d4d/group__processing.html" target="_top" xlink:title="This is the group containing als the image processing parts.">
<polygon fill="white" stroke="black" points="157,-37 0,-37 0,-18 157,-18 157,-37"/>
<text text-anchor="middle" x="78.5" y="-25" font-family="Helvetica,sans-Serif" font-size="10.00">The OpenCV proccesing module</text>
</a>
</g>
</g>
<!-- Node2&#45;&gt;Node1 -->
<g id="edge1" class="edge">
<title>Node2&#45;&gt;Node1</title>
<path fill="none" stroke="black" d="M167.37,-27.5C176.07,-27.5 184.63,-27.5 192.61,-27.5"/>
<polygon fill="black" stroke="black" points="167.11,-24 157.11,-27.5 167.11,-31 167.11,-24"/>
</g>
</g>
</svg>
