<?xml version="1.0" encoding="UTF-8" standalone="no"?>
<!DOCTYPE svg PUBLIC "-//W3C//DTD SVG 1.1//EN"
 "http://www.w3.org/Graphics/SVG/1.1/DTD/svg11.dtd">
<!-- Generated by graphviz version 2.47.1 (20210417.1919)
 -->
<!-- Title: Boek::Boek Pages: 1 -->
<svg width="206pt" height="66pt"
 viewBox="0.00 0.00 206.00 66.00" xmlns="http://www.w3.org/2000/svg" xmlns:xlink="http://www.w3.org/1999/xlink">
<g id="graph0" class="graph" transform="scale(1 1) rotate(0) translate(4 62)">
<title>Boek::Boek</title>
<polygon fill="white" stroke="transparent" points="-4,4 -4,-62 202,-62 202,4 -4,4"/>
<!-- Node1 -->
<g id="node1" class="node">
<title>Node1</title>
<g id="a_node1"><a xlink:title="Default constructor van de klasse.">
<polygon fill="#bfbfbf" stroke="black" points="0,-19.5 0,-38.5 68,-38.5 68,-19.5 0,-19.5"/>
<text text-anchor="middle" x="34" y="-26.5" font-family="Helvetica,sans-Serif" font-size="10.00">Boek::Boek</text>
</a>
</g>
</g>
<!-- Node2 -->
<g id="node2" class="node">
<title>Node2</title>
<g id="a_node2"><a xlink:href="../../db/d63/class_boek.html#a65ba8132ba099716bb5e7b952933ca08" target="_top" xlink:title="Set de naam van de auteur van het boek.">
<polygon fill="white" stroke="black" points="107.5,-38.5 107.5,-57.5 194.5,-57.5 194.5,-38.5 107.5,-38.5"/>
<text text-anchor="middle" x="151" y="-45.5" font-family="Helvetica,sans-Serif" font-size="10.00">Boek::setAuteur</text>
</a>
</g>
</g>
<!-- Node1&#45;&gt;Node2 -->
<g id="edge1" class="edge">
<title>Node1&#45;&gt;Node2</title>
<path fill="none" stroke="midnightblue" d="M68.26,-34.5C77.32,-35.99 87.36,-37.65 97.22,-39.28"/>
<polygon fill="midnightblue" stroke="midnightblue" points="96.94,-42.78 107.37,-40.96 98.08,-35.87 96.94,-42.78"/>
</g>
<!-- Node3 -->
<g id="node3" class="node">
<title>Node3</title>
<g id="a_node3"><a xlink:href="../../db/d63/class_boek.html#ae8b2985f6e7f207d4722591e3325bb51" target="_top" xlink:title="Set het aantal pagina&#39;s van het boek.">
<polygon fill="white" stroke="black" points="104,-0.5 104,-19.5 198,-19.5 198,-0.5 104,-0.5"/>
<text text-anchor="middle" x="151" y="-7.5" font-family="Helvetica,sans-Serif" font-size="10.00">Boek::setPaginas</text>
</a>
</g>
</g>
<!-- Node1&#45;&gt;Node3 -->
<g id="edge2" class="edge">
<title>Node1&#45;&gt;Node3</title>
<path fill="none" stroke="midnightblue" d="M68.26,-23.5C76.36,-22.17 85.24,-20.7 94.07,-19.24"/>
<polygon fill="midnightblue" stroke="midnightblue" points="94.69,-22.69 103.98,-17.6 93.54,-15.78 94.69,-22.69"/>
</g>
</g>
</svg>
