<?xml version="1.0" encoding="UTF-8" standalone="no"?>
<!DOCTYPE svg PUBLIC "-//W3C//DTD SVG 1.1//EN"
 "http://www.w3.org/Graphics/SVG/1.1/DTD/svg11.dtd">
<!-- Generated by graphviz version 2.47.1 (20210417.1919)
 -->
<!-- Title: Uitgave Pages: 1 -->
<svg width="401pt" height="248pt"
 viewBox="0.00 0.00 401.00 248.00" xmlns="http://www.w3.org/2000/svg" xmlns:xlink="http://www.w3.org/1999/xlink">
<g id="graph0" class="graph" transform="scale(1 1) rotate(0) translate(4 244)">
<title>Uitgave</title>
<polygon fill="white" stroke="transparent" points="-4,4 -4,-244 397,-244 397,4 -4,4"/>
<!-- Node1 -->
<g id="node1" class="node">
<title>Node1</title>
<g id="a_node1"><a xlink:title="Parent klasse voor een Uitgave.">
<polygon fill="#bfbfbf" stroke="black" points="137,-138.5 137,-239.5 256,-239.5 256,-138.5 137,-138.5"/>
<text text-anchor="middle" x="196.5" y="-227.5" font-family="Helvetica,sans-Serif" font-size="10.00">Uitgave</text>
<polyline fill="none" stroke="black" points="137,-220.5 256,-220.5 "/>
<text text-anchor="start" x="145" y="-208.5" font-family="Helvetica,sans-Serif" font-size="10.00"># string titel</text>
<text text-anchor="start" x="145" y="-197.5" font-family="Helvetica,sans-Serif" font-size="10.00"># double prijs</text>
<polyline fill="none" stroke="black" points="137,-190.5 256,-190.5 "/>
<text text-anchor="start" x="145" y="-178.5" font-family="Helvetica,sans-Serif" font-size="10.00">+ Uitgave()</text>
<text text-anchor="start" x="145" y="-167.5" font-family="Helvetica,sans-Serif" font-size="10.00">+ void setTitle()</text>
<text text-anchor="start" x="145" y="-156.5" font-family="Helvetica,sans-Serif" font-size="10.00">+ void setPrijs()</text>
<text text-anchor="start" x="145" y="-145.5" font-family="Helvetica,sans-Serif" font-size="10.00">+ string toString() const</text>
</a>
</g>
</g>
<!-- Node2 -->
<g id="node2" class="node">
<title>Node2</title>
<g id="a_node2"><a xlink:href="../../db/da8/class_blue_ray.html" target="_top" xlink:title="Child klasse blueRay, parent: Uitgave.">
<polygon fill="white" stroke="black" points="0,-11.5 0,-90.5 119,-90.5 119,-11.5 0,-11.5"/>
<text text-anchor="middle" x="59.5" y="-78.5" font-family="Helvetica,sans-Serif" font-size="10.00">BlueRay</text>
<polyline fill="none" stroke="black" points="0,-71.5 119,-71.5 "/>
<text text-anchor="start" x="8" y="-59.5" font-family="Helvetica,sans-Serif" font-size="10.00">&#45; unsigned int minuten</text>
<polyline fill="none" stroke="black" points="0,-52.5 119,-52.5 "/>
<text text-anchor="start" x="8" y="-40.5" font-family="Helvetica,sans-Serif" font-size="10.00">+ BlueRay()</text>
<text text-anchor="start" x="8" y="-29.5" font-family="Helvetica,sans-Serif" font-size="10.00">+ void setMinuten()</text>
<text text-anchor="start" x="8" y="-18.5" font-family="Helvetica,sans-Serif" font-size="10.00">+ string toString() const</text>
</a>
</g>
</g>
<!-- Node1&#45;&gt;Node2 -->
<g id="edge1" class="edge">
<title>Node1&#45;&gt;Node2</title>
<path fill="none" stroke="midnightblue" d="M138.8,-130.72C125.24,-117.26 111.1,-103.22 98.57,-90.79"/>
<polygon fill="none" stroke="midnightblue" points="136.7,-133.57 146.26,-138.13 141.63,-128.6 136.7,-133.57"/>
</g>
<!-- Node3 -->
<g id="node3" class="node">
<title>Node3</title>
<g id="a_node3"><a xlink:href="../../db/d63/class_boek.html" target="_top" xlink:title="Child klasse boek, parent: Uitgave.">
<polygon fill="white" stroke="black" points="137,-0.5 137,-101.5 256,-101.5 256,-0.5 137,-0.5"/>
<text text-anchor="middle" x="196.5" y="-89.5" font-family="Helvetica,sans-Serif" font-size="10.00">Boek</text>
<polyline fill="none" stroke="black" points="137,-82.5 256,-82.5 "/>
<text text-anchor="start" x="145" y="-70.5" font-family="Helvetica,sans-Serif" font-size="10.00">&#45; string auteur</text>
<text text-anchor="start" x="145" y="-59.5" font-family="Helvetica,sans-Serif" font-size="10.00">&#45; unsigned int paginas</text>
<polyline fill="none" stroke="black" points="137,-52.5 256,-52.5 "/>
<text text-anchor="start" x="145" y="-40.5" font-family="Helvetica,sans-Serif" font-size="10.00">+ Boek()</text>
<text text-anchor="start" x="145" y="-29.5" font-family="Helvetica,sans-Serif" font-size="10.00">+ void setAuteur()</text>
<text text-anchor="start" x="145" y="-18.5" font-family="Helvetica,sans-Serif" font-size="10.00">+ void setPaginas()</text>
<text text-anchor="start" x="145" y="-7.5" font-family="Helvetica,sans-Serif" font-size="10.00">+ string toString() const</text>
</a>
</g>
</g>
<!-- Node1&#45;&gt;Node3 -->
<g id="edge2" class="edge">
<title>Node1&#45;&gt;Node3</title>
<path fill="none" stroke="midnightblue" d="M196.5,-128C196.5,-119.27 196.5,-110.36 196.5,-101.86"/>
<polygon fill="none" stroke="midnightblue" points="193,-128.13 196.5,-138.13 200,-128.13 193,-128.13"/>
</g>
<!-- Node4 -->
<g id="node4" class="node">
<title>Node4</title>
<g id="a_node4"><a xlink:href="../../d0/d1e/class_tijdschrift.html" target="_top" xlink:title="Child klasse Tijdschrift, parent: Uitgave.">
<polygon fill="white" stroke="black" points="274,-6 274,-96 393,-96 393,-6 274,-6"/>
<text text-anchor="middle" x="333.5" y="-84" font-family="Helvetica,sans-Serif" font-size="10.00">Tijdschrift</text>
<polyline fill="none" stroke="black" points="274,-77 393,-77 "/>
<text text-anchor="start" x="282" y="-65" font-family="Helvetica,sans-Serif" font-size="10.00">&#45; string maand</text>
<text text-anchor="start" x="282" y="-54" font-family="Helvetica,sans-Serif" font-size="10.00">&#45; const string maanden</text>
<polyline fill="none" stroke="black" points="274,-47 393,-47 "/>
<text text-anchor="start" x="282" y="-35" font-family="Helvetica,sans-Serif" font-size="10.00">+ Tijdschrift()</text>
<text text-anchor="start" x="282" y="-24" font-family="Helvetica,sans-Serif" font-size="10.00">+ void setMaand()</text>
<text text-anchor="start" x="282" y="-13" font-family="Helvetica,sans-Serif" font-size="10.00">+ string toString() const</text>
</a>
</g>
</g>
<!-- Node1&#45;&gt;Node4 -->
<g id="edge3" class="edge">
<title>Node1&#45;&gt;Node4</title>
<path fill="none" stroke="midnightblue" d="M253.99,-130.93C265.74,-119.26 277.94,-107.15 289.15,-96.02"/>
<polygon fill="none" stroke="midnightblue" points="251.37,-128.6 246.74,-138.13 256.3,-133.57 251.37,-128.6"/>
</g>
</g>
</svg>
