<?xml version="1.0" encoding="UTF-8" standalone="no"?>
<!DOCTYPE svg PUBLIC "-//W3C//DTD SVG 1.1//EN"
 "http://www.w3.org/Graphics/SVG/1.1/DTD/svg11.dtd">
<!-- Generated by graphviz version 2.47.1 (20210417.1919)
 -->
<!-- Title: main Pages: 1 -->
<svg width="260pt" height="180pt"
 viewBox="0.00 0.00 260.00 180.00" xmlns="http://www.w3.org/2000/svg" xmlns:xlink="http://www.w3.org/1999/xlink">
<g id="graph0" class="graph" transform="scale(1 1) rotate(0) translate(4 176)">
<title>main</title>
<polygon fill="white" stroke="transparent" points="-4,4 -4,-176 256,-176 256,4 -4,4"/>
<!-- Node1 -->
<g id="node1" class="node">
<title>Node1</title>
<g id="a_node1"><a xlink:title="Main function.">
<polygon fill="#bfbfbf" stroke="black" points="0,-76.5 0,-95.5 38,-95.5 38,-76.5 0,-76.5"/>
<text text-anchor="middle" x="19" y="-83.5" font-family="Helvetica,sans-Serif" font-size="10.00">main</text>
</a>
</g>
</g>
<!-- Node2 -->
<g id="node2" class="node">
<title>Node2</title>
<g id="a_node2"><a xlink:href="../../dc/d67/class_cijfer_administratie.html#a9402594d94d41c2baf3ca350e80f249b" target="_top" xlink:title="Toont alle resultaten van een student.">
<polygon fill="white" stroke="black" points="79.5,-152.5 79.5,-171.5 246.5,-171.5 246.5,-152.5 79.5,-152.5"/>
<text text-anchor="middle" x="163" y="-159.5" font-family="Helvetica,sans-Serif" font-size="10.00">CijferAdministratie::toonResultaten</text>
</a>
</g>
</g>
<!-- Node1&#45;&gt;Node2 -->
<g id="edge1" class="edge">
<title>Node1&#45;&gt;Node2</title>
<path fill="none" stroke="midnightblue" d="M26.4,-95.77C35.41,-108.71 53.09,-131.23 74,-143 78.02,-145.26 82.27,-147.25 86.67,-149.01"/>
<polygon fill="midnightblue" stroke="midnightblue" points="85.86,-152.43 96.45,-152.48 88.2,-145.84 85.86,-152.43"/>
</g>
<!-- Node3 -->
<g id="node3" class="node">
<title>Node3</title>
<g id="a_node3"><a xlink:href="../../dc/d67/class_cijfer_administratie.html#a5023ec7e7df1d233b69c2646c0e901ee" target="_top" xlink:title="Toont alle studenten in de cijfer administratie.">
<polygon fill="white" stroke="black" points="81,-114.5 81,-133.5 245,-133.5 245,-114.5 81,-114.5"/>
<text text-anchor="middle" x="163" y="-121.5" font-family="Helvetica,sans-Serif" font-size="10.00">CijferAdministratie::toonStudenten</text>
</a>
</g>
</g>
<!-- Node1&#45;&gt;Node3 -->
<g id="edge2" class="edge">
<title>Node1&#45;&gt;Node3</title>
<path fill="none" stroke="midnightblue" d="M38.31,-93.09C48.68,-96.94 61.95,-101.59 74,-105 83.15,-107.59 92.93,-110.02 102.51,-112.22"/>
<polygon fill="midnightblue" stroke="midnightblue" points="101.87,-115.66 112.4,-114.43 103.4,-108.83 101.87,-115.66"/>
</g>
<!-- Node4 -->
<g id="node4" class="node">
<title>Node4</title>
<g id="a_node4"><a xlink:href="../../dc/d67/class_cijfer_administratie.html#a8d0c3f81c8e64073e7f7aa48f2b6e773" target="_top" xlink:title="Alle gegevens van de cijfer administratie weer gegeven als string.">
<polygon fill="white" stroke="black" points="95.5,-76.5 95.5,-95.5 230.5,-95.5 230.5,-76.5 95.5,-76.5"/>
<text text-anchor="middle" x="163" y="-83.5" font-family="Helvetica,sans-Serif" font-size="10.00">CijferAdministratie::toString</text>
</a>
</g>
</g>
<!-- Node1&#45;&gt;Node4 -->
<g id="edge3" class="edge">
<title>Node1&#45;&gt;Node4</title>
<path fill="none" stroke="midnightblue" d="M38.27,-86C50.48,-86 67.46,-86 84.93,-86"/>
<polygon fill="midnightblue" stroke="midnightblue" points="85.24,-89.5 95.24,-86 85.24,-82.5 85.24,-89.5"/>
</g>
<!-- Node5 -->
<g id="node5" class="node">
<title>Node5</title>
<g id="a_node5"><a xlink:href="../../dc/d67/class_cijfer_administratie.html#a9d4f5bedf81ef1db17ae7aa0ba2fdb5d" target="_top" xlink:title="Voegt een tentamen resulataat toe.">
<polygon fill="white" stroke="black" points="74,-38.5 74,-57.5 252,-57.5 252,-38.5 74,-38.5"/>
<text text-anchor="middle" x="163" y="-45.5" font-family="Helvetica,sans-Serif" font-size="10.00">CijferAdministratie::voegResultaatToe</text>
</a>
</g>
</g>
<!-- Node1&#45;&gt;Node5 -->
<g id="edge4" class="edge">
<title>Node1&#45;&gt;Node5</title>
<path fill="none" stroke="midnightblue" d="M38.31,-78.91C48.68,-75.06 61.95,-70.41 74,-67 83.15,-64.41 92.93,-61.98 102.51,-59.78"/>
<polygon fill="midnightblue" stroke="midnightblue" points="103.4,-63.17 112.4,-57.57 101.87,-56.34 103.4,-63.17"/>
</g>
<!-- Node6 -->
<g id="node6" class="node">
<title>Node6</title>
<g id="a_node6"><a xlink:href="../../dc/d67/class_cijfer_administratie.html#aa2cd2ea11e1d3ad6fd02743f127c1677" target="_top" xlink:title="Voegt een student toe aan de cijfer administratie.">
<polygon fill="white" stroke="black" points="78,-0.5 78,-19.5 248,-19.5 248,-0.5 78,-0.5"/>
<text text-anchor="middle" x="163" y="-7.5" font-family="Helvetica,sans-Serif" font-size="10.00">CijferAdministratie::voegStudentToe</text>
</a>
</g>
</g>
<!-- Node1&#45;&gt;Node6 -->
<g id="edge5" class="edge">
<title>Node1&#45;&gt;Node6</title>
<path fill="none" stroke="midnightblue" d="M26.4,-76.23C35.41,-63.29 53.09,-40.77 74,-29 78.02,-26.74 82.27,-24.75 86.67,-22.99"/>
<polygon fill="midnightblue" stroke="midnightblue" points="88.2,-26.16 96.45,-19.52 85.86,-19.57 88.2,-26.16"/>
</g>
</g>
</svg>
