<?xml version="1.0" encoding="UTF-8" standalone="no"?>
<!DOCTYPE svg PUBLIC "-//W3C//DTD SVG 1.1//EN"
 "http://www.w3.org/Graphics/SVG/1.1/DTD/svg11.dtd">
<!-- Generated by graphviz version 2.47.1 (20210417.1919)
 -->
<!-- Title: main Pages: 1 -->
<svg width="288pt" height="47pt"
 viewBox="0.00 0.00 288.00 47.00" xmlns="http://www.w3.org/2000/svg" xmlns:xlink="http://www.w3.org/1999/xlink">
<g id="graph0" class="graph" transform="scale(1 1) rotate(0) translate(4 43)">
<title>main</title>
<polygon fill="white" stroke="transparent" points="-4,4 -4,-43 284,-43 284,4 -4,4"/>
<!-- Node1 -->
<g id="node1" class="node">
<title>Node1</title>
<g id="a_node1"><a xlink:title="Main function.">
<polygon fill="#bfbfbf" stroke="black" points="0,-0.5 0,-19.5 38,-19.5 38,-0.5 0,-0.5"/>
<text text-anchor="middle" x="19" y="-7.5" font-family="Helvetica,sans-Serif" font-size="10.00">main</text>
</a>
</g>
</g>
<!-- Node2 -->
<g id="node2" class="node">
<title>Node2</title>
<g id="a_node2"><a xlink:href="../../d6/d8b/class_fiets.html#a266a16ff6236e46e22377e17cbed6881" target="_top" xlink:title="Alle gegevens van een fiets weer gegeven als string.">
<polygon fill="white" stroke="black" points="74,-19.5 74,-38.5 152,-38.5 152,-19.5 74,-19.5"/>
<text text-anchor="middle" x="113" y="-26.5" font-family="Helvetica,sans-Serif" font-size="10.00">Fiets::toString</text>
</a>
</g>
</g>
<!-- Node1&#45;&gt;Node2 -->
<g id="edge1" class="edge">
<title>Node1&#45;&gt;Node2</title>
<path fill="none" stroke="midnightblue" d="M38.18,-13.75C45.64,-15.29 54.66,-17.16 63.8,-19.05"/>
<polygon fill="midnightblue" stroke="midnightblue" points="63.2,-22.49 73.7,-21.09 64.61,-15.64 63.2,-22.49"/>
</g>
<!-- Node3 -->
<g id="node3" class="node">
<title>Node3</title>
<g id="a_node3"><a xlink:href="../../d8/d3a/class_voertuig.html#a7dfbb262f3ad516fa48a8003c0179a01" target="_top" xlink:title="Alle gegevens van een voertuig weer gegeven als string.">
<polygon fill="white" stroke="black" points="188,-0.5 188,-19.5 280,-19.5 280,-0.5 188,-0.5"/>
<text text-anchor="middle" x="234" y="-7.5" font-family="Helvetica,sans-Serif" font-size="10.00">Voertuig::toString</text>
</a>
</g>
</g>
<!-- Node1&#45;&gt;Node3 -->
<g id="edge3" class="edge">
<title>Node1&#45;&gt;Node3</title>
<path fill="none" stroke="midnightblue" d="M38.16,-10C68.74,-10 131.7,-10 177.8,-10"/>
<polygon fill="midnightblue" stroke="midnightblue" points="177.95,-13.5 187.95,-10 177.95,-6.5 177.95,-13.5"/>
</g>
<!-- Node2&#45;&gt;Node3 -->
<g id="edge2" class="edge">
<title>Node2&#45;&gt;Node3</title>
<path fill="none" stroke="midnightblue" d="M152.31,-22.88C160.41,-21.59 169.12,-20.2 177.72,-18.83"/>
<polygon fill="midnightblue" stroke="midnightblue" points="178.38,-22.26 187.71,-17.23 177.28,-15.35 178.38,-22.26"/>
</g>
</g>
</svg>
