<?xml version="1.0" encoding="UTF-8" standalone="no"?>
<!DOCTYPE svg PUBLIC "-//W3C//DTD SVG 1.1//EN"
 "http://www.w3.org/Graphics/SVG/1.1/DTD/svg11.dtd">
<!-- Generated by graphviz version 2.47.1 (20210417.1919)
 -->
<!-- Title: The OpenCV proccesing module Pages: 1 -->
<svg width="313pt" height="138pt"
 viewBox="0.00 0.00 313.00 138.00" xmlns="http://www.w3.org/2000/svg" xmlns:xlink="http://www.w3.org/1999/xlink">
<g id="graph0" class="graph" transform="scale(1 1) rotate(0) translate(4 134)">
<title>The OpenCV proccesing module</title>
<polygon fill="white" stroke="transparent" points="-4,4 -4,-134 309,-134 309,4 -4,4"/>
<!-- Node4 -->
<g id="node1" class="node">
<title>Node4</title>
<g id="a_node1"><a xlink:href="../../d7/d6d/group__pipe_line.html" target="_top" xlink:title="all classes used for the OpenCV pipeLine">
<polygon fill="white" stroke="black" points="294.5,-130 203.5,-130 203.5,-111 294.5,-111 294.5,-130"/>
<text text-anchor="middle" x="249" y="-118" font-family="Helvetica,sans-Serif" font-size="10.00">PipeLine classes</text>
</a>
</g>
</g>
<!-- Node3 -->
<g id="node2" class="node">
<title>Node3</title>
<g id="a_node2"><a xlink:href="../../d4/d76/group__graphic.html" target="_top" xlink:title="all classes used for the graphic user interface">
<polygon fill="white" stroke="black" points="284,-93 214,-93 214,-74 284,-74 284,-93"/>
<text text-anchor="middle" x="249" y="-81" font-family="Helvetica,sans-Serif" font-size="10.00">GUI classes</text>
</a>
</g>
</g>
<!-- Node1 -->
<g id="node3" class="node">
<title>Node1</title>
<g id="a_node3"><a xlink:title="This is the group containing als the image processing parts.">
<polygon fill="#bfbfbf" stroke="black" points="157,-74 0,-74 0,-55 157,-55 157,-74"/>
<text text-anchor="middle" x="78.5" y="-62" font-family="Helvetica,sans-Serif" font-size="10.00">The OpenCV proccesing module</text>
</a>
</g>
</g>
<!-- Node1&#45;&gt;Node4 -->
<g id="edge3" class="edge">
<title>Node1&#45;&gt;Node4</title>
<path fill="none" stroke="black" d="M117.58,-77.32C139.61,-84.72 167.85,-94.18 193,-102.5 201.3,-105.25 210.31,-108.21 218.59,-110.92"/>
<polygon fill="black" stroke="black" points="118.53,-73.95 107.94,-74.08 116.3,-80.58 118.53,-73.95"/>
</g>
<!-- Node1&#45;&gt;Node3 -->
<g id="edge2" class="edge">
<title>Node1&#45;&gt;Node3</title>
<path fill="none" stroke="black" d="M167.58,-74.43C184.04,-76.29 200.29,-78.12 213.84,-79.65"/>
<polygon fill="black" stroke="black" points="167.67,-70.92 157.34,-73.28 166.88,-77.88 167.67,-70.92"/>
</g>
<!-- Node5 -->
<g id="node4" class="node">
<title>Node5</title>
<g id="a_node4"><a xlink:href="../../dd/d89/group__serial.html" target="_top" xlink:title="Serial communication with an Arduino Uno.">
<polygon fill="white" stroke="black" points="305,-56 193,-56 193,-37 305,-37 305,-56"/>
<text text-anchor="middle" x="249" y="-44" font-family="Helvetica,sans-Serif" font-size="10.00">Serial Communication</text>
</a>
</g>
</g>
<!-- Node1&#45;&gt;Node5 -->
<g id="edge4" class="edge">
<title>Node1&#45;&gt;Node5</title>
<path fill="none" stroke="black" d="M167.4,-55.11C175.97,-54.2 184.48,-53.29 192.6,-52.42"/>
<polygon fill="black" stroke="black" points="166.91,-51.64 157.34,-56.18 167.65,-58.6 166.91,-51.64"/>
</g>
<!-- Node2 -->
<g id="node5" class="node">
<title>Node2</title>
<g id="a_node5"><a xlink:href="../../d3/dab/group__main.html" target="_top" xlink:title="This group is the main entry point for the openCV processing console application.">
<polygon fill="white" stroke="black" points="288,-19 210,-19 210,0 288,0 288,-19"/>
<text text-anchor="middle" x="249" y="-7" font-family="Helvetica,sans-Serif" font-size="10.00">Main Function</text>
</a>
</g>
</g>
<!-- Node1&#45;&gt;Node2 -->
<g id="edge1" class="edge">
<title>Node1&#45;&gt;Node2</title>
<path fill="none" stroke="black" d="M118.75,-51.69C149.3,-41.72 191.02,-28.1 218.7,-19.06"/>
<polygon fill="black" stroke="black" points="117.27,-48.49 108.85,-54.92 119.44,-55.14 117.27,-48.49"/>
</g>
</g>
</svg>
