<?xml version="1.0" encoding="UTF-8" standalone="no"?>
<!DOCTYPE svg PUBLIC "-//W3C//DTD SVG 1.1//EN"
 "http://www.w3.org/Graphics/SVG/1.1/DTD/svg11.dtd">
<!-- Generated by graphviz version 2.47.1 (20210417.1919)
 -->
<!-- Title: Graphical Class Hierarchy Pages: 1 -->
<svg width="150pt" height="104pt"
 viewBox="0.00 0.00 150.00 104.00" xmlns="http://www.w3.org/2000/svg" xmlns:xlink="http://www.w3.org/1999/xlink">
<g id="graph0" class="graph" transform="scale(1 1) rotate(0) translate(4 100)">
<title>Graphical Class Hierarchy</title>
<polygon fill="white" stroke="transparent" points="-4,4 -4,-100 146,-100 146,4 -4,4"/>
<!-- Node0 -->
<g id="node1" class="node">
<title>Node0</title>
<g id="a_node1"><a xlink:href="d0/d91/class_uitgave.html" target="_top" xlink:title="Parent klasse voor een Uitgave.">
<polygon fill="white" stroke="black" points="0,-38.5 0,-57.5 48,-57.5 48,-38.5 0,-38.5"/>
<text text-anchor="middle" x="24" y="-45.5" font-family="Helvetica,sans-Serif" font-size="10.00">Uitgave</text>
</a>
</g>
</g>
<!-- Node1 -->
<g id="node2" class="node">
<title>Node1</title>
<g id="a_node2"><a xlink:href="db/da8/class_blue_ray.html" target="_top" xlink:title="Child klasse blueRay, parent: Uitgave.">
<polygon fill="white" stroke="black" points="86.5,-76.5 86.5,-95.5 139.5,-95.5 139.5,-76.5 86.5,-76.5"/>
<text text-anchor="middle" x="113" y="-83.5" font-family="Helvetica,sans-Serif" font-size="10.00">BlueRay</text>
</a>
</g>
</g>
<!-- Node0&#45;&gt;Node1 -->
<g id="edge1" class="edge">
<title>Node0&#45;&gt;Node1</title>
<path fill="none" stroke="midnightblue" d="M56.38,-61.71C67.54,-66.58 79.85,-71.96 90.05,-76.41"/>
<polygon fill="midnightblue" stroke="midnightblue" points="57.52,-58.38 46.95,-57.59 54.72,-64.8 57.52,-58.38"/>
</g>
<!-- Node2 -->
<g id="node3" class="node">
<title>Node2</title>
<g id="a_node3"><a xlink:href="db/d63/class_boek.html" target="_top" xlink:title="Child klasse boek, parent: Uitgave.">
<polygon fill="white" stroke="black" points="93.5,-38.5 93.5,-57.5 132.5,-57.5 132.5,-38.5 93.5,-38.5"/>
<text text-anchor="middle" x="113" y="-45.5" font-family="Helvetica,sans-Serif" font-size="10.00">Boek</text>
</a>
</g>
</g>
<!-- Node0&#45;&gt;Node2 -->
<g id="edge2" class="edge">
<title>Node0&#45;&gt;Node2</title>
<path fill="none" stroke="midnightblue" d="M58.36,-48C70.21,-48 83.12,-48 93.3,-48"/>
<polygon fill="midnightblue" stroke="midnightblue" points="58.31,-44.5 48.31,-48 58.31,-51.5 58.31,-44.5"/>
</g>
<!-- Node3 -->
<g id="node4" class="node">
<title>Node3</title>
<g id="a_node4"><a xlink:href="d0/d1e/class_tijdschrift.html" target="_top" xlink:title="Child klasse Tijdschrift, parent: Uitgave.">
<polygon fill="white" stroke="black" points="84,-0.5 84,-19.5 142,-19.5 142,-0.5 84,-0.5"/>
<text text-anchor="middle" x="113" y="-7.5" font-family="Helvetica,sans-Serif" font-size="10.00">Tijdschrift</text>
</a>
</g>
</g>
<!-- Node0&#45;&gt;Node3 -->
<g id="edge3" class="edge">
<title>Node0&#45;&gt;Node3</title>
<path fill="none" stroke="midnightblue" d="M56.38,-34.29C67.54,-29.42 79.85,-24.04 90.05,-19.59"/>
<polygon fill="midnightblue" stroke="midnightblue" points="54.72,-31.2 46.95,-38.41 57.52,-37.62 54.72,-31.2"/>
</g>
</g>
</svg>
