<?xml version="1.0" encoding="UTF-8" standalone="no"?>
<!DOCTYPE svg PUBLIC "-//W3C//DTD SVG 1.1//EN"
 "http://www.w3.org/Graphics/SVG/1.1/DTD/svg11.dtd">
<!-- Generated by graphviz version 2.47.1 (20210417.1919)
 -->
<!-- Title: Teller::setTeller Pages: 1 -->
<svg width="205pt" height="66pt"
 viewBox="0.00 0.00 205.00 66.00" xmlns="http://www.w3.org/2000/svg" xmlns:xlink="http://www.w3.org/1999/xlink">
<g id="graph0" class="graph" transform="scale(1 1) rotate(0) translate(4 62)">
<title>Teller::setTeller</title>
<polygon fill="white" stroke="transparent" points="-4,4 -4,-62 201,-62 201,4 -4,4"/>
<!-- Node1 -->
<g id="node1" class="node">
<title>Node1</title>
<g id="a_node1"><a xlink:title="Zet de waarde van de teller.">
<polygon fill="#bfbfbf" stroke="black" points="114,-19.5 114,-38.5 197,-38.5 197,-19.5 114,-19.5"/>
<text text-anchor="middle" x="155.5" y="-26.5" font-family="Helvetica,sans-Serif" font-size="10.00">Teller::setTeller</text>
</a>
</g>
</g>
<!-- Node2 -->
<g id="node2" class="node">
<title>Node2</title>
<g id="a_node2"><a xlink:href="../../d0/ded/group___h_f_s_t62.html#gae66f6b31b5ad750f1fe042a706a4e3d4" target="_top" xlink:title="Main function.">
<polygon fill="white" stroke="black" points="20,-38.5 20,-57.5 58,-57.5 58,-38.5 20,-38.5"/>
<text text-anchor="middle" x="39" y="-45.5" font-family="Helvetica,sans-Serif" font-size="10.00">main</text>
</a>
</g>
</g>
<!-- Node1&#45;&gt;Node2 -->
<g id="edge1" class="edge">
<title>Node1&#45;&gt;Node2</title>
<path fill="none" stroke="midnightblue" d="M103.81,-37.41C87.52,-40.11 70.52,-42.94 58.17,-44.99"/>
<polygon fill="midnightblue" stroke="midnightblue" points="104.52,-40.84 113.81,-35.75 103.37,-33.94 104.52,-40.84"/>
</g>
<!-- Node3 -->
<g id="node3" class="node">
<title>Node3</title>
<g id="a_node3"><a xlink:href="../../d3/d11/class_m_v.html#a5ca0b1bef820a073c244acc68b18183f" target="_top" xlink:title="Zet beide tellers op nul.">
<polygon fill="white" stroke="black" points="0,-0.5 0,-19.5 78,-19.5 78,-0.5 0,-0.5"/>
<text text-anchor="middle" x="39" y="-7.5" font-family="Helvetica,sans-Serif" font-size="10.00">MV::zetOpNul</text>
</a>
</g>
</g>
<!-- Node1&#45;&gt;Node3 -->
<g id="edge2" class="edge">
<title>Node1&#45;&gt;Node3</title>
<path fill="none" stroke="midnightblue" d="M103.86,-20.6C95.27,-19.17 86.47,-17.71 78.26,-16.35"/>
<polygon fill="midnightblue" stroke="midnightblue" points="103.37,-24.06 113.81,-22.25 104.52,-17.16 103.37,-24.06"/>
</g>
</g>
</svg>
