<?xml version="1.0" encoding="UTF-8" standalone="no"?>
<!DOCTYPE svg PUBLIC "-//W3C//DTD SVG 1.1//EN"
 "http://www.w3.org/Graphics/SVG/1.1/DTD/svg11.dtd">
<!-- Generated by graphviz version 2.47.1 (20210417.1919)
 -->
<!-- Title: Teller::getTeller Pages: 1 -->
<svg width="299pt" height="85pt"
 viewBox="0.00 0.00 299.00 85.00" xmlns="http://www.w3.org/2000/svg" xmlns:xlink="http://www.w3.org/1999/xlink">
<g id="graph0" class="graph" transform="scale(1 1) rotate(0) translate(4 81)">
<title>Teller::getTeller</title>
<polygon fill="white" stroke="transparent" points="-4,4 -4,-81 295,-81 295,4 -4,4"/>
<!-- Node1 -->
<g id="node1" class="node">
<title>Node1</title>
<g id="a_node1"><a xlink:title="Verkrijgt de waarde van de teller.">
<polygon fill="#bfbfbf" stroke="black" points="208,-38.5 208,-57.5 291,-57.5 291,-38.5 208,-38.5"/>
<text text-anchor="middle" x="249.5" y="-45.5" font-family="Helvetica,sans-Serif" font-size="10.00">Teller::getTeller</text>
</a>
</g>
</g>
<!-- Node2 -->
<g id="node2" class="node">
<title>Node2</title>
<g id="a_node2"><a xlink:href="../../d0/ded/group___h_f_s_t62.html#gae66f6b31b5ad750f1fe042a706a4e3d4" target="_top" xlink:title="Main function.">
<polygon fill="white" stroke="black" points="0,-57.5 0,-76.5 38,-76.5 38,-57.5 0,-57.5"/>
<text text-anchor="middle" x="19" y="-64.5" font-family="Helvetica,sans-Serif" font-size="10.00">main</text>
</a>
</g>
</g>
<!-- Node1&#45;&gt;Node2 -->
<g id="edge1" class="edge">
<title>Node1&#45;&gt;Node2</title>
<path fill="none" stroke="midnightblue" d="M207.8,-60.06C196.33,-62.92 183.77,-65.56 172,-67 124.07,-72.86 66.99,-70.34 38.34,-68.43"/>
<polygon fill="midnightblue" stroke="midnightblue" points="208.77,-63.42 217.56,-57.51 207,-56.65 208.77,-63.42"/>
</g>
<!-- Node3 -->
<g id="node3" class="node">
<title>Node3</title>
<g id="a_node3"><a xlink:href="../../d3/d11/class_m_v.html#a50f872cc3aa7f47440910cce5ebaa84f" target="_top" xlink:title="Weergave van beide tellers.">
<polygon fill="white" stroke="black" points="87.5,-38.5 87.5,-57.5 158.5,-57.5 158.5,-38.5 87.5,-38.5"/>
<text text-anchor="middle" x="123" y="-45.5" font-family="Helvetica,sans-Serif" font-size="10.00">MV::toString</text>
</a>
</g>
</g>
<!-- Node1&#45;&gt;Node3 -->
<g id="edge2" class="edge">
<title>Node1&#45;&gt;Node3</title>
<path fill="none" stroke="midnightblue" d="M197.44,-48C184.37,-48 170.62,-48 158.6,-48"/>
<polygon fill="midnightblue" stroke="midnightblue" points="197.73,-51.5 207.73,-48 197.73,-44.5 197.73,-51.5"/>
</g>
<!-- Node4 -->
<g id="node4" class="node">
<title>Node4</title>
<g id="a_node4"><a xlink:href="../../db/de7/class_wedstrijd.html#a7947a3a0c84536131cde838fafbf3344" target="_top" xlink:title="Alle gegevens van de wedstrijd weer gegeven als string.">
<polygon fill="white" stroke="black" points="74,-0.5 74,-19.5 172,-19.5 172,-0.5 74,-0.5"/>
<text text-anchor="middle" x="123" y="-7.5" font-family="Helvetica,sans-Serif" font-size="10.00">Wedstrijd::toString</text>
</a>
</g>
</g>
<!-- Node1&#45;&gt;Node4 -->
<g id="edge4" class="edge">
<title>Node1&#45;&gt;Node4</title>
<path fill="none" stroke="midnightblue" d="M207.43,-35.46C190.49,-30.3 171.18,-24.4 155.41,-19.59"/>
<polygon fill="midnightblue" stroke="midnightblue" points="206.5,-38.84 217.08,-38.41 208.54,-32.14 206.5,-38.84"/>
</g>
<!-- Node3&#45;&gt;Node2 -->
<g id="edge3" class="edge">
<title>Node3&#45;&gt;Node2</title>
<path fill="none" stroke="midnightblue" d="M77.55,-56.28C63.68,-58.86 49.16,-61.57 38.17,-63.62"/>
<polygon fill="midnightblue" stroke="midnightblue" points="78.28,-59.7 87.47,-54.43 77,-52.82 78.28,-59.7"/>
</g>
<!-- Node5 -->
<g id="node5" class="node">
<title>Node5</title>
<g id="a_node5"><a xlink:href="../../d2/dc9/group___h_f_s_t71.html#gae66f6b31b5ad750f1fe042a706a4e3d4" target="_top" xlink:title="Main function.">
<polygon fill="white" stroke="black" points="0,-0.5 0,-19.5 38,-19.5 38,-0.5 0,-0.5"/>
<text text-anchor="middle" x="19" y="-7.5" font-family="Helvetica,sans-Serif" font-size="10.00">main</text>
</a>
</g>
</g>
<!-- Node4&#45;&gt;Node5 -->
<g id="edge5" class="edge">
<title>Node4&#45;&gt;Node5</title>
<path fill="none" stroke="midnightblue" d="M63.78,-10C54.44,-10 45.43,-10 38.04,-10"/>
<polygon fill="midnightblue" stroke="midnightblue" points="63.99,-13.5 73.99,-10 63.99,-6.5 63.99,-13.5"/>
</g>
</g>
</svg>
