<?xml version="1.0" encoding="UTF-8" standalone="no"?>
<!DOCTYPE svg PUBLIC "-//W3C//DTD SVG 1.1//EN"
 "http://www.w3.org/Graphics/SVG/1.1/DTD/svg11.dtd">
<!-- Generated by graphviz version 2.47.1 (20210417.1919)
 -->
<!-- Title: GUI classes Pages: 1 -->
<svg width="378pt" height="64pt"
 viewBox="0.00 0.00 378.00 64.00" xmlns="http://www.w3.org/2000/svg" xmlns:xlink="http://www.w3.org/1999/xlink">
<g id="graph0" class="graph" transform="scale(1 1) rotate(0) translate(4 60)">
<title>GUI classes</title>
<polygon fill="white" stroke="transparent" points="-4,4 -4,-60 374,-60 374,4 -4,4"/>
<!-- Node4 -->
<g id="node1" class="node">
<title>Node4</title>
<g id="a_node1"><a xlink:href="../../d9/d76/group__graphiccpp.html" target="_top" xlink:title="all C++ files">
<polygon fill="white" stroke="black" points="364,-56 305,-56 305,-37 364,-37 364,-56"/>
<text text-anchor="middle" x="334.5" y="-44" font-family="Helvetica,sans-Serif" font-size="10.00">C++ Files</text>
</a>
</g>
</g>
<!-- Node3 -->
<g id="node2" class="node">
<title>Node3</title>
<g id="a_node2"><a xlink:href="../../d3/d4f/group__graphicheader.html" target="_top" xlink:title="all header files">
<polygon fill="white" stroke="black" points="370,-19 299,-19 299,0 370,0 370,-19"/>
<text text-anchor="middle" x="334.5" y="-7" font-family="Helvetica,sans-Serif" font-size="10.00">Header Files</text>
</a>
</g>
</g>
<!-- Node1 -->
<g id="node3" class="node">
<title>Node1</title>
<g id="a_node3"><a xlink:title="all classes used for the graphic user interface">
<polygon fill="#bfbfbf" stroke="black" points="263,-37 193,-37 193,-18 263,-18 263,-37"/>
<text text-anchor="middle" x="228" y="-25" font-family="Helvetica,sans-Serif" font-size="10.00">GUI classes</text>
</a>
</g>
</g>
<!-- Node1&#45;&gt;Node4 -->
<g id="edge3" class="edge">
<title>Node1&#45;&gt;Node4</title>
<path fill="none" stroke="black" d="M273.25,-35.55C283.93,-37.49 295.06,-39.51 304.8,-41.28"/>
<polygon fill="black" stroke="black" points="273.68,-32.07 263.22,-33.72 272.43,-38.95 273.68,-32.07"/>
</g>
<!-- Node1&#45;&gt;Node3 -->
<g id="edge2" class="edge">
<title>Node1&#45;&gt;Node3</title>
<path fill="none" stroke="black" d="M273.11,-19.9C281.71,-18.42 290.61,-16.89 298.85,-15.47"/>
<polygon fill="black" stroke="black" points="272.48,-16.46 263.22,-21.61 273.67,-23.36 272.48,-16.46"/>
</g>
<!-- Node2 -->
<g id="node4" class="node">
<title>Node2</title>
<g id="a_node4"><a xlink:href="../../dc/d4d/group__processing.html" target="_top" xlink:title="This is the group containing als the image processing parts.">
<polygon fill="white" stroke="black" points="157,-37 0,-37 0,-18 157,-18 157,-37"/>
<text text-anchor="middle" x="78.5" y="-25" font-family="Helvetica,sans-Serif" font-size="10.00">The OpenCV proccesing module</text>
</a>
</g>
</g>
<!-- Node2&#45;&gt;Node1 -->
<g id="edge1" class="edge">
<title>Node2&#45;&gt;Node1</title>
<path fill="none" stroke="black" d="M167.32,-27.5C176.26,-27.5 184.91,-27.5 192.73,-27.5"/>
<polygon fill="black" stroke="black" points="167.14,-24 157.14,-27.5 167.14,-31 167.14,-24"/>
</g>
</g>
</svg>
