<?xml version="1.0" encoding="UTF-8" standalone="no"?>
<!DOCTYPE svg PUBLIC "-//W3C//DTD SVG 1.1//EN"
 "http://www.w3.org/Graphics/SVG/1.1/DTD/svg11.dtd">
<!-- Generated by graphviz version 2.47.1 (20210417.1919)
 -->
<!-- Title: main Pages: 1 -->
<svg width="369pt" height="180pt"
 viewBox="0.00 0.00 369.00 180.00" xmlns="http://www.w3.org/2000/svg" xmlns:xlink="http://www.w3.org/1999/xlink">
<g id="graph0" class="graph" transform="scale(1 1) rotate(0) translate(4 176)">
<title>main</title>
<polygon fill="white" stroke="transparent" points="-4,4 -4,-176 365,-176 365,4 -4,4"/>
<!-- Node1 -->
<g id="node1" class="node">
<title>Node1</title>
<g id="a_node1"><a xlink:title="Main function.">
<polygon fill="#bfbfbf" stroke="black" points="0,-76.5 0,-95.5 38,-95.5 38,-76.5 0,-76.5"/>
<text text-anchor="middle" x="19" y="-83.5" font-family="Helvetica,sans-Serif" font-size="10.00">main</text>
</a>
</g>
</g>
<!-- Node2 -->
<g id="node2" class="node">
<title>Node2</title>
<g id="a_node2"><a xlink:href="../../d9/de4/class_tijdstip.html#a5d541994f0d9d2c93d9d5069ff2a9b88" target="_top" xlink:title="Het inggeven van een tijdStip.">
<polygon fill="white" stroke="black" points="89,-152.5 89,-171.5 188,-171.5 188,-152.5 89,-152.5"/>
<text text-anchor="middle" x="138.5" y="-159.5" font-family="Helvetica,sans-Serif" font-size="10.00">Tijdstip::setTijdStip</text>
</a>
</g>
</g>
<!-- Node1&#45;&gt;Node2 -->
<g id="edge1" class="edge">
<title>Node1&#45;&gt;Node2</title>
<path fill="none" stroke="midnightblue" d="M26.54,-95.54C35.71,-108.2 53.57,-130.43 74,-143 77.43,-145.11 81.11,-147 84.91,-148.69"/>
<polygon fill="midnightblue" stroke="midnightblue" points="83.92,-152.06 94.51,-152.48 86.49,-145.55 83.92,-152.06"/>
</g>
<!-- Node3 -->
<g id="node3" class="node">
<title>Node3</title>
<g id="a_node3"><a xlink:href="../../d9/de4/class_tijdstip.html#a30a010b20c1bb85577a57efb71b00144" target="_top" xlink:title="Tijdstip gerepresenteerd als een string in format uu:mm:ss.">
<polygon fill="white" stroke="black" points="95,-114.5 95,-133.5 182,-133.5 182,-114.5 95,-114.5"/>
<text text-anchor="middle" x="138.5" y="-121.5" font-family="Helvetica,sans-Serif" font-size="10.00">Tijdstip::toString</text>
</a>
</g>
</g>
<!-- Node1&#45;&gt;Node3 -->
<g id="edge2" class="edge">
<title>Node1&#45;&gt;Node3</title>
<path fill="none" stroke="midnightblue" d="M38.42,-92.73C48.82,-96.46 62.09,-101.13 74,-105 80.62,-107.15 87.65,-109.35 94.54,-111.45"/>
<polygon fill="midnightblue" stroke="midnightblue" points="93.87,-114.9 104.45,-114.44 95.89,-108.2 93.87,-114.9"/>
</g>
<!-- Node5 -->
<g id="node5" class="node">
<title>Node5</title>
<g id="a_node5"><a xlink:href="../../d9/de4/class_tijdstip.html#a30eb38d591bb1ddd0b591e39299dcd41" target="_top" xlink:title="Het verstrijken van een minuut">
<polygon fill="white" stroke="black" points="78.5,-76.5 78.5,-95.5 198.5,-95.5 198.5,-76.5 78.5,-76.5"/>
<text text-anchor="middle" x="138.5" y="-83.5" font-family="Helvetica,sans-Serif" font-size="10.00">Tijdstip::volgendeMinuut</text>
</a>
</g>
</g>
<!-- Node1&#45;&gt;Node5 -->
<g id="edge4" class="edge">
<title>Node1&#45;&gt;Node5</title>
<path fill="none" stroke="midnightblue" d="M38.1,-86C46.48,-86 57.02,-86 68.09,-86"/>
<polygon fill="midnightblue" stroke="midnightblue" points="68.35,-89.5 78.35,-86 68.35,-82.5 68.35,-89.5"/>
</g>
<!-- Node6 -->
<g id="node6" class="node">
<title>Node6</title>
<g id="a_node6"><a xlink:href="../../d9/de4/class_tijdstip.html#a39c1cb75608a1150a29760187b7b7a51" target="_top" xlink:title="Het verstrijken van een seconde.">
<polygon fill="white" stroke="black" points="74,-38.5 74,-57.5 203,-57.5 203,-38.5 74,-38.5"/>
<text text-anchor="middle" x="138.5" y="-45.5" font-family="Helvetica,sans-Serif" font-size="10.00">Tijdstip::volgendeSeconde</text>
</a>
</g>
</g>
<!-- Node1&#45;&gt;Node6 -->
<g id="edge5" class="edge">
<title>Node1&#45;&gt;Node6</title>
<path fill="none" stroke="midnightblue" d="M38.42,-79.27C48.82,-75.54 62.09,-70.87 74,-67 80.62,-64.85 87.65,-62.65 94.54,-60.55"/>
<polygon fill="midnightblue" stroke="midnightblue" points="95.89,-63.8 104.45,-57.56 93.87,-57.1 95.89,-63.8"/>
</g>
<!-- Node7 -->
<g id="node7" class="node">
<title>Node7</title>
<g id="a_node7"><a xlink:href="../../d9/de4/class_tijdstip.html#a5c3c767eadb6fa0fe5e87b5361c73ca0" target="_top" xlink:title="Het verstrijken van een uur in 24&#45;uurs format.">
<polygon fill="white" stroke="black" points="88,-0.5 88,-19.5 189,-19.5 189,-0.5 88,-0.5"/>
<text text-anchor="middle" x="138.5" y="-7.5" font-family="Helvetica,sans-Serif" font-size="10.00">Tijdstip::volgendUur</text>
</a>
</g>
</g>
<!-- Node1&#45;&gt;Node7 -->
<g id="edge6" class="edge">
<title>Node1&#45;&gt;Node7</title>
<path fill="none" stroke="midnightblue" d="M26.54,-76.46C35.71,-63.8 53.57,-41.57 74,-29 77.43,-26.89 81.11,-25 84.91,-23.31"/>
<polygon fill="midnightblue" stroke="midnightblue" points="86.49,-26.45 94.51,-19.52 83.92,-19.94 86.49,-26.45"/>
</g>
<!-- Node4 -->
<g id="node4" class="node">
<title>Node4</title>
<g id="a_node4"><a xlink:href="../../d9/de4/class_tijdstip.html#af62dd17a0af7c5784c727fd3e6b8879e" target="_top" xlink:title="voegt een &#39;0&#39;&#45;character toe voor i &lt; 10">
<polygon fill="white" stroke="black" points="239,-114.5 239,-133.5 361,-133.5 361,-114.5 239,-114.5"/>
<text text-anchor="middle" x="300" y="-121.5" font-family="Helvetica,sans-Serif" font-size="10.00">Tijdstip::addLeadingZero</text>
</a>
</g>
</g>
<!-- Node3&#45;&gt;Node4 -->
<g id="edge3" class="edge">
<title>Node3&#45;&gt;Node4</title>
<path fill="none" stroke="midnightblue" d="M182.24,-124C196.47,-124 212.72,-124 228.49,-124"/>
<polygon fill="midnightblue" stroke="midnightblue" points="228.75,-127.5 238.75,-124 228.75,-120.5 228.75,-127.5"/>
</g>
</g>
</svg>
